<svg xmlns="http://www.w3.org/2000/svg" xmlns:xlink="http://www.w3.org/1999/xlink" viewBox="0 0 1600 150"><defs><style>.cls-1,.cls-4{fill:#98cbe1;}.cls-1{opacity:0;}.cls-2{fill:#848484;}.cls-3{fill:#727272;}</style><symbol id="dryp1" data-name="dryp1" viewBox="0 0 100 150"><rect class="cls-1" width="100" height="150"/><path class="cls-2" d="M50.63,19.34c0-.06-1.58-2.06-2.32-2.28a7.7,7.7,0,0,0-2.86-.14c-1.68.17-2.47.33-2.62.35-1.16-4-1.5-5.49-2.34-7.16-1.39-2.8-3.78-2.15-6-.94-.74.39-.51,2.4.81,2.24.71-.42,2-1.13,2.68-.67,1,.75,2.6,7.34,2.6,7.34A23.75,23.75,0,0,0,38,19.6a6.49,6.49,0,0,0-2.12,2.08,12.11,12.11,0,0,0-.4,3.12.65.65,0,0,0,0,.11c.05.23.21.86.43,1,1.14.77,4.26-.26,7.77-1.48,3.66-1.28,6.84-2.81,7.26-4.2C51,20,50.69,19.5,50.63,19.34Z"/><ellipse class="cls-3" cx="43.35" cy="22.87" rx="8.09" ry="1.88" transform="matrix(0.94, -0.35, 0.35, 0.94, -5.28, 16.75)"/><ellipse class="cls-2" cx="38.78" cy="24.7" rx="0.65" ry="0.15" transform="translate(-6.22 15.26) rotate(-20.65)"/><ellipse class="cls-2" cx="41" cy="23.66" rx="0.65" ry="0.15" transform="translate(-5.71 15.98) rotate(-20.65)"/><ellipse class="cls-2" cx="40.57" cy="24.7" rx="0.65" ry="0.15" transform="translate(-6.1 15.89) rotate(-20.65)"/><ellipse class="cls-2" cx="43.14" cy="22.32" rx="0.65" ry="0.15" transform="matrix(0.94, -0.35, 0.35, 0.94, -5.1, 16.65)"/><ellipse class="cls-2" cx="44.85" cy="22.42" rx="0.65" ry="0.15" transform="matrix(0.94, -0.35, 0.35, 0.94, -5.02, 17.26)"/><ellipse class="cls-2" cx="48.06" cy="21" rx="0.65" ry="0.15" transform="translate(-4.32 18.29) rotate(-20.65)"/><path class="cls-4" d="M62.66,138.47s-4.06,2-7.13,1.49-6.64-.24-7.73.27-7.87,1.52-9.56-.15-5.34-.54-4.81-1.83c.27-.65,1.64-.9,4.19-2.14,1.73-.83,5.28-.8,8.34-1.45,3.66-.77,6-1,8.73.46C58.78,137.31,65.18,136.6,62.66,138.47Z"/></symbol><symbol id="dryp2" data-name="dryp2" viewBox="0 0 100 150"><rect class="cls-1" width="100" height="150"/><path class="cls-2" d="M50.63,19.34c0-.06-1.58-2.06-2.32-2.28a7.7,7.7,0,0,0-2.86-.14c-1.68.17-2.47.33-2.62.35-1.16-4-1.5-5.49-2.34-7.16-1.39-2.8-3.78-2.15-6-.94-.74.39-.51,2.4.81,2.24.71-.42,2-1.13,2.68-.67,1,.75,2.6,7.34,2.6,7.34A23.75,23.75,0,0,0,38,19.6a6.49,6.49,0,0,0-2.12,2.08,12.11,12.11,0,0,0-.4,3.12.65.65,0,0,0,0,.11c.05.23.21.86.43,1,1.14.77,4.26-.26,7.77-1.48,3.66-1.28,6.84-2.81,7.26-4.2C51,20,50.69,19.5,50.63,19.34Z"/><ellipse class="cls-3" cx="43.35" cy="22.87" rx="8.09" ry="1.88" transform="matrix(0.94, -0.35, 0.35, 0.94, -5.28, 16.75)"/><ellipse class="cls-2" cx="41" cy="23.66" rx="0.65" ry="0.15" transform="translate(-5.71 15.98) rotate(-20.65)"/><ellipse class="cls-2" cx="40.57" cy="24.7" rx="0.65" ry="0.15" transform="translate(-6.1 15.89) rotate(-20.65)"/><ellipse class="cls-2" cx="43.14" cy="22.32" rx="0.65" ry="0.15" transform="matrix(0.94, -0.35, 0.35, 0.94, -5.1, 16.65)"/><ellipse class="cls-2" cx="44.85" cy="22.42" rx="0.65" ry="0.15" transform="matrix(0.94, -0.35, 0.35, 0.94, -5.02, 17.26)"/><ellipse class="cls-2" cx="48.06" cy="21" rx="0.65" ry="0.15" transform="translate(-4.32 18.29) rotate(-20.65)"/><path class="cls-4" d="M62.66,138.47s-4.06,2-7.13,1.49-6.64-.24-7.73.27-7.87,1.52-9.56-.15-5.34-.54-4.81-1.83c.27-.65,1.64-.9,4.19-2.14,1.73-.83,5.28-.8,8.34-1.45,3.66-.77,6-1,8.73.46C58.78,137.31,65.18,136.6,62.66,138.47Z"/><path class="cls-2" d="M38.18,24.93h0a0,0,0,0,0,0,0Z"/><path class="cls-2" d="M39.39,24.48c0-.06-.16-.06-.35,0a.48.48,0,0,1,.07.23,0,0,0,0,1,0,0C39.28,24.63,39.41,24.53,39.39,24.48Z"/><path class="cls-4" d="M38.2,24.94a.48.48,0,0,0,.9-.22,1.46,1.46,0,0,1-.28.13C38.52,25,38.26,25,38.2,24.94Z"/><path class="cls-4" d="M39,24.47l-.29.09c-.33.12-.57.27-.57.36a0,0,0,0,1,0,0c.06.06.32,0,.62-.09a1.46,1.46,0,0,0,.28-.13,0,0,0,0,0,0,0A.48.48,0,0,0,39,24.47Z"/></symbol><symbol id="dryp3" data-name="dryp3" viewBox="0 0 100 150"><rect class="cls-1" width="100" height="150"/><path class="cls-2" d="M50.63,19.34c0-.06-1.58-2.06-2.32-2.28a7.7,7.7,0,0,0-2.86-.14c-1.68.17-2.47.33-2.62.35-1.16-4-1.5-5.49-2.34-7.16-1.39-2.8-3.78-2.15-6-.94-.74.39-.51,2.4.81,2.24.71-.42,2-1.13,2.68-.67,1,.75,2.6,7.34,2.6,7.34A23.75,23.75,0,0,0,38,19.6a6.49,6.49,0,0,0-2.12,2.08,12.11,12.11,0,0,0-.4,3.12.65.65,0,0,0,0,.11c.05.23.21.86.43,1,1.14.77,4.26-.26,7.77-1.48,3.66-1.28,6.84-2.81,7.26-4.2C51,20,50.69,19.5,50.63,19.34Z"/><ellipse class="cls-3" cx="43.35" cy="22.87" rx="8.09" ry="1.88" transform="matrix(0.94, -0.35, 0.35, 0.94, -5.28, 16.75)"/><ellipse class="cls-2" cx="41" cy="23.66" rx="0.65" ry="0.15" transform="translate(-5.71 15.98) rotate(-20.65)"/><ellipse class="cls-2" cx="40.57" cy="24.7" rx="0.65" ry="0.15" transform="translate(-6.1 15.89) rotate(-20.65)"/><ellipse class="cls-2" cx="38.78" cy="24.72" rx="0.65" ry="0.15" transform="translate(-6.22 15.26) rotate(-20.65)"/><ellipse class="cls-2" cx="43.14" cy="22.32" rx="0.65" ry="0.15" transform="matrix(0.94, -0.35, 0.35, 0.94, -5.1, 16.65)"/><ellipse class="cls-2" cx="44.85" cy="22.42" rx="0.65" ry="0.15" transform="matrix(0.94, -0.35, 0.35, 0.94, -5.02, 17.26)"/><ellipse class="cls-2" cx="48.06" cy="21" rx="0.65" ry="0.15" transform="translate(-4.32 18.29) rotate(-20.65)"/><path class="cls-4" d="M62.66,138.47s-4.06,2-7.13,1.49-6.64-.24-7.73.27-7.87,1.52-9.56-.15-5.34-.54-4.81-1.83c.27-.65,1.64-.9,4.19-2.14,1.73-.83,5.28-.8,8.34-1.45,3.66-.77,6-1,8.73.46C58.78,137.31,65.18,136.6,62.66,138.47Z"/><path class="cls-4" d="M39.11,25.92a.47.47,0,1,1-.93,0c0-.25.38-.67.46-1.2C38.74,25.25,39.11,25.67,39.11,25.92Z"/></symbol><symbol id="dryp4" data-name="dryp4" viewBox="0 0 100 150"><rect class="cls-1" width="100" height="150"/><path class="cls-2" d="M50.63,19.34c0-.06-1.58-2.06-2.32-2.28a7.7,7.7,0,0,0-2.86-.14c-1.68.17-2.47.33-2.62.35-1.16-4-1.5-5.49-2.34-7.16-1.39-2.8-3.78-2.15-6-.94-.74.39-.51,2.4.81,2.24.71-.42,2-1.13,2.68-.67,1,.75,2.6,7.34,2.6,7.34A23.75,23.75,0,0,0,38,19.6a6.49,6.49,0,0,0-2.12,2.08,12.11,12.11,0,0,0-.4,3.12.65.65,0,0,0,0,.11c.05.23.21.86.43,1,1.14.77,4.26-.26,7.77-1.48,3.66-1.28,6.84-2.81,7.26-4.2C51,20,50.69,19.5,50.63,19.34Z"/><ellipse class="cls-3" cx="43.35" cy="22.87" rx="8.09" ry="1.88" transform="matrix(0.94, -0.35, 0.35, 0.94, -5.28, 16.75)"/><ellipse class="cls-2" cx="41" cy="23.66" rx="0.65" ry="0.15" transform="translate(-5.71 15.98) rotate(-20.65)"/><ellipse class="cls-2" cx="40.57" cy="24.7" rx="0.65" ry="0.15" transform="translate(-6.1 15.89) rotate(-20.65)"/><ellipse class="cls-2" cx="38.78" cy="24.72" rx="0.65" ry="0.15" transform="translate(-6.22 15.26) rotate(-20.65)"/><ellipse class="cls-2" cx="43.14" cy="22.32" rx="0.65" ry="0.15" transform="matrix(0.94, -0.35, 0.35, 0.94, -5.1, 16.65)"/><ellipse class="cls-2" cx="44.85" cy="22.42" rx="0.65" ry="0.15" transform="matrix(0.94, -0.35, 0.35, 0.94, -5.02, 17.26)"/><ellipse class="cls-2" cx="48.06" cy="21" rx="0.65" ry="0.15" transform="translate(-4.32 18.29) rotate(-20.65)"/><path class="cls-4" d="M62.66,138.47s-4.06,2-7.13,1.49-6.64-.24-7.73.27-7.87,1.52-9.56-.15-5.34-.54-4.81-1.83c.27-.65,1.64-.9,4.19-2.14,1.73-.83,5.28-.8,8.34-1.45,3.66-.77,6-1,8.73.46C58.78,137.31,65.18,136.6,62.66,138.47Z"/><path class="cls-4" d="M39.11,26.75a.47.47,0,1,1-.93,0c0-.25.38-.66.46-1.19C38.74,26.09,39.11,26.5,39.11,26.75Z"/></symbol><symbol id="dryp5" data-name="dryp5" viewBox="0 0 100 150"><rect class="cls-1" width="100" height="150"/><path class="cls-2" d="M50.63,19.34c0-.06-1.58-2.06-2.32-2.28a7.7,7.7,0,0,0-2.86-.14c-1.68.17-2.47.33-2.62.35-1.16-4-1.5-5.49-2.34-7.16-1.39-2.8-3.78-2.15-6-.94-.74.39-.51,2.4.81,2.24.71-.42,2-1.13,2.68-.67,1,.75,2.6,7.34,2.6,7.34A23.75,23.75,0,0,0,38,19.6a6.49,6.49,0,0,0-2.12,2.08,12.11,12.11,0,0,0-.4,3.12.65.65,0,0,0,0,.11c.05.23.21.86.43,1,1.14.77,4.26-.26,7.77-1.48,3.66-1.28,6.84-2.81,7.26-4.2C51,20,50.69,19.5,50.63,19.34Z"/><ellipse class="cls-3" cx="43.35" cy="22.87" rx="8.09" ry="1.88" transform="matrix(0.94, -0.35, 0.35, 0.94, -5.28, 16.75)"/><ellipse class="cls-2" cx="41" cy="23.66" rx="0.65" ry="0.15" transform="translate(-5.71 15.98) rotate(-20.65)"/><ellipse class="cls-2" cx="40.57" cy="24.7" rx="0.65" ry="0.15" transform="translate(-6.1 15.89) rotate(-20.65)"/><ellipse class="cls-2" cx="38.78" cy="24.72" rx="0.65" ry="0.15" transform="translate(-6.22 15.26) rotate(-20.65)"/><ellipse class="cls-2" cx="43.14" cy="22.32" rx="0.65" ry="0.15" transform="matrix(0.94, -0.35, 0.35, 0.94, -5.1, 16.65)"/><ellipse class="cls-2" cx="44.85" cy="22.42" rx="0.65" ry="0.15" transform="matrix(0.94, -0.35, 0.35, 0.94, -5.02, 17.26)"/><ellipse class="cls-2" cx="48.06" cy="21" rx="0.65" ry="0.15" transform="translate(-4.32 18.29) rotate(-20.65)"/><path class="cls-4" d="M62.66,138.47s-4.06,2-7.13,1.49-6.64-.24-7.73.27-7.87,1.52-9.56-.15-5.34-.54-4.81-1.83c.27-.65,1.64-.9,4.19-2.14,1.73-.83,5.28-.8,8.34-1.45,3.66-.77,6-1,8.73.46C58.78,137.31,65.18,136.6,62.66,138.47Z"/><path class="cls-4" d="M39.11,29.52a.47.47,0,1,1-.93,0c0-.25.38-.66.46-1.19C38.74,28.86,39.11,29.27,39.11,29.52Z"/></symbol><symbol id="dryp6" data-name="dryp6" viewBox="0 0 100 150"><rect class="cls-1" width="100" height="150"/><path class="cls-2" d="M50.63,19.34c0-.06-1.58-2.06-2.32-2.28a7.7,7.7,0,0,0-2.86-.14c-1.68.17-2.47.33-2.62.35-1.16-4-1.5-5.49-2.34-7.16-1.39-2.8-3.78-2.15-6-.94-.74.39-.51,2.4.81,2.24.71-.42,2-1.13,2.68-.67,1,.75,2.6,7.34,2.6,7.34A23.75,23.75,0,0,0,38,19.6a6.49,6.49,0,0,0-2.12,2.08,12.11,12.11,0,0,0-.4,3.12.65.65,0,0,0,0,.11c.05.23.21.86.43,1,1.14.77,4.26-.26,7.77-1.48,3.66-1.28,6.84-2.81,7.26-4.2C51,20,50.69,19.5,50.63,19.34Z"/><ellipse class="cls-3" cx="43.35" cy="22.87" rx="8.09" ry="1.88" transform="matrix(0.94, -0.35, 0.35, 0.94, -5.28, 16.75)"/><ellipse class="cls-2" cx="41" cy="23.66" rx="0.65" ry="0.15" transform="translate(-5.71 15.98) rotate(-20.65)"/><ellipse class="cls-2" cx="40.57" cy="24.7" rx="0.65" ry="0.15" transform="translate(-6.1 15.89) rotate(-20.65)"/><ellipse class="cls-2" cx="38.78" cy="24.72" rx="0.65" ry="0.15" transform="translate(-6.22 15.26) rotate(-20.65)"/><ellipse class="cls-2" cx="43.14" cy="22.32" rx="0.65" ry="0.15" transform="matrix(0.94, -0.35, 0.35, 0.94, -5.1, 16.65)"/><ellipse class="cls-2" cx="44.85" cy="22.42" rx="0.65" ry="0.15" transform="matrix(0.94, -0.35, 0.35, 0.94, -5.02, 17.26)"/><ellipse class="cls-2" cx="48.06" cy="21" rx="0.65" ry="0.15" transform="translate(-4.32 18.29) rotate(-20.65)"/><path class="cls-4" d="M62.66,138.47s-4.06,2-7.13,1.49-6.64-.24-7.73.27-7.87,1.52-9.56-.15-5.34-.54-4.81-1.83c.27-.65,1.64-.9,4.19-2.14,1.73-.83,5.28-.8,8.34-1.45,3.66-.77,6-1,8.73.46C58.78,137.31,65.18,136.6,62.66,138.47Z"/><path class="cls-4" d="M39.11,33a.47.47,0,0,1-.93,0c0-.26.38-.67.46-1.2C38.74,32.32,39.11,32.73,39.11,33Z"/></symbol><symbol id="dryp7" data-name="dryp7" viewBox="0 0 100 150"><rect class="cls-1" width="100" height="150"/><path class="cls-2" d="M50.63,19.34c0-.06-1.58-2.06-2.32-2.28a7.7,7.7,0,0,0-2.86-.14c-1.68.17-2.47.33-2.62.35-1.16-4-1.5-5.49-2.34-7.16-1.39-2.8-3.78-2.15-6-.94-.74.39-.51,2.4.81,2.24.71-.42,2-1.13,2.68-.67,1,.75,2.6,7.34,2.6,7.34A23.75,23.75,0,0,0,38,19.6a6.49,6.49,0,0,0-2.12,2.08,12.11,12.11,0,0,0-.4,3.12.65.65,0,0,0,0,.11c.05.23.21.86.43,1,1.14.77,4.26-.26,7.77-1.48,3.66-1.28,6.84-2.81,7.26-4.2C51,20,50.69,19.5,50.63,19.34Z"/><ellipse class="cls-3" cx="43.35" cy="22.87" rx="8.09" ry="1.88" transform="matrix(0.94, -0.35, 0.35, 0.94, -5.28, 16.75)"/><ellipse class="cls-2" cx="41" cy="23.66" rx="0.65" ry="0.15" transform="translate(-5.71 15.98) rotate(-20.65)"/><ellipse class="cls-2" cx="40.57" cy="24.7" rx="0.65" ry="0.15" transform="translate(-6.1 15.89) rotate(-20.65)"/><ellipse class="cls-2" cx="38.78" cy="24.72" rx="0.65" ry="0.15" transform="translate(-6.22 15.26) rotate(-20.65)"/><ellipse class="cls-2" cx="43.14" cy="22.32" rx="0.65" ry="0.15" transform="matrix(0.94, -0.35, 0.35, 0.94, -5.1, 16.65)"/><ellipse class="cls-2" cx="44.85" cy="22.42" rx="0.65" ry="0.15" transform="matrix(0.94, -0.35, 0.35, 0.94, -5.02, 17.26)"/><ellipse class="cls-2" cx="48.06" cy="21" rx="0.65" ry="0.15" transform="translate(-4.32 18.29) rotate(-20.65)"/><path class="cls-4" d="M62.66,138.47s-4.06,2-7.13,1.49-6.64-.24-7.73.27-7.87,1.52-9.56-.15-5.34-.54-4.81-1.83c.27-.65,1.64-.9,4.19-2.14,1.73-.83,5.28-.8,8.34-1.45,3.66-.77,6-1,8.73.46C58.78,137.31,65.18,136.6,62.66,138.47Z"/><path class="cls-4" d="M39.11,38.13a.47.47,0,0,1-.93,0c0-.26.38-.67.46-1.2C38.74,37.46,39.11,37.87,39.11,38.13Z"/></symbol><symbol id="dryp8" data-name="dryp8" viewBox="0 0 100 150"><rect class="cls-1" width="100" height="150"/><path class="cls-2" d="M50.63,19.34c0-.06-1.58-2.06-2.32-2.28a7.7,7.7,0,0,0-2.86-.14c-1.68.17-2.47.33-2.62.35-1.16-4-1.5-5.49-2.34-7.16-1.39-2.8-3.78-2.15-6-.94-.74.39-.51,2.4.81,2.24.71-.42,2-1.13,2.68-.67,1,.75,2.6,7.34,2.6,7.34A23.75,23.75,0,0,0,38,19.6a6.49,6.49,0,0,0-2.12,2.08,12.11,12.11,0,0,0-.4,3.12.65.65,0,0,0,0,.11c.05.23.21.86.43,1,1.14.77,4.26-.26,7.77-1.48,3.66-1.28,6.84-2.81,7.26-4.2C51,20,50.69,19.5,50.63,19.34Z"/><ellipse class="cls-3" cx="43.35" cy="22.87" rx="8.09" ry="1.88" transform="matrix(0.94, -0.35, 0.35, 0.94, -5.28, 16.75)"/><ellipse class="cls-2" cx="41" cy="23.66" rx="0.65" ry="0.15" transform="translate(-5.71 15.98) rotate(-20.65)"/><ellipse class="cls-2" cx="40.57" cy="24.7" rx="0.65" ry="0.15" transform="translate(-6.1 15.89) rotate(-20.65)"/><ellipse class="cls-2" cx="38.78" cy="24.72" rx="0.65" ry="0.15" transform="translate(-6.22 15.26) rotate(-20.65)"/><ellipse class="cls-2" cx="43.14" cy="22.32" rx="0.65" ry="0.15" transform="matrix(0.94, -0.35, 0.35, 0.94, -5.1, 16.65)"/><ellipse class="cls-2" cx="44.85" cy="22.42" rx="0.65" ry="0.15" transform="matrix(0.94, -0.35, 0.35, 0.94, -5.02, 17.26)"/><ellipse class="cls-2" cx="48.06" cy="21" rx="0.65" ry="0.15" transform="translate(-4.32 18.29) rotate(-20.65)"/><path class="cls-4" d="M62.66,138.47s-4.06,2-7.13,1.49-6.64-.24-7.73.27-7.87,1.52-9.56-.15-5.34-.54-4.81-1.83c.27-.65,1.64-.9,4.19-2.14,1.73-.83,5.28-.8,8.34-1.45,3.66-.77,6-1,8.73.46C58.78,137.31,65.18,136.6,62.66,138.47Z"/><path class="cls-4" d="M39.11,52.38a.47.47,0,1,1-.93,0c0-.25.38-.66.46-1.19C38.74,51.72,39.11,52.13,39.11,52.38Z"/></symbol><symbol id="dryp9" data-name="dryp9" viewBox="0 0 100 150"><rect class="cls-1" width="100" height="150"/><path class="cls-2" d="M50.63,19.34c0-.06-1.58-2.06-2.32-2.28a7.7,7.7,0,0,0-2.86-.14c-1.68.17-2.47.33-2.62.35-1.16-4-1.5-5.49-2.34-7.16-1.39-2.8-3.78-2.15-6-.94-.74.39-.51,2.4.81,2.24.71-.42,2-1.13,2.68-.67,1,.75,2.6,7.34,2.6,7.34A23.75,23.75,0,0,0,38,19.6a6.49,6.49,0,0,0-2.12,2.08,12.11,12.11,0,0,0-.4,3.12.65.65,0,0,0,0,.11c.05.23.21.86.43,1,1.14.77,4.26-.26,7.77-1.48,3.66-1.28,6.84-2.81,7.26-4.2C51,20,50.69,19.5,50.63,19.34Z"/><ellipse class="cls-3" cx="43.35" cy="22.87" rx="8.09" ry="1.88" transform="matrix(0.94, -0.35, 0.35, 0.94, -5.28, 16.75)"/><ellipse class="cls-2" cx="41" cy="23.66" rx="0.65" ry="0.15" transform="translate(-5.71 15.98) rotate(-20.65)"/><ellipse class="cls-2" cx="40.57" cy="24.7" rx="0.65" ry="0.15" transform="translate(-6.1 15.89) rotate(-20.65)"/><ellipse class="cls-2" cx="38.78" cy="24.72" rx="0.65" ry="0.15" transform="translate(-6.22 15.26) rotate(-20.65)"/><ellipse class="cls-2" cx="43.14" cy="22.32" rx="0.65" ry="0.15" transform="matrix(0.94, -0.35, 0.35, 0.94, -5.1, 16.65)"/><ellipse class="cls-2" cx="44.85" cy="22.42" rx="0.65" ry="0.15" transform="matrix(0.94, -0.35, 0.35, 0.94, -5.02, 17.26)"/><ellipse class="cls-2" cx="48.06" cy="21" rx="0.65" ry="0.15" transform="translate(-4.32 18.29) rotate(-20.65)"/><path class="cls-4" d="M62.66,138.47s-4.06,2-7.13,1.49-6.64-.24-7.73.27-7.87,1.52-9.56-.15-5.34-.54-4.81-1.83c.27-.65,1.64-.9,4.19-2.14,1.73-.83,5.28-.8,8.34-1.45,3.66-.77,6-1,8.73.46C58.78,137.31,65.18,136.6,62.66,138.47Z"/><path class="cls-4" d="M39.11,74.54a.47.47,0,0,1-.93,0c0-.26.38-.67.46-1.2C38.74,73.87,39.11,74.28,39.11,74.54Z"/></symbol><symbol id="dryp10" data-name="dryp10" viewBox="0 0 100 150"><rect class="cls-1" width="100" height="150"/><path class="cls-2" d="M50.63,19.34c0-.06-1.58-2.06-2.32-2.28a7.7,7.7,0,0,0-2.86-.14c-1.68.17-2.47.33-2.62.35-1.16-4-1.5-5.49-2.34-7.16-1.39-2.8-3.78-2.15-6-.94-.74.39-.51,2.4.81,2.24.71-.42,2-1.13,2.68-.67,1,.75,2.6,7.34,2.6,7.34A23.75,23.75,0,0,0,38,19.6a6.49,6.49,0,0,0-2.12,2.08,12.11,12.11,0,0,0-.4,3.12.65.65,0,0,0,0,.11c.05.23.21.86.43,1,1.14.77,4.26-.26,7.77-1.48,3.66-1.28,6.84-2.81,7.26-4.2C51,20,50.69,19.5,50.63,19.34Z"/><ellipse class="cls-3" cx="43.35" cy="22.87" rx="8.09" ry="1.88" transform="matrix(0.94, -0.35, 0.35, 0.94, -5.28, 16.75)"/><ellipse class="cls-2" cx="41" cy="23.66" rx="0.65" ry="0.15" transform="translate(-5.71 15.98) rotate(-20.65)"/><ellipse class="cls-2" cx="40.57" cy="24.7" rx="0.65" ry="0.15" transform="translate(-6.1 15.89) rotate(-20.65)"/><ellipse class="cls-2" cx="38.78" cy="24.72" rx="0.65" ry="0.15" transform="translate(-6.22 15.26) rotate(-20.65)"/><ellipse class="cls-2" cx="43.14" cy="22.32" rx="0.65" ry="0.15" transform="matrix(0.94, -0.35, 0.35, 0.94, -5.1, 16.65)"/><ellipse class="cls-2" cx="44.85" cy="22.42" rx="0.65" ry="0.15" transform="matrix(0.94, -0.35, 0.35, 0.94, -5.02, 17.26)"/><ellipse class="cls-2" cx="48.06" cy="21" rx="0.65" ry="0.15" transform="translate(-4.32 18.29) rotate(-20.65)"/><path class="cls-4" d="M62.66,138.47s-4.06,2-7.13,1.49-6.64-.24-7.73.27-7.87,1.52-9.56-.15-5.34-.54-4.81-1.83c.27-.65,1.64-.9,4.19-2.14,1.73-.83,5.28-.8,8.34-1.45,3.66-.77,6-1,8.73.46C58.78,137.31,65.18,136.6,62.66,138.47Z"/><path class="cls-4" d="M39.11,107.3a.47.47,0,1,1-.93,0c0-.26.38-.67.46-1.2C38.74,106.63,39.11,107,39.11,107.3Z"/></symbol><symbol id="dryp11" data-name="dryp11" viewBox="0 0 100 150"><rect class="cls-1" width="100" height="150"/><path class="cls-2" d="M50.63,19.34c0-.06-1.58-2.06-2.32-2.28a7.7,7.7,0,0,0-2.86-.14c-1.68.17-2.47.33-2.62.35-1.16-4-1.5-5.49-2.34-7.16-1.39-2.8-3.78-2.15-6-.94-.74.39-.51,2.4.81,2.24.71-.42,2-1.13,2.68-.67,1,.75,2.6,7.34,2.6,7.34A23.75,23.75,0,0,0,38,19.6a6.49,6.49,0,0,0-2.12,2.08,12.11,12.11,0,0,0-.4,3.12.65.65,0,0,0,0,.11c.05.23.21.86.43,1,1.14.77,4.26-.26,7.77-1.48,3.66-1.28,6.84-2.81,7.26-4.2C51,20,50.69,19.5,50.63,19.34Z"/><ellipse class="cls-3" cx="43.35" cy="22.87" rx="8.09" ry="1.88" transform="matrix(0.94, -0.35, 0.35, 0.94, -5.28, 16.75)"/><ellipse class="cls-2" cx="41" cy="23.66" rx="0.65" ry="0.15" transform="translate(-5.71 15.98) rotate(-20.65)"/><ellipse class="cls-2" cx="40.57" cy="24.7" rx="0.65" ry="0.15" transform="translate(-6.1 15.89) rotate(-20.65)"/><ellipse class="cls-2" cx="38.78" cy="24.72" rx="0.65" ry="0.15" transform="translate(-6.22 15.26) rotate(-20.65)"/><ellipse class="cls-2" cx="43.14" cy="22.32" rx="0.65" ry="0.15" transform="matrix(0.94, -0.35, 0.35, 0.94, -5.1, 16.65)"/><ellipse class="cls-2" cx="44.85" cy="22.42" rx="0.65" ry="0.15" transform="matrix(0.94, -0.35, 0.35, 0.94, -5.02, 17.26)"/><ellipse class="cls-2" cx="48.06" cy="21" rx="0.65" ry="0.15" transform="translate(-4.32 18.29) rotate(-20.65)"/><path class="cls-4" d="M62.66,138.47s-4.06,2-7.13,1.49-6.64-.24-7.73.27-7.87,1.52-9.56-.15-5.34-.54-4.81-1.83c.27-.65,1.64-.9,4.19-2.14,1.73-.83,5.28-.8,8.34-1.45,3.66-.77,6-1,8.73.46C58.78,137.31,65.18,136.6,62.66,138.47Z"/><path class="cls-4" d="M39.11,133.59a.47.47,0,0,1-.93,0c0-.26.38-.67.46-1.2C38.74,132.92,39.11,133.33,39.11,133.59Z"/></symbol><symbol id="dryp12" data-name="dryp12" viewBox="0 0 100 150"><rect class="cls-1" width="100" height="150"/><path class="cls-2" d="M50.63,19.34c0-.06-1.58-2.06-2.32-2.28a7.7,7.7,0,0,0-2.86-.14c-1.68.17-2.47.33-2.62.35-1.16-4-1.5-5.49-2.34-7.16-1.39-2.8-3.78-2.15-6-.94-.74.39-.51,2.4.81,2.24.71-.42,2-1.13,2.68-.67,1,.75,2.6,7.34,2.6,7.34A23.75,23.75,0,0,0,38,19.6a6.49,6.49,0,0,0-2.12,2.08,12.11,12.11,0,0,0-.4,3.12.65.65,0,0,0,0,.11c.05.23.21.86.43,1,1.14.77,4.26-.26,7.77-1.48,3.66-1.28,6.84-2.81,7.26-4.2C51,20,50.69,19.5,50.63,19.34Z"/><ellipse class="cls-3" cx="43.35" cy="22.87" rx="8.09" ry="1.88" transform="matrix(0.94, -0.35, 0.35, 0.94, -5.28, 16.75)"/><ellipse class="cls-2" cx="41" cy="23.66" rx="0.65" ry="0.15" transform="translate(-5.71 15.98) rotate(-20.65)"/><ellipse class="cls-2" cx="40.57" cy="24.7" rx="0.65" ry="0.15" transform="translate(-6.1 15.89) rotate(-20.65)"/><ellipse class="cls-2" cx="38.78" cy="24.72" rx="0.65" ry="0.15" transform="translate(-6.22 15.26) rotate(-20.65)"/><ellipse class="cls-2" cx="43.14" cy="22.32" rx="0.65" ry="0.15" transform="matrix(0.94, -0.35, 0.35, 0.94, -5.1, 16.65)"/><ellipse class="cls-2" cx="44.85" cy="22.42" rx="0.65" ry="0.15" transform="matrix(0.94, -0.35, 0.35, 0.94, -5.02, 17.26)"/><ellipse class="cls-2" cx="48.06" cy="21" rx="0.65" ry="0.15" transform="translate(-4.32 18.29) rotate(-20.65)"/><path class="cls-4" d="M62.66,138.47s-4.06,2-7.13,1.49-6.64-.24-7.73.27-7.87,1.52-9.56-.15-5.34-.54-4.81-1.83c.27-.65,1.64-.9,4.19-2.14,1.73-.83,5.28-.8,8.34-1.45,3.66-.77,6-1,8.73.46C58.78,137.31,65.18,136.6,62.66,138.47Z"/><path class="cls-4" d="M36.38,134.9a.28.28,0,0,1-.12-.42.31.31,0,0,1,.49-.09c.21.18.2.69.27,1A2.11,2.11,0,0,0,36.38,134.9Z"/><path class="cls-4" d="M41.07,135.43a.27.27,0,0,0,.12-.42.3.3,0,0,0-.49-.09c-.21.17-.2.69-.26,1A1.82,1.82,0,0,1,41.07,135.43Z"/><path class="cls-4" d="M42.43,134.37a.27.27,0,0,0,.12-.41.3.3,0,0,0-.49-.1c-.21.18-.2.69-.27,1A2.11,2.11,0,0,1,42.43,134.37Z"/></symbol><symbol id="dryp13" data-name="dryp13" viewBox="0 0 100 150"><rect class="cls-1" width="100" height="150"/><path class="cls-2" d="M50.63,19.34c0-.06-1.58-2.06-2.32-2.28a7.7,7.7,0,0,0-2.86-.14c-1.68.17-2.47.33-2.62.35-1.16-4-1.5-5.49-2.34-7.16-1.39-2.8-3.78-2.15-6-.94-.74.39-.51,2.4.81,2.24.71-.42,2-1.13,2.68-.67,1,.75,2.6,7.34,2.6,7.34A23.75,23.75,0,0,0,38,19.6a6.49,6.49,0,0,0-2.12,2.08,12.11,12.11,0,0,0-.4,3.12.65.65,0,0,0,0,.11c.05.23.21.86.43,1,1.14.77,4.26-.26,7.77-1.48,3.66-1.28,6.84-2.81,7.26-4.2C51,20,50.69,19.5,50.63,19.34Z"/><ellipse class="cls-3" cx="43.35" cy="22.87" rx="8.09" ry="1.88" transform="matrix(0.94, -0.35, 0.35, 0.94, -5.28, 16.75)"/><ellipse class="cls-2" cx="41" cy="23.66" rx="0.65" ry="0.15" transform="translate(-5.71 15.98) rotate(-20.65)"/><ellipse class="cls-2" cx="40.57" cy="24.7" rx="0.65" ry="0.15" transform="translate(-6.1 15.89) rotate(-20.65)"/><ellipse class="cls-2" cx="38.78" cy="24.72" rx="0.65" ry="0.15" transform="translate(-6.22 15.26) rotate(-20.65)"/><ellipse class="cls-2" cx="43.14" cy="22.32" rx="0.65" ry="0.15" transform="matrix(0.94, -0.35, 0.35, 0.94, -5.1, 16.65)"/><ellipse class="cls-2" cx="44.85" cy="22.42" rx="0.65" ry="0.15" transform="matrix(0.94, -0.35, 0.35, 0.94, -5.02, 17.26)"/><ellipse class="cls-2" cx="48.06" cy="21" rx="0.65" ry="0.15" transform="translate(-4.32 18.29) rotate(-20.65)"/><path class="cls-4" d="M62.66,138.47s-4.06,2-7.13,1.49-6.64-.24-7.73.27-7.87,1.52-9.56-.15-5.34-.54-4.81-1.83c.27-.65,1.64-.9,4.19-2.14,1.73-.83,5.28-.8,8.34-1.45,3.66-.77,6-1,8.73.46C58.78,137.31,65.18,136.6,62.66,138.47Z"/><path class="cls-4" d="M35.43,135.23a.27.27,0,0,1-.43,0,.3.3,0,0,1,.11-.49c.24-.12.71.08,1,.12A2.06,2.06,0,0,0,35.43,135.23Z"/><path class="cls-4" d="M42.19,135a.28.28,0,0,0,.34-.27.31.31,0,0,0-.35-.36c-.27,0-.56.44-.78.63A2.1,2.1,0,0,1,42.19,135Z"/><path class="cls-4" d="M43.91,134.16a.28.28,0,0,0,.36-.25.3.3,0,0,0-.32-.38c-.27,0-.59.4-.82.58A1.83,1.83,0,0,1,43.91,134.16Z"/></symbol><symbol id="dryp14" data-name="dryp14" viewBox="0 0 100 150"><rect class="cls-1" width="100" height="150"/><path class="cls-2" d="M50.63,19.34c0-.06-1.58-2.06-2.32-2.28a7.7,7.7,0,0,0-2.86-.14c-1.68.17-2.47.33-2.62.35-1.16-4-1.5-5.49-2.34-7.16-1.39-2.8-3.78-2.15-6-.94-.74.39-.51,2.4.81,2.24.71-.42,2-1.13,2.68-.67,1,.75,2.6,7.34,2.6,7.34A23.75,23.75,0,0,0,38,19.6a6.49,6.49,0,0,0-2.12,2.08,12.11,12.11,0,0,0-.4,3.12.65.65,0,0,0,0,.11c.05.23.21.86.43,1,1.14.77,4.26-.26,7.77-1.48,3.66-1.28,6.84-2.81,7.26-4.2C51,20,50.69,19.5,50.63,19.34Z"/><ellipse class="cls-3" cx="43.35" cy="22.87" rx="8.09" ry="1.88" transform="matrix(0.94, -0.35, 0.35, 0.94, -5.28, 16.75)"/><ellipse class="cls-2" cx="41" cy="23.66" rx="0.65" ry="0.15" transform="translate(-5.71 15.98) rotate(-20.65)"/><ellipse class="cls-2" cx="40.57" cy="24.7" rx="0.65" ry="0.15" transform="translate(-6.1 15.89) rotate(-20.65)"/><ellipse class="cls-2" cx="38.78" cy="24.72" rx="0.65" ry="0.15" transform="translate(-6.22 15.26) rotate(-20.65)"/><ellipse class="cls-2" cx="43.14" cy="22.32" rx="0.65" ry="0.15" transform="matrix(0.94, -0.35, 0.35, 0.94, -5.1, 16.65)"/><ellipse class="cls-2" cx="44.85" cy="22.42" rx="0.65" ry="0.15" transform="matrix(0.94, -0.35, 0.35, 0.94, -5.02, 17.26)"/><ellipse class="cls-2" cx="48.06" cy="21" rx="0.65" ry="0.15" transform="translate(-4.32 18.29) rotate(-20.65)"/><path class="cls-4" d="M62.66,138.47s-4.06,2-7.13,1.49-6.64-.24-7.73.27-7.87,1.52-9.56-.15-5.34-.54-4.81-1.83c.27-.65,1.64-.9,4.19-2.14,1.73-.83,5.28-.8,8.34-1.45,3.66-.77,6-1,8.73.46C58.78,137.31,65.18,136.6,62.66,138.47Z"/><path class="cls-4" d="M35,136.25a.27.27,0,0,1-.36.24.31.31,0,0,1-.24-.44c.1-.25.6-.39.84-.54A2.14,2.14,0,0,0,35,136.25Z"/><path class="cls-4" d="M43.19,135.24a.29.29,0,0,0,.43.11.31.31,0,0,0,.07-.5c-.18-.2-.69-.18-1-.24A1.86,1.86,0,0,1,43.19,135.24Z"/><path class="cls-4" d="M45.16,134.74a.29.29,0,0,0,.41.17.31.31,0,0,0,.14-.48c-.16-.23-.67-.27-.94-.37A2,2,0,0,1,45.16,134.74Z"/></symbol><symbol id="dryp15" data-name="dryp15" viewBox="0 0 100 150"><rect class="cls-1" width="100" height="150"/><path class="cls-2" d="M50.63,19.34c0-.06-1.58-2.06-2.32-2.28a7.7,7.7,0,0,0-2.86-.14c-1.68.17-2.47.33-2.62.35-1.16-4-1.5-5.49-2.34-7.16-1.39-2.8-3.78-2.15-6-.94-.74.39-.51,2.4.81,2.24.71-.42,2-1.13,2.68-.67,1,.75,2.6,7.34,2.6,7.34A23.75,23.75,0,0,0,38,19.6a6.49,6.49,0,0,0-2.12,2.08,12.11,12.11,0,0,0-.4,3.12.65.65,0,0,0,0,.11c.05.23.21.86.43,1,1.14.77,4.26-.26,7.77-1.48,3.66-1.28,6.84-2.81,7.26-4.2C51,20,50.69,19.5,50.63,19.34Z"/><ellipse class="cls-3" cx="43.35" cy="22.87" rx="8.09" ry="1.88" transform="matrix(0.94, -0.35, 0.35, 0.94, -5.28, 16.75)"/><ellipse class="cls-2" cx="41" cy="23.66" rx="0.65" ry="0.15" transform="translate(-5.71 15.98) rotate(-20.65)"/><ellipse class="cls-2" cx="40.57" cy="24.7" rx="0.65" ry="0.15" transform="translate(-6.1 15.89) rotate(-20.65)"/><ellipse class="cls-2" cx="38.78" cy="24.72" rx="0.65" ry="0.15" transform="translate(-6.22 15.26) rotate(-20.65)"/><ellipse class="cls-2" cx="43.14" cy="22.32" rx="0.65" ry="0.15" transform="matrix(0.94, -0.35, 0.35, 0.94, -5.1, 16.65)"/><ellipse class="cls-2" cx="44.85" cy="22.42" rx="0.65" ry="0.15" transform="matrix(0.94, -0.35, 0.35, 0.94, -5.02, 17.26)"/><ellipse class="cls-2" cx="48.06" cy="21" rx="0.65" ry="0.15" transform="translate(-4.32 18.29) rotate(-20.65)"/><path class="cls-4" d="M62.66,138.47s-4.06,2-7.13,1.49-6.64-.24-7.73.27-7.87,1.52-9.56-.15-5.34-.54-4.81-1.83c.27-.65,1.64-.9,4.19-2.14,1.73-.83,5.28-.8,8.34-1.45,3.66-.77,6-1,8.73.46C58.78,137.31,65.18,136.6,62.66,138.47Z"/><path class="cls-4" d="M34.68,137.58a.27.27,0,0,1-.22.37.3.3,0,0,1-.4-.3c0-.27.37-.61.53-.85A2,2,0,0,0,34.68,137.58Z"/></symbol></defs><title>Asset 18</title><g id="Layer_2" data-name="Layer 2"><g id="Layer_3" data-name="Layer 3"><use width="100" height="150" xlink:href="#dryp1"/><use width="100" height="150" transform="translate(100)" xlink:href="#dryp2"/><use width="100" height="150" transform="translate(200)" xlink:href="#dryp3"/><use width="100" height="150" transform="translate(300)" xlink:href="#dryp4"/><use width="100" height="150" transform="translate(400)" xlink:href="#dryp5"/><use width="100" height="150" transform="translate(500)" xlink:href="#dryp6"/><use width="100" height="150" transform="translate(600)" xlink:href="#dryp7"/><use width="100" height="150" transform="translate(700)" xlink:href="#dryp8"/><use width="100" height="150" transform="translate(800)" xlink:href="#dryp9"/><use width="100" height="150" transform="translate(900)" xlink:href="#dryp10"/><use width="100" height="150" transform="translate(1000)" xlink:href="#dryp11"/><use width="100" height="150" transform="translate(1100)" xlink:href="#dryp12"/><use width="100" height="150" transform="translate(1200)" xlink:href="#dryp13"/><use width="100" height="150" transform="translate(1300)" xlink:href="#dryp14"/><use width="100" height="150" transform="translate(1400)" xlink:href="#dryp15"/><use width="100" height="150" transform="translate(1500)" xlink:href="#dryp1"/></g></g></svg>
