<?xml version="1.0" encoding="utf-8"?>
<!-- Generator: Adobe Illustrator 22.0.0, SVG Export Plug-In . SVG Version: 6.00 Build 0)  -->
<svg version="1.1" xmlns="http://www.w3.org/2000/svg" xmlns:xlink="http://www.w3.org/1999/xlink" x="0px" y="0px"
	 viewBox="0 0 400 600" style="enable-background:new 0 0 400 600;" xml:space="preserve">
<style type="text/css">
	.st0{fill:#5C879D;}
	.st1{fill:#FFFFFF;}
	.st2{fill:#CCCCCC;}
	.st3{fill:#3F5D66;}
	.st4{fill:none;}
	.st5{fill:#31494D;}
	.st6{fill:none;stroke:#31494D;stroke-width:0.25;stroke-miterlimit:10;}
	.st7{stroke:#000000;stroke-width:0.25;stroke-miterlimit:10;}
	.st8{stroke:#000000;stroke-width:0.25;stroke-linecap:round;stroke-linejoin:round;stroke-miterlimit:10;}
	.st9{fill:none;stroke:#000000;stroke-width:0.25;stroke-linecap:round;stroke-linejoin:round;stroke-miterlimit:10;}
	.st10{fill:#4A727E;}
	.st11{display:none;}
	.st12{display:inline;}
	.st13{fill:#ECB669;}
	.st14{fill:#E79A3D;}
	.st15{fill:#E9A542;}
	.st16{fill:#D68427;}
	.st17{fill:#E7AD47;}
	.st18{fill:none;stroke:#AB6724;stroke-width:0.25;stroke-miterlimit:10;}
	.st19{fill:none;stroke:#000000;stroke-width:0.25;stroke-miterlimit:10;}
	.st20{fill:#D3954D;}
	.st21{fill:#EFC585;}
	.st22{fill:#DBDBDB;}
	.st23{fill:#D78B37;}
	.st24{display:inline;fill:none;}
	.st25{display:inline;fill:#E9A542;}
	.st26{display:inline;fill:#D68427;}
	.st27{fill:#AB6724;}
</style>
<symbol  id="content_1_" viewBox="-50 -75 100 150">
	<path class="st0" d="M7.7-59.1c0-0.2,0-0.6,0.1-0.7c0.3-0.3,7.7-2.1,8.3-2c0.8,0.1-0.5-2.3-3-2.4c-0.6,0-8.1,1.9-8.2,2.5
		C4.6-61,4.9-59.8,5-59.8C5.2-58.8,7.6-58,7.7-59.1z"/>
	<path class="st0" d="M5-56.9c-1.3,9.1-3.5,21.4-2.2,28c0.6,2.8,3.4,2.7,4.3,2.5c0.2,0,0.8-0.8,0.8-1.8C7.6-30.8,7.7-31.9,7.4-39
		c-0.2-5.8,0.3-19.9,0.1-20.2c-0.4-1-2.2-1.5-2.7-1C4.8-60,5.2-58.4,5-56.9z"/>
	<path class="st0" d="M-8.5-58.6c-0.2,6.2-1.8,24.5,0.5,31.2c0.5,1.6,2.9,1.7,3.8,1.5c0.9-0.2,1.4-1,1.1-2.4
		c-0.2-1.6-0.9-6-1.4-11.1c-0.5-5.4-0.9-12.3-1.3-16.2c-0.2-1.8,0-3.7,0-3.9c0-1.1-2.7-1.7-2.8-0.8C-8.6-60.2-8.5-59-8.5-58.6z"/>
	<path class="st0" d="M-8.6-60.2c0,0.4,2.8,1.1,2.8,0.7c0-0.1,0-0.4,0-0.4c0.2-0.6,7.5-1.5,8-1.6c0.7-0.2-1.6-2.7-3.8-2.6
		c-1.3,0-5.8,1.1-7,1.7c-0.4,0.2-0.2,0.7-0.2,1.1C-8.7-61.2-8.6-60.5-8.6-60.2z"/>
	<path class="st0" d="M-8.8,1.7c0,0.2,0.6,6.1,0.9,7.4c0.9,3.6,13.3,3.7,13.6,0C5.9,7.6,6.5,1,6.4,0.7c-0.3-1.4-6.6-4-6.6-4
		c-1.1-0.2-1.3-0.2-1.9,0.2C-3.8-1.9-8.5-1.1-8.8,1.7z"/>
	<path class="st0" d="M-8.7-4.8c0.1,1.3,0.2,7.5,0.5,7.7c1.9,1.1,6.3-3.3,6.6-5C-1.5-2.7-2-15.1-2.4-19.8c-0.4-4.8-0.8-8.2-1-8.6
		c-0.4-0.9-1.2-1.6-2.1-1.4c-0.9,0.3-2.5,1.9-2.6,2.6C-8.1-27.2-8.8-7.6-8.7-4.8z"/>
	<path class="st0" d="M7.1-6.6c0.7-9.9,1.1-20,0.9-22.5c0-0.5-0.4-2-0.9-2.2c-0.9-0.3-2.9,0.2-3.8,1.9C3.1-29-0.3-5.4-0.3-3.9
		c0,3,6,5.7,6.9,4.3C6.7,0.1,6.9-4,7.1-6.6z"/>
	<path class="st0" d="M-11.3,37.6c-0.1,0.6,6.2,4.8,6.7,5.9c0.3,0.6,0.5,7.4,0.4,9.3c1.2-1.5,4.3-4.3,6.1-3.3
		c-0.1-1.2,0.3-5.5,0.6-6.3c0.3-0.8,5.1-4.1,5-4.8c-0.6-4.6-1.7-7.7-1.7-11.9C6,23.2,6,17.2,6.2,16.1c0.4-2-0.5-6.2-0.7-7.5
		s-9-3.7-13.4,0.5c0,0,0.2,4,0,9.2c-0.1,2.9-0.1,7.6-0.2,10.2C-7.9,30.5-11,35.6-11.3,37.6z"/>
	<path class="st0" d="M-11.2,37.4C-11.2,37.4-11.2,37.4-11.2,37.4c3.3-2.1,2.9-5.6,2.8-6c-0.3-2.4-1.4-10-2.1-14.8
		c-0.6-2.1-4-0.9-3.9,0.8C-13.5,24.3-11.8,36.9-11.2,37.4z"/>
	<g>
		<path class="st1" d="M6.3,6.7c0,0-7.3-1.8-11.5-1.2c-1.1,0.1-2,0.5-2.5,1c0,0-1,1.2-1.6-8.6s0.1-17.6,0.1-17.6S2.7-23.5,9-20.5
			C9.1-20.4,8.3-5.5,8-1.6S6.3,6.7,6.3,6.7z"/>
		<path class="st2" d="M2.1,5.3C2.5,3,3-20.8,3-20.8l-0.8,0.2l0.2,18L1.9,5.8L2.1,5.3z"/>
	</g>
	<path class="st3" d="M-7.1,30.5c0-0.2,0.2-0.7,0.6-0.7c0.3,0,0.6,0.5,0.6,0.7c0,0.2-0.2,0.3-0.6,0.3C-6.9,30.8-7.1,30.6-7.1,30.5z"
		/>
	<path class="st3" d="M3.3,30.6c0-0.2,0.2-0.6,0.5-0.6s0.5,0.4,0.5,0.6c0,0.2-0.2,0.3-0.5,0.3S3.3,30.8,3.3,30.6z"/>
	<g>
		<path class="st0" d="M-10.5,16.2c-0.6,2.8-3.9,2.4-4.2,0.4c0.1-3,1-8.7,1.5-11.3C-12.5,2.3-12.9-2.9-13-5c0-0.1,0.2-0.5,0.2-0.7
			c0.7,1,2,1.9,2.7,0.9c0.3-0.5,0.4-0.9,0.4-1.4c0.3,0.2,0.3,0.2,0.6,0.4c0,0.2,0.3,0.1,0.3,0.6c0,0.4-0.8,1.2-1,2.3
			c0,0-0.3,9.5-0.5,10.6C-10.6,8.5-10.6,13-10.5,16.2z"/>
		<path class="st3" d="M-10.3-7.6c-0.5-1.4-0.1-2.4,0.8-3.1c-0.1,0.1-0.2,0.2-0.2,0.2s1.9-0.9,2.6-0.7c0.2,0.1,0.3,0.5,0.1,0.6
			c-1.2,0.7-2,1.1-1.9,1.2c0,0,1-0.6,1.4-0.5c0.3,0.1,0.3,0.2,0.3,0.3c0.2,0.4-1.5,1-2,2c0,0,0.2,1.7,0.1,2.6
			c-0.3-0.2-0.5-0.9-0.8-1.1C-9.9-6.6-10.1-7.1-10.3-7.6z"/>
		<path class="st0" d="M-7.9-11.6c-0.7,0.3-1.3,0.8-1.6,1.1c-0.9,0.7-1.2,2-0.7,3.4c0.4,0.8,0.7,1.6,0,2.6c-0.7,1-2.2,0.3-2.9-0.7
			c0.1-2.2,1.8-6.2,2.7-6.2c0,0,2-0.9,2.4-0.8C-7.7-12.1-7.4-11.8-7.9-11.6z"/>
		<path class="st0" d="M-9.6-8.4c0.4-0.6,0.3-1.5,0.8-1.6c0.5-0.2,0.7,1.1,0.3,2.1c-0.4,1-0.1,2-0.1,2S-8.7-5.5-8.9-5
			c-1.1,2.5-4,0.5-1.5-2.8C-10.4-7.8-10-7.8-9.6-8.4z"/>
	</g>
	<rect x="-50" y="-75" class="st4" width="100" height="150"/>
	<path class="st5" d="M-0.6,62.5c0,0-0.5,0.2-1.9,0.2c-1.4-0.1-3.1-2-2.7-5.3c0,0-0.2,0.2-0.1-1c0-0.3,0.5-2.1,0.5-3.4
		c0,0,1.2-3,2.9-1.7c1.6,1.3,3.9-0.8,3.9-0.8s1-0.1,1,0c0,0,0.3-0.2,0.4,0.7c0.1,0.6,0.8,3.9,1.2,6.7c0.2,1.2,0.1,1.9,0.1,1.9
		s0,0.5-0.1,0.9c-0.1,0.4-1.6,2-2.5,2.3c-0.5,0.2-1,0.3-1.6,0.1C0.1,62.9-0.6,62.5-0.6,62.5z"/>
	<path class="st3" d="M-3.8,50.9c-0.1,1.4,6.1,6.2,5.6-1.6c0,0,0.1,0.9,0-0.8C1.3,46.4-3.5,47.7-3.8,50.9z"/>
	<path class="st0" d="M4.4,57c0,0-0.5-4.6-1-6.2c-0.2-0.5-0.9-2.3-2-2.7c-1.5-0.5-4.6,0.5-5.4,3.8c-0.4,1.5-0.4,4.7-0.2,5.5
		c0,0.1,1.6,3.8,4.6,3.5C3.7,60.5,4.3,60.8,4.4,57z"/>
	<path class="st3" d="M-6.7,53.6c-0.3,0.5-0.8,2.9,0,4c0.8,1.1,2.1,0.1,2.3-0.3c0.2-0.3,0.1-4.6,0.1-4.6S-6.4,53.1-6.7,53.6z"/>
	<path class="st3" d="M5.8,56.1c0.2-1,0-2.7-0.6-3.4s-1.4-0.2-1.4-0.2l0.6,4.1C4.4,56.6,5.6,57.1,5.8,56.1z"/>
	<path class="st6" d="M-5.9,56.1c0,0,0,0.9,0.9,0.8s0.5-1.6,0.5-1.6s-0.9,0.3-0.9-0.4s0.7-0.7,0.7-0.7"/>
	<path class="st6" d="M5.4,55.3c0,0,0.1,0.5-0.4,0.5c-0.8,0-0.8-1.5-0.8-1.5s0.8,0.2,0.6-0.5c-0.1-0.4-0.6-0.2-0.6-0.2"/>
	<path class="st7" d="M3.1,55.9c0-0.1,0-0.1,0-0.2c0-0.3-0.2-0.5-0.5-0.5c-0.3,0-0.5,0.2-0.4,0.5c0,0.1,0,0.1,0,0.2
		C2.5,55.9,2.8,55.9,3.1,55.9z"/>
	<path class="st8" d="M-2.6,53.6c0.2-0.6,0.4-1.1,1.2-0.9C-2.3,52.4-2.7,53.9-2.6,53.6z"/>
	<path class="st9" d="M-0.4,57.3c0,0-0.5,0.6-1.5,0.2"/>
	<path class="st9" d="M3.4,57.2c0,0-0.6,0.6-1.5,0"/>
	<g>

			<ellipse transform="matrix(1.549780e-02 -0.9999 0.9999 1.549780e-02 -53.2399 57.2966)" class="st1" cx="2.5" cy="55.7" rx="0.1" ry="0.1"/>
	</g>
	<path class="st7" d="M-0.4,56c0-0.1,0-0.1,0-0.2c0-0.3-0.2-0.5-0.5-0.5c-0.3,0-0.5,0.2-0.4,0.5c0,0.1,0,0.1,0,0.2
		C-1,56-0.7,56-0.4,56z"/>
	<g>

			<ellipse transform="matrix(4.690317e-02 -0.9989 0.9989 4.690317e-02 -56.7272 52.2014)" class="st1" cx="-1" cy="55.8" rx="0.1" ry="0.1"/>
	</g>
	<path class="st5" d="M-4.3,57.7c0,0-0.1-0.2-0.1-0.3l0.1-1.1c0,0,1.9,4.9,3.3,4.6c1.4-0.3,2-0.8,2-0.8s1.7,1,2,0.8
		c0,0-3.5,1.6-5.2,0.5C-3.9,60.4-4.3,57.7-4.3,57.7z"/>
	<path class="st3" d="M2,53.2c0,0,0.7,0.9-0.4,0.9c-1.1,0.1-1.7,0.1-1.7-0.3c0-0.2,0.1-0.3,0.2-0.5C0.2,53.1,2,53.2,2,53.2z"/>
	<path class="st5" d="M1,60c0,0-0.1,0.1-0.4,0.1s-0.6-0.3-0.8-0.6c0-0.1-0.1-0.2-0.1-0.2s0.1,0.1,0.2,0.3C0.5,60.3,1,60,1,60z"/>
	<path class="st10" d="M1,60c0,0-0.2,0.3-0.4,0.3s-0.8-0.5-0.8-0.7c0-0.2-0.1-0.5-0.1-0.5s0.2,0.3,0.3,0.4c0.1,0.2,0.3,0.4,0.6,0.5
		c0,0,0.1,0.1,0.3,0L1,60z"/>
	<path class="st5" d="M1.6,60.3c0.2,0,0.4-0.1,0.7-0.6c0,0-0.4,0.5-0.7,0.5S1,60,1,60S1.3,60.3,1.6,60.3z"/>
	<path class="st10" d="M1.6,60.6c0.3,0,1-0.6,0.9-1.2c0,0-0.6,1-0.9,0.9S1,60.1,1,60.1S1.4,60.6,1.6,60.6z"/>
	<path class="st0" d="M7.7,38.5c0.6-0.3,1.7-17,2.4-18.9c0.1-0.3,0.2-0.8,0.3-1.4c0.2-1.6-3.3-2.2-4-1.2c-0.3,1.6-0.7,3.2-0.9,3.6
		c-0.4,1-1.8,11.2-1.1,12.5C4.9,34.1,6.5,39.2,7.7,38.5z"/>
	<g>
		<path class="st0" d="M6.5,16.1c-0.7,2.8,2.5,3.8,3.6,2.2c1.2-2.7,2.8-8.3,3.5-10.8c0.8-3,3.3-7.5,4.4-9.4C18-2,18-2.4,18.1-2.6
			C17-2,15.4-1.7,15.2-2.9c-0.1-0.6,0-1,0.3-1.4c-0.4,0-0.4,0-0.7,0c-0.1,0.2-0.3,0-0.5,0.4c-0.2,0.4,0.2,1.5-0.1,2.5
			c0,0-3.8,8.7-4.1,9.8C9.9,9.2,8,13.2,6.5,16.1z"/>
		<path class="st3" d="M16.6-5.4c1.1-1,1.1-2.1,0.6-3.1c0.1,0.2,0.1,0.3,0.1,0.3s-1.3-1.7-2.1-1.8c-0.2,0-0.4,0.3-0.3,0.5
			c0.8,1.1,1.3,1.9,1.2,2c0,0-0.7-0.9-1.1-1.1c-0.3-0.1-0.3,0.1-0.4,0.1c-0.3,0.3,0.9,1.6,1,2.6c0,0-0.9,1.4-1.2,2.3
			c0.4,0,0.8-0.6,1.2-0.6C15.8-4.8,16.2-5.1,16.6-5.4z"/>
		<path class="st0" d="M16.1-10.1c0.5,0.6,0.8,1.3,0.9,1.7c0.5,1,0.3,2.3-0.8,3.3c-0.7,0.6-1.3,1.1-1.1,2.3C15.3-1.6,17-1.5,18-2.1
			c0.8-2.1,1-6.4,0.3-6.7c0,0-1.4-1.7-1.9-1.8C16.2-10.7,15.8-10.5,16.1-10.1z"/>
		<path class="st0" d="M16.3-6.5c-0.1-0.8,0.4-1.4,0-1.8c-0.4-0.4-1.1,0.7-1.2,1.8c-0.1,1-0.8,1.9-0.8,1.9s-0.1,0.4-0.1,1
			c-0.1,2.7,3.4,2.2,2.6-1.9C16.8-5.6,16.4-5.7,16.3-6.5z"/>
	</g>
</symbol>
<symbol  id="laugh1_1_" viewBox="-50 -75 100 150">
	<path class="st0" d="M-23.1-58.2c0-0.2-0.1-0.6-0.1-0.7c0.3-0.4,7.2-3.4,7.8-3.4c0.8,0-0.9-2.2-3.4-1.8c-0.6,0.1-7.6,3.4-7.6,4
		c-0.2,0.6,0.4,1.7,0.4,1.7C-25.5-57.4-23-57.1-23.1-58.2z"/>
	<path class="st0" d="M-25.2-56.5c2.1,9,4.5,21.2,8.2,26.9c1.5,2.4,4.1,1.3,4.9,0.8c0.2-0.1,0.5-1,0.1-1.9c-1.2-2.4-1.5-3.4-4.3-10
		c-2.3-5.3-7-18.6-7.2-18.8c-0.7-0.8-2.6-0.6-2.8,0.1C-26.4-59.2-25.5-57.9-25.2-56.5z"/>
	<path class="st0" d="M-6.2-57.9c-0.4,6.1-2.4,24.5-0.3,31.2c0.4,1.6,2.8,1.8,3.7,1.6c0.9-0.2,1.4-0.9,1.2-2.3
		c-0.2-1.6-0.7-6-1.1-11.1c-0.4-5.4-0.6-12.3-0.8-16.2c-0.1-1.8,0.1-3.7,0.1-3.9c0-1.1-2.7-1.7-2.8-0.9C-6.3-59.5-6.2-58.3-6.2-57.9
		z"/>
	<path class="st0" d="M-6.3-59.1c0,0.4,2.8,1,2.8,0.6c0-0.1,0-0.4,0-0.4c0.1-0.6,7.5-1.7,7.9-1.9c0.6-0.2-1.7-2.6-3.8-2.5
		c-1.3,0.1-5.7,1.3-7,2c-0.4,0.2-0.2,0.7-0.1,1.1C-6.5-60.1-6.3-59.4-6.3-59.1z"/>
	<path class="st0" d="M-19.8,1.5c0,0.2,0.6,6.1,0.9,7.4c0.9,3.6,13.3,3.7,13.6,0c0.1-1.5,0.8-8.1,0.7-8.4c-0.3-1.4-6.6-4-6.6-4
		c-1.1-0.2-1.3-0.2-1.9,0.2C-14.8-2.1-19.5-1.3-19.8,1.5z"/>
	<path class="st0" d="M-19-7.3c-0.1,1.3-0.6,7.4-0.3,7.7c1.7,1.3,6.6-2.6,7-4.3c0.1-0.5,1-12.8,1-17.6c0.1-4.8,0-8.3-0.2-8.7
		c-0.3-0.9-1.1-1.7-2-1.6c-0.9,0.2-2.7,1.6-2.8,2.3C-16.2-29.5-18.9-10.1-19-7.3z"/>
	<path class="st0" d="M-4.2-4.2c1.5-9.8,2.7-19.9,2.7-22.4c0-0.5-0.3-2.1-0.7-2.2c-0.9-0.3-2.9-0.1-3.9,1.6
		c-0.2,0.3-5.5,23.6-5.6,25.1c-0.2,3,5.5,6.2,6.5,4.8C-5,2.4-4.6-1.6-4.2-4.2z"/>
	<path class="st0" d="M-6,38.4c0.5,0.5,16.6-4.1,18.6-4.1c0.3,0,0.8-0.1,1.4-0.2c1.6-0.4,1-3.9-0.3-4.2c-1.6,0.2-3.3,0.4-3.7,0.4
		c-1.1,0-11.2,2.1-12.1,3.2C-2.7,34.3-6.9,37.6-6,38.4z"/>
	<path class="st0" d="M-15,39.1C-15,39.1-15,39.1-15,39.1c1.3-3.7-1.3-6.2-1.5-6.5c-1.8-1.7-7.3-7-10.9-10.2
		c-1.8-1.3-3.7,1.8-2.5,3.1C-25,30.4-15.8,39.2-15,39.1z"/>
	<g>
		<path class="st0" d="M12.5,30c-2.9,0.1-3,3.4-1.2,4c3,0.4,8.7,0.5,11.3,0.5c3.1-0.1,8.1,1.2,10.2,1.7c0.1,0,0.5-0.1,0.7-0.1
			c-0.8-0.9-1.5-2.3-0.4-2.8c0.5-0.3,1-0.2,1.4-0.1c-0.1-0.3-0.1-0.3-0.2-0.7c-0.2,0-0.1-0.3-0.5-0.4c-0.4-0.1-1.4,0.6-2.5,0.6
			c0,0-9.4-1.4-10.5-1.4C20,31.4,15.7,30.6,12.5,30z"/>
		<path class="st3" d="M35.9,34c1.3,0.8,2.3,0.5,3.2-0.3c-0.1,0.1-0.2,0.2-0.2,0.2s1.3-1.7,1.2-2.5c0-0.2-0.4-0.4-0.5-0.2
			c-0.9,1-1.5,1.8-1.6,1.7c0,0,0.7-0.9,0.7-1.3c0-0.3-0.2-0.3-0.2-0.4c-0.4-0.2-1.3,1.3-2.3,1.6c0,0-1.6-0.5-2.5-0.6
			c0.1,0.4,0.8,0.6,0.9,1C35.1,33.4,35.5,33.7,35.9,34z"/>
		<path class="st0" d="M40.6,33.7c-0.8,0.4-1,0.3-1.5,0.4c-2.4,0.4-2.4,0.4-3.7-0.4c-0.7-0.5-1.4-1-2.5-0.5c-1.1,0.5-0.7,2.1,0.2,3
			c2.2,0.3,4.4-0.2,6.5-1.2c0,0,2.7-0.8,2.6-1.3C42.2,33.5,41.1,33.5,40.6,33.7z"/>
		<path class="st0" d="M36.9,33.4c0.7-0.3,1.5,0,1.7-0.5c0.2-0.5-1-0.8-2-0.7c-1,0.2-2-0.3-2-0.3s-0.4,0-0.9,0.2
			c-2.7,0.6-1.2,3.8,2.5,2C36.1,34.1,36.2,33.7,36.9,33.4z"/>
	</g>
	<path class="st1" d="M-5,7.7c0,0-7.3-1.8-11.5-1.2c-1.1,0.2-2,0.5-2.5,1c0,0-1,1.3-1.6-9c-0.6-10.2,0.2-18.4,0.2-18.4
		s11.9-3.8,18.1-0.8C-2-20.5-2.8-5-3.2-0.9S-5,7.7-5,7.7z"/>
	<path class="st2" d="M-9.1,6.3c0.4-2.4,0.9-27.2,0.9-27.2L-9-20.7l0.2,18.7l-0.5,8.7L-9.1,6.3z"/>
	<rect x="-50" y="-75" class="st4" width="100" height="150"/>
	<path class="st0" d="M-16.9,37.7c0,0.6,7,3.5,7.7,4.5c0.4,0.5,1.9,7.1,2.2,9.1c0.9-1.7,3.4-5,5.3-4.4c-0.3-1.1-0.7-5.5-0.6-6.3
		c0.1-0.8,4.3-5,4-5.6c-1.4-4.4-3.2-7.3-3.9-11.4c-0.5-3.3-1.6-9.2-1.6-10.3c0-2.1-1.6-6-2.1-7.3s-9.5-1.9-13,3.1c0,0,0.9,3.9,1.7,9
		c0.4,2.8,1.3,7.5,1.8,10.1C-14.9,30.1-16.9,35.6-16.9,37.7z"/>
	<path class="st3" d="M-14.2,29.9c0-0.2,0.1-0.7,0.4-0.8c0.3-0.1,0.6,0.4,0.7,0.6c0,0.2-0.2,0.3-0.5,0.4S-14.1,30.1-14.2,29.9z"/>
	<path class="st3" d="M-3.9,28.1c0-0.2,0.1-0.6,0.4-0.7c0.3-0.1,0.6,0.3,0.6,0.5c0,0.2-0.2,0.3-0.5,0.4S-3.9,28.2-3.9,28.1z"/>
	<path class="st5" d="M-1.8,60.1c0,0-0.5,0.3-1.8,0.5C-5,60.9-7,59.2-7.2,56c0,0-0.2,0.2-0.3-1c0-0.3,0.1-2.1-0.1-3.4
		c0,0,0.6-3.2,2.5-2.2c1.8,0.9,3.7-1.5,3.7-1.5s1-0.3,1-0.2c0,0,0.3-0.3,0.6,0.6c0.2,0.6,1.5,3.7,2.5,6.4C3,55.8,3,56.5,3,56.5
		s0.1,0.4,0.1,0.9c-0.1,0.4-1.2,2.3-2,2.7c-0.5,0.3-1,0.5-1.6,0.4C-1,60.4-1.8,60.1-1.8,60.1z"/>
	<path class="st3" d="M-7.1,49.4c0.1,1.4,7.2,4.9,5.2-2.6c0,0,0.2,0.9-0.1-0.8C-2.9,44-7.4,46.2-7.1,49.4z"/>
	<path class="st0" d="M2.2,53.8c0,0-1.4-4.4-2.2-5.9c-0.2-0.5-1.3-2.1-2.5-2.3c-1.6-0.2-4.4,1.4-4.6,4.7c-0.1,1.5,0.5,4.7,0.9,5.5
		c0,0.1,2.3,3.5,5.2,2.6C2.1,57.4,2.7,57.6,2.2,53.8z"/>
	<path class="st3" d="M-9.4,52.6c-0.1,0.6-0.3,3,0.8,3.9c1,1,2.1-0.3,2.2-0.7c0.1-0.4-0.8-4.5-0.8-4.5S-9.2,52-9.4,52.6z"/>
	<path class="st3" d="M3.3,52.7c0-1-0.5-2.6-1.3-3.2s-1.4,0.1-1.4,0.1L2,53.4C2,53.4,3.3,53.7,3.3,52.7z"/>
	<path class="st6" d="M-8.2,54.8c0,0,0.1,0.9,1,0.6S-7,53.7-7,53.7s-0.8,0.5-0.9-0.2s0.6-0.8,0.6-0.8"/>
	<path class="st6" d="M2.8,51.9c0,0,0.1,0.5-0.3,0.6c-0.8,0.2-1.1-1.3-1.1-1.3s0.8,0,0.5-0.6c-0.2-0.3-0.6,0-0.6,0"/>
	<path class="st9" d="M-2.4,54.4c0,0,0.1,0.8-0.9,1.2"/>
	<path class="st9" d="M0.9,54.5c0,0-0.8,0.3-1.3-0.7"/>
	<path class="st8" d="M-4.3,53.6c0,0.1,0,0.1,0,0.2c0.1,0.2,0.3,0.2,0.6,0.2c0.6-0.2,0.6-0.5,0.5-0.7c0-0.1,0,0,0,0
		C-2.7,54-4.4,54.2-4.3,53.6z"/>
	<path class="st8" d="M-0.6,52.5c0,0.1,0,0.1,0,0.2c0,0.2,0.2,0.3,0.5,0.3c0.7,0,0.7-0.3,0.7-0.5c0-0.1,0,0,0,0
		C0.8,53.4-0.9,53.1-0.6,52.5z"/>
	<path class="st5" d="M-6.2,56.2c0,0-0.1-0.2-0.2-0.3l-0.1-1.1c0,0,2.8,4.4,4.1,3.9s1.8-1.2,1.8-1.2s1.9,0.7,2.1,0.5
		c0,0-3.2,2.2-5,1.5S-6.2,56.2-6.2,56.2z"/>
	<path class="st3" d="M-1,50.5c0,0,0.9,0.7-0.2,1c-1.1,0.3-1.6,0.4-1.7,0c0-0.2,0-0.3,0.1-0.5C-2.8,50.8-1,50.5-1,50.5z"/>
	<path class="st5" d="M-0.6,57.4c0,0-0.1,0.1-0.3,0.2s-0.6-0.2-0.9-0.5C-1.9,57.1-2,57-2,57s0.1,0.1,0.2,0.2
		C-1.1,57.8-0.6,57.4-0.6,57.4z"/>
	<path class="st10" d="M-0.6,57.4c0,0-0.1,0.3-0.3,0.4s-0.9-0.3-1-0.5c-0.1-0.2-0.2-0.5-0.2-0.5s0.2,0.3,0.3,0.4
		c0.2,0.2,0.4,0.3,0.6,0.4c0,0,0.2,0.1,0.3,0L-0.6,57.4z"/>
	<path class="st5" d="M0,57.6c0.2,0,0.3-0.2,0.5-0.7c0,0-0.3,0.6-0.6,0.6s-0.5,0-0.5,0S-0.3,57.6,0,57.6z"/>
	<path class="st10" d="M0,57.8c0.3-0.1,0.8-0.7,0.7-1.3c0,0-0.4,1.1-0.8,1.1c-0.3,0-0.6-0.1-0.6-0.1S-0.1,57.9,0,57.8z"/>
	<path class="st0" d="M-29.1,22.3c-1.8,1.3,0,4.1,1.6,3.8c2.1-1,5.9-3.4,7.6-4.6c2-1.4,6-2.6,7.5-3.1c0.1,0,0.3-0.3,0.4-0.4
		c-1.1-0.3-2.3-1.2-1.9-2.1c0.2-0.4,0.5-0.6,0.9-0.7c-0.3-0.2-0.3-0.2-0.6-0.5c-0.1,0.1-0.2-0.2-0.6-0.1c-0.3,0.1-0.5,1.1-1.2,1.6
		c0,0-6.9,3.1-7.6,3.6C-23.4,20.1-26.7,21.4-29.1,22.3z"/>
	<path class="st3" d="M-12.4,15.1c1.3,0.1,2.5-0.6,2.6-1.6c0,0.1-0.1,0.2-0.1,0.2s1.1-1.5,0.6-2.1c-0.1-0.1-0.7-0.1-0.7,0.1
		c0,1.2-1,1.6-1.1,1.5c0,0,0.7-1.4,0.5-1.8c-0.2-0.3-0.2-0.2-0.3-0.2c-0.4,0-0.9,2.1-1.3,2.8c0,0-1.3,0.3-2,0.6
		c0.3,0.3,0.9,0.2,1.2,0.4C-12.6,15-12.8,15-12.4,15.1z"/>
	<path class="st0" d="M-9.1,13.2c-0.2,0.7-0.6,1.3-0.7,1.5c-0.5,0.9-1.4,1.2-2.6,0.7c-0.7-0.4-1.3-0.7-2,0c-0.7,0.6-0.1,2.1,0.8,2.9
		c1.7-0.1,4.7-1.7,4.7-2.6c0,0,0.5-2,0.4-2.4C-8.7,13-9,12.8-9.1,13.2z"/>
	<path class="st0" d="M-9.7,17.1c0.6-0.2,1.2,0.1,1.4-0.3c0.2-0.4-0.7-0.9-1.5-0.8c-0.8,0.1-1.5-0.4-1.5-0.4s-0.3,0-0.8,0.1
		c-2.1,0.4-1.3,3.7,1.7,2.2C-10.4,17.8-10.3,17.4-9.7,17.1z"/>
	<path class="st8" d="M-3.2,50.2c-0.9-0.2-2.5,2.2-2.7,1.5C-6.9,47.4-4,50.2-3.2,50.2"/>
</symbol>
<symbol  id="laugh2_1_" viewBox="-50 -75 100 150">
	<path class="st0" d="M-23.1-58.2c0-0.2-0.1-0.6-0.1-0.7c0.3-0.4,7.2-3.4,7.8-3.4c0.8,0-0.9-2.2-3.4-1.8c-0.6,0.1-7.6,3.4-7.6,4
		c-0.2,0.6,0.4,1.7,0.4,1.7C-25.5-57.4-23-57.1-23.1-58.2z"/>
	<path class="st0" d="M-25.2-56.5c2.1,9,4.5,21.2,8.2,26.9c1.5,2.4,4.1,1.3,4.9,0.8c0.2-0.1,0.5-1,0.1-1.9c-1.2-2.4-1.5-3.4-4.3-10
		c-2.3-5.3-7-18.6-7.2-18.8c-0.7-0.8-2.6-0.6-2.8,0.1C-26.4-59.2-25.5-57.9-25.2-56.5z"/>
	<path class="st0" d="M-6.2-57.9c-0.4,6.1-2.4,24.5-0.3,31.2c0.4,1.6,2.8,1.8,3.7,1.6c0.9-0.2,1.4-0.9,1.2-2.3
		c-0.2-1.6-0.7-6-1.1-11.1c-0.4-5.4-0.6-12.3-0.8-16.2c-0.1-1.8,0.1-3.7,0.1-3.9c0-1.1-2.7-1.7-2.8-0.9C-6.3-59.5-6.2-58.3-6.2-57.9
		z"/>
	<path class="st0" d="M-6.3-59.1c0,0.4,2.8,1,2.8,0.6c0-0.1,0-0.4,0-0.4c0.1-0.6,7.5-1.7,7.9-1.9c0.6-0.2-1.7-2.6-3.8-2.5
		c-1.3,0.1-5.7,1.3-7,2c-0.4,0.2-0.2,0.7-0.1,1.1C-6.5-60.1-6.3-59.4-6.3-59.1z"/>
	<path class="st0" d="M-20.2,2.5c0,0.2,0.6,6.1,0.9,7.4c0.9,3.6,13.3,3.7,13.6,0c0.1-1.5,0.8-8.1,0.7-8.4c-0.3-1.4-6.6-4-6.6-4
		c-1.1-0.2-1.3-0.2-1.9,0.2C-15.2-1.2-19.9-0.4-20.2,2.5z"/>
	<path class="st0" d="M-19-7.3c-0.1,1.3-0.6,7.4-0.3,7.7c1.7,1.3,6.6-2.6,7-4.3c0.1-0.5,1-12.8,1-17.6c0.1-4.8,0-8.3-0.2-8.7
		c-0.3-0.9-1.1-1.7-2-1.6c-0.9,0.2-2.7,1.6-2.8,2.3C-16.2-29.5-18.9-10.1-19-7.3z"/>
	<path class="st0" d="M-4.2-4.2c1.5-9.8,2.7-19.9,2.7-22.4c0-0.5-0.3-2.1-0.7-2.2c-0.9-0.3-2.9-0.1-3.9,1.6
		c-0.2,0.3-5.5,23.6-5.6,25.1c-0.2,3,5.5,6.2,6.5,4.8C-5,2.4-4.6-1.6-4.2-4.2z"/>
	<path class="st0" d="M-6.7,41.3c0.6,0.5,16.4-4.7,18.4-4.8c0.3,0,0.8-0.1,1.4-0.2c1.6-0.5,0.8-3.9-0.4-4.2
		c-1.6,0.3-3.3,0.5-3.7,0.5c-1.1,0-11.1,2.5-12,3.6C-3.6,37-7.7,40.4-6.7,41.3z"/>
	<path class="st0" d="M-18.5,40.9C-18.5,40.9-18.4,40.9-18.5,40.9c1.7-3.6-0.6-6.3-0.8-6.6c-1.6-1.9-6.5-7.7-9.7-11.3
		c-1.6-1.5-3.9,1.4-2.8,2.8C-27.5,31.1-19.3,40.8-18.5,40.9z"/>
	<g>
		<path class="st0" d="M11.5,32.2c-2.9,0.2-2.9,3.5-1,4.1c3,0.3,8.7,0.2,11.3,0.1c3.1-0.2,8.2,0.9,10.2,1.4c0.1,0,0.5-0.1,0.7-0.1
			c-0.9-0.8-1.6-2.3-0.5-2.8c0.5-0.3,1-0.3,1.4-0.2c-0.1-0.3-0.2-0.3-0.3-0.7c-0.2,0-0.1-0.3-0.5-0.4c-0.4-0.1-1.3,0.6-2.4,0.7
			c0,0-9.5-1-10.6-1C19.1,33.3,14.7,32.7,11.5,32.2z"/>
		<path class="st3" d="M35,35.3c1.3,0.7,2.3,0.4,3.2-0.4C38,35,38,35.1,38,35.1s1.2-1.8,1.1-2.5c0-0.2-0.4-0.3-0.5-0.2
			c-0.8,1.1-1.4,1.8-1.5,1.7c0,0,0.7-0.9,0.7-1.3c0-0.3-0.2-0.3-0.2-0.4c-0.4-0.2-1.3,1.4-2.2,1.7c0,0-1.6-0.4-2.5-0.5
			c0.1,0.4,0.8,0.6,0.9,1C34.1,34.8,34.6,35.1,35,35.3z"/>
		<path class="st0" d="M39.7,34.9c-0.8,0.4-1,0.3-1.5,0.4c-2.4,0.5-2.4,0.5-3.7-0.3c-0.8-0.5-1.4-1-2.5-0.4c-1.1,0.5-0.6,2.1,0.3,3
			c2.2,0.2,4.4-0.4,6.5-1.4c0,0,2.6-0.9,2.6-1.4C41.3,34.6,40.1,34.7,39.7,34.9z"/>
		<path class="st0" d="M36,34.7c0.7-0.3,1.5-0.1,1.7-0.5c0.2-0.5-1-0.8-2-0.6c-1,0.2-2-0.2-2-0.2s-0.4,0-0.9,0.2
			c-2.6,0.7-1.1,3.9,2.5,1.9C35.2,35.5,35.3,35,36,34.7z"/>
	</g>
	<path class="st1" d="M-5.4,8.7c0,0-7.3-1.8-11.5-1.2c-1.1,0.2-2,0.5-2.5,1c0,0-1,1.3-1.6-9s0.2-18.4,0.2-18.4s11.9-3.8,18.1-0.8
		c0.2,0.1-0.7,15.6-1,19.7S-5.4,8.7-5.4,8.7z"/>
	<path class="st2" d="M-9.6,7.3c0.4-2.4,0.9-27.2,0.9-27.2l-0.8,0.2L-9.3-1l-0.5,8.7L-9.6,7.3z"/>
	<rect x="-50" y="-75" class="st4" width="100" height="150"/>
	<path class="st0" d="M-20.2,39.3c0,0.6,6.6,4.2,7.2,5.3c0.3,0.5,1.1,7.3,1.2,9.3c1.1-1.6,3.9-4.6,5.8-3.8c-0.2-1.2-0.1-5.5,0-6.3
		c0.2-0.8,4.8-4.5,4.6-5.2C-2.3,34-3.7,31-4,26.8c-0.1-3.3-0.6-9.3-0.5-10.4c0.2-2.1-1-6.2-1.3-7.5s-9.3-3-13.3,1.6
		c0,0,0.5,4,0.8,9.2c0.1,2.9,0.5,7.6,0.7,10.2C-17.4,31.9-20,37.2-20.2,39.3z"/>
	<path class="st3" d="M-16.7,31.8c0-0.2,0.2-0.7,0.5-0.7c0.3,0,0.6,0.5,0.6,0.6c0,0.2-0.2,0.3-0.5,0.4C-16.4,32.1-16.6,32-16.7,31.8
		z"/>
	<path class="st3" d="M-6.2,31.1c0-0.2,0.2-0.6,0.5-0.6s0.6,0.4,0.6,0.5c0,0.2-0.2,0.3-0.5,0.3C-6,31.3-6.2,31.2-6.2,31.1z"/>
	<path class="st5" d="M-8.8,63.2c0,0-0.5,0.2-1.9,0c-1.4-0.2-2.9-2.3-2.2-5.5c0,0-0.2,0.2,0-1c0-0.3,0.6-2,0.8-3.3
		c0,0,1.4-2.9,3-1.4c1.5,1.4,3.9-0.5,3.9-0.5s1,0,1,0.1c0,0,0.4-0.2,0.4,0.8c0,0.6,0.5,4,0.7,6.8c0.1,1.2-0.1,1.9-0.1,1.9
		s0,0.5-0.2,0.8S-5,63.6-6,63.8c-0.6,0.1-1.1,0.3-1.7,0C-8,63.6-8.8,63.2-8.8,63.2z"/>
	<path class="st3" d="M-11,51.4c-0.2,1.4,5.6,6.7,5.7-1.1c0,0,0,0.9,0.1-0.8C-5.5,47.3-10.5,48.3-11,51.4z"/>
	<path class="st0" d="M-3.3,58.1c0,0-0.1-4.6-0.5-6.3c-0.1-0.5-0.7-2.4-1.8-2.8c-1.5-0.6-4.6,0.2-5.7,3.3c-0.5,1.4-0.8,4.7-0.6,5.5
		c0,0.1,1.2,4,4.4,3.8C-4.2,61.6-3.7,61.9-3.3,58.1z"/>
	<path class="st3" d="M-14.1,53.9c-0.3,0.5-1.1,2.8-0.3,4c0.7,1.2,2.1,0.3,2.3-0.1s0.5-4.6,0.5-4.6S-13.8,53.4-14.1,53.9z"/>
	<path class="st3" d="M-1.9,57.3c0.3-1,0.2-2.7-0.4-3.4c-0.6-0.7-1.4-0.3-1.4-0.3l0.3,4.1C-3.3,57.7-2.1,58.3-1.9,57.3z"/>
	<path class="st6" d="M-13.5,56.3c0,0-0.1,0.9,0.8,0.8c0.9-0.1,0.7-1.6,0.7-1.6s-0.9,0.2-0.8-0.5c0.1-0.7,0.8-0.6,0.8-0.6"/>
	<path class="st6" d="M-2.2,56.5c0,0,0,0.5-0.4,0.5c-0.8-0.1-0.7-1.6-0.7-1.6s0.8,0.2,0.6-0.5c-0.1-0.4-0.6-0.2-0.6-0.2"/>
	<path class="st8" d="M-10.7,54.2c-0.1-0.8,2.2-0.9,2.9-0.7C-8.6,53.1-10.7,54.5-10.7,54.2z"/>
	<path class="st9" d="M-7.8,57.5c0,0-0.1,0.8-1.2,0.9"/>
	<path class="st9" d="M-4.7,58.5c0,0-0.8,0-1.1-1"/>
	<path class="st8" d="M-9.4,56.1c0,0.1,0,0.1,0,0.2c0,0.2,0.3,0.3,0.5,0.3c0.7,0,0.7-0.4,0.7-0.6c0-0.1,0,0,0,0
		C-8,57-9.7,56.7-9.4,56.1z"/>
	<path class="st8" d="M-5.6,56.1c0,0-0.1,0.1-0.1,0.1c0,0.2,0.2,0.4,0.4,0.5c0.7,0.2,0.8-0.1,0.8-0.3c0-0.1,0,0,0-0.1
		C-4.5,57.3-6,56.6-5.6,56.1z"/>
	<path class="st5" d="M-12,58.2c0,0,0-0.2-0.1-0.4l0.2-1.1c0,0,1.5,5,2.9,4.8s2.1-0.7,2.1-0.7s1.6,1.1,1.9,1c0,0-3.6,1.3-5.3,0.1
		C-11.8,60.8-12,58.2-12,58.2z"/>
	<path class="st3" d="M-5.4,54.1c0,0,0.6,0.9-0.5,0.9s-1.7-0.1-1.6-0.5c0-0.2,0.1-0.3,0.2-0.5S-5.4,54.1-5.4,54.1z"/>
	<path class="st5" d="M-6.9,60.9c0,0-0.1,0.1-0.4,0.1c-0.2,0-0.6-0.3-0.7-0.7c0-0.1-0.1-0.2-0.1-0.2s0.1,0.1,0.2,0.3
		C-7.4,61.1-6.9,60.9-6.9,60.9z"/>
	<path class="st10" d="M-6.9,60.9c0,0-0.2,0.3-0.4,0.3c-0.2,0-0.8-0.5-0.8-0.7c0-0.2-0.1-0.5-0.1-0.5S-8,60.2-8,60.4
		c0.1,0.2,0.3,0.4,0.5,0.5c0,0,0.1,0.1,0.3,0L-6.9,60.9z"/>
	<path class="st5" d="M-6.4,61.2c0.2,0,0.4-0.1,0.7-0.5c0,0-0.5,0.5-0.8,0.4C-6.8,60.9-7,60.9-7,60.9S-6.6,61.2-6.4,61.2z"/>
	<path class="st10" d="M-6.4,61.4c0.3,0,1-0.5,1-1.1c0,0-0.7,0.9-1,0.8C-6.7,61.1-7,60.9-7,60.9S-6.5,61.4-6.4,61.4z"/>
	<path class="st0" d="M-30.7,22.6c-1.9,1.1-0.4,4.1,1.2,3.9c2.2-0.7,6.3-2.8,8-3.8c2.1-1.2,6.2-2,7.8-2.3c0.1,0,0.3-0.3,0.5-0.3
		c-1-0.4-2.2-1.5-1.7-2.3c0.2-0.4,0.6-0.6,0.9-0.6c-0.3-0.3-0.3-0.2-0.5-0.5c-0.1,0-0.2-0.2-0.6-0.1c-0.3,0.1-0.6,1-1.4,1.4
		c0,0-7.2,2.3-7.9,2.7C-24.8,21-28.2,22-30.7,22.6z"/>
	<path class="st3" d="M-13.3,17.2c1.3,0.2,2.5-0.3,2.7-1.3c0,0.1-0.1,0.2-0.1,0.2s1.3-1.4,0.8-2c-0.1-0.1-0.6-0.2-0.7,0
		c-0.1,1.2-1.2,1.5-1.3,1.4c0,0,0.9-1.3,0.6-1.7c-0.2-0.3-0.2-0.2-0.3-0.2c-0.4-0.1-1.1,1.9-1.6,2.6c0,0-1.3,0.2-2,0.4
		c0.2,0.3,0.9,0.3,1.1,0.5C-13.5,17.2-13.7,17.1-13.3,17.2z"/>
	<path class="st0" d="M-9.8,15.7c-0.3,0.7-0.7,1.2-0.9,1.5c-0.6,0.8-1.6,1-2.7,0.4c-0.6-0.4-1.2-0.9-2-0.3c-0.8,0.6-0.3,2.1,0.5,2.9
		c1.7,0.1,4.9-1.2,4.9-2.1c0,0,0.7-1.9,0.7-2.4C-9.4,15.5-9.6,15.3-9.8,15.7z"/>
	<path class="st0" d="M-10.8,19.6c0.6-0.2,1.1,0.2,1.4-0.2c0.3-0.4-0.6-1-1.4-1c-0.8,0-1.5-0.6-1.5-0.6s-0.3,0-0.8,0
		c-2.2,0.2-1.7,3.5,1.5,2.4C-11.6,20.2-11.4,19.7-10.8,19.6z"/>
</symbol>
<symbol  id="laugh3_1_" viewBox="-50 -75 100 150">
	<path class="st0" d="M-23.1-58.2c0-0.2-0.1-0.6-0.1-0.7c0.3-0.4,7.2-3.4,7.8-3.4c0.8,0-0.9-2.2-3.4-1.8c-0.6,0.1-7.6,3.4-7.6,4
		c-0.2,0.6,0.4,1.7,0.4,1.7C-25.5-57.4-23-57.1-23.1-58.2z"/>
	<path class="st0" d="M-25.2-56.5c2.1,9,4.5,21.2,8.2,26.9c1.5,2.4,4.1,1.3,4.9,0.8c0.2-0.1,0.5-1,0.1-1.9c-1.2-2.4-1.5-3.4-4.3-10
		c-2.3-5.3-7-18.6-7.2-18.8c-0.7-0.8-2.6-0.6-2.8,0.1C-26.4-59.2-25.5-57.9-25.2-56.5z"/>
	<path class="st0" d="M-6.2-57.9c-0.4,6.1-2.4,24.5-0.3,31.2c0.4,1.6,2.8,1.8,3.7,1.6c0.9-0.2,1.4-0.9,1.2-2.3
		c-0.2-1.6-0.7-6-1.1-11.1c-0.4-5.4-0.6-12.3-0.8-16.2c-0.1-1.8,0.1-3.7,0.1-3.9c0-1.1-2.7-1.7-2.8-0.9C-6.3-59.5-6.2-58.3-6.2-57.9
		z"/>
	<path class="st0" d="M-6.3-59.1c0,0.4,2.8,1,2.8,0.6c0-0.1,0-0.4,0-0.4c0.1-0.6,7.5-1.7,7.9-1.9c0.6-0.2-1.7-2.6-3.8-2.5
		c-1.3,0.1-5.7,1.3-7,2c-0.4,0.2-0.2,0.7-0.1,1.1C-6.5-60.1-6.3-59.4-6.3-59.1z"/>
	<path class="st0" d="M-19.8,1.5c0,0.2,0.6,6.1,0.9,7.4c0.9,3.6,13.3,3.7,13.6,0c0.1-1.5,0.8-8.1,0.7-8.4c-0.3-1.4-6.6-4-6.6-4
		c-1.1-0.2-1.3-0.2-1.9,0.2C-14.8-2.1-19.5-1.3-19.8,1.5z"/>
	<path class="st0" d="M-19-7.3c-0.1,1.3-0.6,7.4-0.3,7.7c1.7,1.3,6.6-2.6,7-4.3c0.1-0.5,1-12.8,1-17.6c0.1-4.8,0-8.3-0.2-8.7
		c-0.3-0.9-1.1-1.7-2-1.6c-0.9,0.2-2.7,1.6-2.8,2.3C-16.2-29.5-18.9-10.1-19-7.3z"/>
	<path class="st0" d="M-4.2-4.2c1.5-9.8,2.7-19.9,2.7-22.4c0-0.5-0.3-2.1-0.7-2.2c-0.9-0.3-2.9-0.1-3.9,1.6
		c-0.2,0.3-5.5,23.6-5.6,25.1c-0.2,3,5.5,6.2,6.5,4.8C-5,2.4-4.6-1.6-4.2-4.2z"/>
	<path class="st0" d="M-7.7,40.8c0.5,0.5,16.6-4.1,18.6-4.1c0.3,0,0.8-0.1,1.4-0.2c1.6-0.4,1-3.9-0.3-4.2c-1.6,0.2-3.3,0.4-3.7,0.4
		c-1.1,0-11.2,2.1-12.1,3.2C-4.4,36.7-8.7,39.9-7.7,40.8z"/>
	<path class="st0" d="M-20.2,40.4C-20.2,40.4-20.2,40.4-20.2,40.4c1.9-3.5-0.1-6.3-0.4-6.6c-1.4-2-6-8.2-8.9-12
		c-1.5-1.6-4,1.2-3,2.6C-28.5,30-21,40.2-20.2,40.4z"/>
	<g>
		<path class="st0" d="M10.8,32.3c-2.9,0.1-3,3.4-1.2,4c3,0.4,8.7,0.5,11.3,0.5c3.1-0.1,8.1,1.2,10.2,1.7c0.1,0,0.5-0.1,0.7-0.1
			c-0.8-0.9-1.5-2.3-0.4-2.8c0.5-0.3,1-0.2,1.4-0.1c-0.1-0.3-0.1-0.3-0.2-0.7c-0.2,0-0.1-0.3-0.5-0.4c-0.4-0.1-1.4,0.6-2.5,0.6
			c0,0-9.4-1.4-10.5-1.4C18.3,33.8,14,33,10.8,32.3z"/>
		<path class="st3" d="M34.2,36.3c1.3,0.8,2.3,0.5,3.2-0.3c-0.1,0.1-0.2,0.2-0.2,0.2s1.3-1.7,1.2-2.5c0-0.2-0.4-0.4-0.5-0.2
			c-0.9,1-1.5,1.8-1.6,1.7c0,0,0.7-0.9,0.7-1.3c0-0.3-0.2-0.3-0.2-0.4c-0.4-0.2-1.3,1.3-2.3,1.6c0,0-1.6-0.5-2.5-0.6
			c0.1,0.4,0.8,0.6,0.9,1C33.3,35.8,33.8,36.1,34.2,36.3z"/>
		<path class="st0" d="M38.9,36.1c-0.8,0.4-1,0.3-1.5,0.4c-2.4,0.4-2.4,0.4-3.7-0.4c-0.7-0.5-1.4-1-2.5-0.5c-1.1,0.5-0.7,2.1,0.2,3
			c2.2,0.3,4.4-0.2,6.5-1.2c0,0,2.7-0.8,2.6-1.3C40.5,35.9,39.3,35.9,38.9,36.1z"/>
		<path class="st0" d="M35.2,35.8c0.7-0.3,1.5,0,1.7-0.5c0.2-0.5-1-0.8-2-0.7c-1,0.2-2-0.3-2-0.3s-0.4,0-0.9,0.2
			c-2.7,0.6-1.2,3.8,2.5,2C34.4,36.5,34.4,36.1,35.2,35.8z"/>
	</g>
	<path class="st1" d="M-5,7.7c0,0-7.3-1.8-11.5-1.2c-1.1,0.2-2,0.5-2.5,1c0,0-1,1.3-1.6-9c-0.6-10.2,0.2-18.4,0.2-18.4
		s11.9-3.8,18.1-0.8C-2-20.5-2.8-5-3.2-0.9S-5,7.7-5,7.7z"/>
	<path class="st2" d="M-9.1,6.3c0.4-2.4,0.9-27.2,0.9-27.2L-9-20.7l0.2,18.7l-0.5,8.7L-9.1,6.3z"/>
	<rect x="-50" y="-75" class="st4" width="100" height="150"/>
	<path class="st0" d="M-21.8,38.6c-0.1,0.6,6.3,4.7,6.8,5.8c0.3,0.5,0.6,7.4,0.5,9.3c1.2-1.5,4.2-4.3,6-3.4
		c-0.1-1.2,0.3-5.5,0.5-6.3c0.2-0.8,5.1-4.1,5-4.8c-0.6-4.6-1.8-7.7-1.8-11.9C-4.7,24.1-4.7,18-4.5,17c0.3-2-0.5-6.2-0.7-7.5
		s-9-3.6-13.4,0.7c0,0,0.2,4,0.1,9.2c-0.1,2.9,0,7.6-0.1,10.2C-18.5,31.4-21.5,36.6-21.8,38.6z"/>
	<path class="st3" d="M-17.7,31.4c0-0.2,0.2-0.7,0.5-0.7c0.3,0,0.6,0.5,0.6,0.7c0,0.2-0.2,0.3-0.5,0.3
		C-17.5,31.7-17.7,31.6-17.7,31.4z"/>
	<path class="st3" d="M-7.3,31.5c0-0.2,0.2-0.6,0.5-0.6c0.3,0,0.5,0.4,0.5,0.6c0,0.2-0.2,0.3-0.5,0.3S-7.3,31.6-7.3,31.5z"/>
	<path class="st5" d="M-13.2,63.4c0,0-0.5,0.1-1.9-0.3c-1.4-0.4-2.5-2.7-1.3-5.8c0,0-0.2,0.1,0.1-1c0.1-0.3,1-1.9,1.4-3.1
		c0,0,1.9-2.6,3.2-0.9c1.2,1.6,4,0.2,4,0.2s1,0.2,1,0.2c0,0,0.4-0.1,0.2,0.8c-0.1,0.6-0.2,4-0.5,6.8c-0.1,1.2-0.4,1.8-0.4,1.8
		s-0.1,0.5-0.3,0.8c-0.2,0.3-2,1.5-3,1.6c-0.6,0-1.1,0.1-1.6-0.3C-12.6,64-13.2,63.4-13.2,63.4z"/>
	<path class="st3" d="M-13.4,51.5c-0.5,1.4,4.3,7.5,5.8-0.1c0,0-0.2,0.9,0.2-0.8C-7.2,48.4-12.3,48.5-13.4,51.5z"/>
	<path class="st0" d="M-6.9,59.4c0,0,0.7-4.6,0.6-6.3c0-0.5-0.3-2.5-1.3-3.1c-1.3-0.9-4.6-0.6-6.2,2.3c-0.7,1.3-1.6,4.5-1.6,5.3
		c0,0.1,0.5,4.1,3.6,4.6C-8.5,62.6-8,63.1-6.9,59.4z"/>
	<path class="st3" d="M-16.8,53.4c-0.4,0.5-1.5,2.6-1,3.9c0.5,1.3,2.1,0.6,2.3,0.3s1.3-4.4,1.3-4.4S-16.4,52.9-16.8,53.4z"/>
	<path class="st3" d="M-5.4,58.9c0.4-0.9,0.7-2.6,0.2-3.4C-5.6,54.7-6.5,55-6.5,55L-6.9,59C-6.9,59-5.8,59.8-5.4,58.9z"/>
	<path class="st6" d="M-16.7,55.9c0,0-0.3,0.9,0.6,1c0.9,0.1,0.9-1.4,0.9-1.4s-1,0.1-0.7-0.6c0.2-0.7,0.9-0.5,0.9-0.5"/>
	<path class="st6" d="M-5.5,58c0,0-0.1,0.5-0.5,0.4c-0.8-0.2-0.4-1.7-0.4-1.7s0.7,0.4,0.7-0.3c0-0.4-0.5-0.3-0.5-0.3"/>
	<path class="st8" d="M-13.6,54.3c1-4.3,2.4-0.5,3-0.2C-11.3,53.6-13.8,55-13.6,54.3z"/>
	<path class="st9" d="M-11.3,58c0,0-0.2,0.8-1.3,0.7"/>
	<path class="st9" d="M-8.4,59.5c0,0-0.8-0.1-0.9-1.2"/>
	<path class="st8" d="M-12.6,56.4c0,0,0,0.1-0.1,0.2c0,0.2,0.2,0.4,0.5,0.4c0.7,0.1,0.7-0.2,0.7-0.4c0-0.1,0,0,0,0
		C-11.4,57.5-13,56.9-12.6,56.4z"/>
	<path class="st8" d="M-8.9,57.1c0,0-0.1,0.1-0.1,0.1c-0.1,0.2,0.1,0.4,0.3,0.5c0.6,0.3,0.8,0,0.8-0.2c0-0.1,0,0,0-0.1
		C-8,58.5-9.4,57.5-8.9,57.1z"/>
	<path class="st5" d="M-15.5,58c0,0,0-0.2,0-0.4l0.4-1.1c0,0,0.6,5.2,2,5.3s2.2-0.3,2.2-0.3s1.4,1.4,1.7,1.3c0,0-3.8,0.6-5.2-0.8
		S-15.5,58-15.5,58z"/>
	<path class="st3" d="M-8.3,55.1c0,0,0.5,1-0.6,0.8c-1.1-0.2-1.7-0.4-1.5-0.8c0-0.1,0.2-0.3,0.3-0.4C-10.1,54.5-8.3,55.1-8.3,55.1z"
		/>
	<path class="st5" d="M-11,61.5c0,0-0.2,0.1-0.4,0c-0.2,0-0.5-0.4-0.6-0.8c0-0.1-0.1-0.2-0.1-0.2s0,0.1,0.1,0.3
		C-11.5,61.6-11,61.5-11,61.5z"/>
	<path class="st10" d="M-11,61.5c0,0-0.3,0.2-0.5,0.2s-0.7-0.7-0.6-0.9c0-0.2,0-0.5,0-0.5s0.1,0.3,0.1,0.5c0.1,0.2,0.2,0.5,0.4,0.6
		c0,0,0.1,0.1,0.3,0.1L-11,61.5z"/>
	<path class="st5" d="M-10.5,61.9c0.2,0.1,0.4,0,0.8-0.4c0,0-0.6,0.4-0.8,0.3s-0.5-0.3-0.5-0.3S-10.7,61.8-10.5,61.9z"/>
	<path class="st10" d="M-10.6,62.2c0.3,0.1,1.1-0.3,1.2-0.9c0,0-0.9,0.8-1.1,0.6s-0.5-0.4-0.5-0.4S-10.7,62.1-10.6,62.2z"/>
	<path class="st0" d="M-31.1,21.3c-2,1-0.7,4.1,0.9,4c2.3-0.6,6.4-2.3,8.3-3.2c2.2-1.1,6.3-1.5,8-1.7c0.1,0,0.4-0.2,0.5-0.3
		c-1-0.5-2.1-1.6-1.5-2.4c0.3-0.4,0.6-0.5,1-0.6c-0.2-0.3-0.2-0.3-0.5-0.6c-0.1,0-0.2-0.2-0.5-0.2c-0.3,0.1-0.7,1-1.5,1.3
		c0,0-7.3,1.8-8.1,2.2C-25.1,20.1-28.5,20.8-31.1,21.3z"/>
	<path class="st3" d="M-12.4,15.1c1.3,0.1,2.5-0.6,2.6-1.6c0,0.1-0.1,0.2-0.1,0.2s1.1-1.5,0.6-2.1c-0.1-0.1-0.7-0.1-0.7,0.1
		c0,1.2-1,1.6-1.1,1.5c0,0,0.7-1.4,0.5-1.8c-0.2-0.3-0.2-0.2-0.3-0.2c-0.4,0-0.9,2.1-1.3,2.8c0,0-1.3,0.3-2,0.6
		c0.3,0.3,0.9,0.2,1.2,0.4C-12.6,15-12.8,15-12.4,15.1z"/>
	<path class="st0" d="M-9.8,15.9c-0.3,0.6-0.8,1.1-1,1.4c-0.6,0.8-1.6,0.9-2.7,0.2c-0.6-0.5-1.2-1-2-0.4c-0.8,0.5-0.4,2.1,0.3,2.9
		c1.7,0.2,5-0.9,5-1.7c0,0,0.9-1.8,0.8-2.3C-9.3,15.7-9.6,15.5-9.8,15.9z"/>
	<path class="st0" d="M-11.1,19.6c0.6-0.1,1.1,0.3,1.4-0.1c0.3-0.4-0.5-1-1.3-1.1c-0.8-0.1-1.4-0.7-1.4-0.7s-0.3-0.1-0.8,0
		c-2.2,0-1.9,3.4,1.3,2.5C-11.8,20.2-11.7,19.8-11.1,19.6z"/>
</symbol>
<symbol  id="start_1_" viewBox="-50 -75 100 150">
	<path class="st0" d="M7.7-59.1c0-0.2,0-0.6,0.1-0.7c0.3-0.3,7.7-2.1,8.3-2c0.8,0.1-0.5-2.3-3-2.4c-0.6,0-8.1,1.9-8.2,2.5
		C4.6-61,4.9-59.8,5-59.8C5.2-58.8,7.6-58,7.7-59.1z"/>
	<path class="st0" d="M5-56.9c-1.3,9.1-3.5,21.4-2.2,28c0.6,2.8,3.4,2.7,4.3,2.5c0.2,0,0.8-0.8,0.8-1.8C7.6-30.8,7.7-31.9,7.4-39
		c-0.2-5.8,0.3-19.9,0.1-20.2c-0.4-1-2.2-1.5-2.7-1C4.8-60,5.2-58.4,5-56.9z"/>
	<path class="st0" d="M-8.5-58.6c-0.2,6.2-1.8,24.5,0.5,31.2c0.5,1.6,2.9,1.7,3.8,1.5c0.9-0.2,1.4-1,1.1-2.4
		c-0.2-1.6-0.9-6-1.4-11.1c-0.5-5.4-0.9-12.3-1.3-16.2c-0.2-1.8,0-3.7,0-3.9c0-1.1-2.7-1.7-2.8-0.8C-8.6-60.2-8.5-59-8.5-58.6z"/>
	<path class="st0" d="M-8.6-60.2c0,0.4,2.8,1.1,2.8,0.7c0-0.1,0-0.4,0-0.4c0.2-0.6,7.5-1.5,8-1.6c0.7-0.2-1.6-2.7-3.8-2.6
		c-1.3,0-5.8,1.1-7,1.7c-0.4,0.2-0.2,0.7-0.2,1.1C-8.7-61.2-8.6-60.5-8.6-60.2z"/>
	<path class="st0" d="M-8.8,1.7c0,0.2,0.6,6.1,0.9,7.4c0.9,3.6,13.3,3.7,13.6,0C5.9,7.6,6.5,1,6.4,0.7c-0.3-1.4-6.6-4-6.6-4
		c-1.1-0.2-1.3-0.2-1.9,0.2C-3.8-1.9-8.5-1.1-8.8,1.7z"/>
	<path class="st0" d="M-8.7-4.8c0.1,1.3,0.2,7.5,0.5,7.7c1.9,1.1,6.3-3.3,6.6-5C-1.5-2.7-2-15.1-2.4-19.8c-0.4-4.8-0.8-8.2-1-8.6
		c-0.4-0.9-1.2-1.6-2.1-1.4c-0.9,0.3-2.5,1.9-2.6,2.6C-8.1-27.2-8.8-7.6-8.7-4.8z"/>
	<path class="st0" d="M7.1-6.6c0.7-9.9,1.1-20,0.9-22.5c0-0.5-0.4-2-0.9-2.2c-0.9-0.3-2.9,0.2-3.8,1.9C3.1-29-0.3-5.4-0.3-3.9
		c0,3,6,5.7,6.9,4.3C6.7,0.1,6.9-4,7.1-6.6z"/>
	<path class="st0" d="M-11.3,37.6c-0.1,0.6,6.2,4.8,6.7,5.9c0.3,0.6,0.5,7.4,0.4,9.3c1.2-1.5,4.3-4.3,6.1-3.3
		c-0.1-1.2,0.3-5.5,0.6-6.3c0.3-0.8,5.1-4.1,5-4.8c-0.6-4.6-1.7-7.7-1.7-11.9C6,23.2,6,17.2,6.2,16.1c0.4-2-0.5-6.2-0.7-7.5
		s-9-3.7-13.4,0.5c0,0,0.2,4,0,9.2c-0.1,2.9-0.1,7.6-0.2,10.2C-7.9,30.5-11,35.6-11.3,37.6z"/>
	<path class="st0" d="M-11.2,37.4C-11.2,37.4-11.2,37.4-11.2,37.4c3.3-2.1,2.9-5.6,2.8-6c-0.3-2.4-1.4-10-2.1-14.8
		c-0.6-2.1-4-0.9-3.9,0.8C-13.5,24.3-11.8,36.9-11.2,37.4z"/>
	<g>
		<path class="st1" d="M6.3,6.7c0,0-7.3-1.8-11.5-1.2c-1.1,0.1-2,0.5-2.5,1c0,0-1,1.2-1.6-8.6s0.1-17.6,0.1-17.6S2.7-23.5,9-20.5
			C9.1-20.4,8.3-5.5,8-1.6S6.3,6.7,6.3,6.7z"/>
		<path class="st2" d="M2.1,5.3C2.5,3,3-20.8,3-20.8l-0.8,0.2l0.2,18L1.9,5.8L2.1,5.3z"/>
	</g>
	<path class="st3" d="M-7.1,30.5c0-0.2,0.2-0.7,0.6-0.7c0.3,0,0.6,0.5,0.6,0.7c0,0.2-0.2,0.3-0.6,0.3C-6.9,30.8-7.1,30.6-7.1,30.5z"
		/>
	<path class="st3" d="M3.3,30.6c0-0.2,0.2-0.6,0.5-0.6s0.5,0.4,0.5,0.6c0,0.2-0.2,0.3-0.5,0.3S3.3,30.8,3.3,30.6z"/>
	<g>
		<path class="st0" d="M-10.5,16.2c-0.6,2.8-3.9,2.4-4.2,0.4c0.1-3,1-8.7,1.5-11.3C-12.5,2.3-12.9-2.9-13-5c0-0.1,0.2-0.5,0.2-0.7
			c0.7,1,2,1.9,2.7,0.9c0.3-0.5,0.4-0.9,0.4-1.4c0.3,0.2,0.3,0.2,0.6,0.4c0,0.2,0.3,0.1,0.3,0.6c0,0.4-0.8,1.2-1,2.3
			c0,0-0.3,9.5-0.5,10.6C-10.6,8.5-10.6,13-10.5,16.2z"/>
		<path class="st3" d="M-10.3-7.6c-0.5-1.4-0.1-2.4,0.8-3.1c-0.1,0.1-0.2,0.2-0.2,0.2s1.9-0.9,2.6-0.7c0.2,0.1,0.3,0.5,0.1,0.6
			c-1.2,0.7-2,1.1-1.9,1.2c0,0,1-0.6,1.4-0.5c0.3,0.1,0.3,0.2,0.3,0.3c0.2,0.4-1.5,1-2,2c0,0,0.2,1.7,0.1,2.6
			c-0.3-0.2-0.5-0.9-0.8-1.1C-9.9-6.6-10.1-7.1-10.3-7.6z"/>
		<path class="st0" d="M-7.9-11.6c-0.7,0.3-1.3,0.8-1.6,1.1c-0.9,0.7-1.2,2-0.7,3.4c0.4,0.8,0.7,1.6,0,2.6c-0.7,1-2.2,0.3-2.9-0.7
			c0.1-2.2,1.8-6.2,2.7-6.2c0,0,2-0.9,2.4-0.8C-7.7-12.1-7.4-11.8-7.9-11.6z"/>
		<path class="st0" d="M-9.6-8.4c0.4-0.6,0.3-1.5,0.8-1.6c0.5-0.2,0.7,1.1,0.3,2.1c-0.4,1-0.1,2-0.1,2S-8.7-5.5-8.9-5
			c-1.1,2.5-4,0.5-1.5-2.8C-10.4-7.8-10-7.8-9.6-8.4z"/>
	</g>
	<rect x="-50" y="-75" class="st4" width="100" height="150"/>
	<path class="st0" d="M7.7,38.5c0.6-0.3,1.7-17,2.4-18.9c0.1-0.3,0.2-0.8,0.3-1.4c0.2-1.6-3.3-2.2-4-1.2c-0.3,1.6-0.7,3.2-0.9,3.6
		c-0.4,1-1.8,11.2-1.1,12.5C4.9,34.1,6.5,39.2,7.7,38.5z"/>
	<g>
		<path class="st0" d="M6.5,16.1c-0.7,2.8,2.5,3.8,3.6,2.2c1.2-2.7,2.8-8.3,3.5-10.8c0.8-3,3.3-7.5,4.4-9.4C18-2,18-2.4,18.1-2.6
			C17-2,15.4-1.7,15.2-2.9c-0.1-0.6,0-1,0.3-1.4c-0.4,0-0.4,0-0.7,0c-0.1,0.2-0.3,0-0.5,0.4c-0.2,0.4,0.2,1.5-0.1,2.5
			c0,0-3.8,8.7-4.1,9.8C9.9,9.2,8,13.2,6.5,16.1z"/>
		<path class="st3" d="M16.6-5.4c1.1-1,1.1-2.1,0.6-3.1c0.1,0.2,0.1,0.3,0.1,0.3s-1.3-1.7-2.1-1.8c-0.2,0-0.4,0.3-0.3,0.5
			c0.8,1.1,1.3,1.9,1.2,2c0,0-0.7-0.9-1.1-1.1c-0.3-0.1-0.3,0.1-0.4,0.1c-0.3,0.3,0.9,1.6,1,2.6c0,0-0.9,1.4-1.2,2.3
			c0.4,0,0.8-0.6,1.2-0.6C15.8-4.8,16.2-5.1,16.6-5.4z"/>
		<path class="st0" d="M16.1-10.1c0.5,0.6,0.8,1.3,0.9,1.7c0.5,1,0.3,2.3-0.8,3.3c-0.7,0.6-1.3,1.1-1.1,2.3C15.3-1.6,17-1.5,18-2.1
			c0.8-2.1,1-6.4,0.3-6.7c0,0-1.4-1.7-1.9-1.8C16.2-10.7,15.8-10.5,16.1-10.1z"/>
		<path class="st0" d="M16.3-6.5c-0.1-0.8,0.4-1.4,0-1.8c-0.4-0.4-1.1,0.7-1.2,1.8c-0.1,1-0.8,1.9-0.8,1.9s-0.1,0.4-0.1,1
			c-0.1,2.7,3.4,2.2,2.6-1.9C16.8-5.6,16.4-5.7,16.3-6.5z"/>
	</g>
	<path class="st3" d="M-3.7,51.7c-0.1,1.4,6.1,6.2,5.6-1.6c0,0,0.1,0.9,0-0.8C1.5,47.2-3.4,48.5-3.7,51.7z"/>
	<path class="st5" d="M-0.6,63.4c0,0-0.5,0.2-1.9,0.2c-1.4-0.1-3.1-2-2.7-5.3c0,0-0.2,0.2-0.1-1c0-0.3,0.5-2.1,0.5-3.4
		c0,0,1.2-3,2.9-1.7c1.6,1.3,3.9-0.8,3.9-0.8s1-0.1,1,0c0,0,0.3-0.2,0.4,0.7c0.1,0.6,0.8,3.9,1.2,6.7c0.2,1.2,0.1,1.9,0.1,1.9
		s0,0.5-0.1,0.9c-0.1,0.4-1.6,2-2.5,2.3c-0.5,0.2-1,0.3-1.6,0.1C0.1,63.8-0.6,63.4-0.6,63.4z"/>
	<path class="st0" d="M4.3,57.8c0,0-0.5-4.6-1-6.2c-0.2-0.5-0.9-2.3-2-2.7c-1.5-0.5-4.6,0.5-5.4,3.8c-0.4,1.5-0.4,4.7-0.2,5.5
		c0,0.1,1.6,3.8,4.6,3.5C3.6,61.3,4.1,61.6,4.3,57.8z"/>
	<path class="st3" d="M-6.7,54.6c-0.3,0.5-0.8,2.9,0,4s2.1,0.1,2.3-0.3c0.2-0.3,0.1-4.6,0.1-4.6S-6.4,54-6.7,54.6z"/>
	<path class="st3" d="M5.8,57c0.2-1,0-2.7-0.6-3.4s-1.4-0.2-1.4-0.2l0.6,4.1C4.4,57.5,5.6,58.1,5.8,57z"/>
	<path class="st6" d="M-5.9,57c0,0,0,0.9,0.9,0.8c0.9-0.1,0.5-1.6,0.5-1.6s-0.9,0.3-0.9-0.4c0-0.7,0.7-0.7,0.7-0.7"/>
	<path class="st6" d="M5.4,56.2c0,0,0.1,0.5-0.4,0.5c-0.8,0-0.8-1.5-0.8-1.5s0.8,0.2,0.6-0.5c-0.1-0.4-0.6-0.2-0.6-0.2"/>
	<path class="st7" d="M3,56.9c0-0.1,0.1-0.1,0.1-0.2c0-0.3-0.1-0.5-0.4-0.5c-0.3,0-0.5,0.1-0.5,0.4c0,0.1,0,0.1,0,0.2
		C2.5,56.8,2.7,56.8,3,56.9z"/>
	<path class="st8" d="M-2.4,54.3c0.2-0.6,0.2-0.8,0.9-0.6C-2.3,53.3-2.5,54.5-2.4,54.3z"/>
	<path class="st9" d="M-0.6,58.5c0,0-0.3,0.7-1.4,0.5"/>
	<path class="st9" d="M3.4,58.8c0,0-0.7,0.4-1.4-0.4"/>
	<g>
		<ellipse transform="matrix(0.9853 -0.1708 0.1708 0.9853 -9.632 1.252)" class="st1" cx="2.5" cy="56.6" rx="0.1" ry="0.1"/>
	</g>
	<path class="st7" d="M-0.4,56.8c0-0.1,0-0.1,0-0.2c-0.1-0.3-0.3-0.4-0.6-0.3c-0.2,0.1-0.4,0.3-0.3,0.6c0,0.1,0.1,0.1,0.1,0.2
		C-0.9,57-0.7,56.9-0.4,56.8z"/>
	<g>
		<ellipse transform="matrix(0.2834 -0.959 0.959 0.2834 -55.1747 39.7575)" class="st1" cx="-1" cy="56.8" rx="0.1" ry="0.1"/>
	</g>
	<path class="st5" d="M-4.3,58.7c0,0-0.1-0.2-0.1-0.3l0.1-1.1c0,0,1.9,4.9,3.3,4.6c1.4-0.3,2-0.8,2-0.8s1.7,1,2,0.8
		c0,0-3.5,1.6-5.2,0.5C-3.9,61.3-4.3,58.7-4.3,58.7z"/>
	<path class="st3" d="M2,54.1c0,0,0.7,0.9-0.4,0.9c-1.1,0.1-1.7,0.1-1.7-0.3c0-0.2,0.1-0.3,0.2-0.5S2,54.1,2,54.1z"/>
	<path class="st5" d="M1,61c0,0-0.1,0.1-0.4,0.1s-0.6-0.3-0.8-0.6c0-0.1-0.1-0.2-0.1-0.2s0.1,0.1,0.2,0.3C0.5,61.2,1,61,1,61z"/>
	<path class="st10" d="M1,61c0,0-0.2,0.3-0.4,0.3s-0.8-0.5-0.8-0.7s-0.1-0.5-0.1-0.5s0.2,0.3,0.3,0.4c0.1,0.2,0.3,0.4,0.6,0.5
		c0,0,0.1,0.1,0.3,0L1,61z"/>
	<path class="st5" d="M1.6,61.2c0.2,0,0.4-0.1,0.7-0.6c0,0-0.4,0.5-0.7,0.5S1,61,1,61S1.3,61.2,1.6,61.2z"/>
	<path class="st10" d="M1.6,61.5c0.3,0,1-0.6,0.9-1.2c0,0-0.6,1-0.9,0.9C1.2,61.2,1,61,1,61S1.4,61.5,1.6,61.5z"/>
</symbol>
<symbol  id="walk2_x5F_1" viewBox="-50 -75 100 150">
	<path class="st0" d="M-10.4-53.8c-0.1-0.1-0.4-0.5-0.4-0.5c0-0.5,4.1-6.8,4.6-7.1c0.7-0.5-1.9-1.4-3.8,0.4c-0.4,0.4-4.5,7-4.1,7.5
		c0.2,0.6,1.3,1.2,1.3,1.2C-11.9-51.9-9.7-53-10.4-53.8z"/>
	<path class="st0" d="M-10.8-50.3c5.4,7.5,12.3,17.8,17.9,21.7c2.3,1.6,4.3-0.4,4.9-1.2c0.1-0.2,0.1-1.1-0.7-1.8
		c-2-1.8-2.8-2.6-7.9-7.5c-4.1-4-13.6-14.5-13.9-14.6c-1-0.5-2.6,0.5-2.6,1.2C-13.1-52.4-11.7-51.5-10.8-50.3z"/>
	<path class="st0" d="M-8.5-58.6c-0.2,6.2-1.8,24.5,0.5,31.2c0.5,1.6,2.9,1.7,3.8,1.5c0.9-0.2,1.4-1,1.1-2.4
		c-0.2-1.6-0.9-6-1.4-11.1c-0.5-5.4-0.9-12.3-1.3-16.2c-0.2-1.8,0-3.7,0-3.9c0-1.1-2.7-1.7-2.8-0.8C-8.6-60.2-8.5-59-8.5-58.6z"/>
	<path class="st0" d="M-8.6-60.2c0,0.4,2.8,1.1,2.8,0.7c0-0.1,0-0.4,0-0.4c0.2-0.6,7.5-1.5,8-1.6c0.7-0.2-1.6-2.7-3.8-2.6
		c-1.3,0-5.8,1.1-7,1.7c-0.4,0.2-0.2,0.7-0.2,1.1C-8.7-61.2-8.6-60.5-8.6-60.2z"/>
	<path class="st0" d="M-8.8,1.7c0,0.2,0.6,6.1,0.9,7.4c0.9,3.6,13.3,3.7,13.6,0C5.9,7.6,6.5,1,6.4,0.7c-0.3-1.4-6.6-4-6.6-4
		c-1.1-0.2-1.3-0.2-1.9,0.2C-3.8-1.9-8.5-1.1-8.8,1.7z"/>
	<path class="st0" d="M-8.4-4.8c0.1,1.3,0.2,7.5,0.5,7.7c1.9,1.1,6.3-3.3,6.6-5c0.1-0.5-0.3-12.9-0.7-17.6c-0.4-4.8-0.8-8.2-1-8.6
		c-0.4-0.9-1.2-1.6-2.1-1.4c-0.9,0.3-2.5,1.9-2.6,2.6C-7.9-27.2-8.6-7.6-8.4-4.8z"/>
	<path class="st0" d="M8-6.3c2.2-9.7,4.1-19.6,4.3-22.1c0-0.5-0.1-2.1-0.6-2.3c-0.9-0.4-2.9-0.3-4,1.3C7.5-29,0.5-6.2,0.3-4.7
		c-0.4,3,5.1,6.5,6.2,5.3C6.6,0.3,7.4-3.7,8-6.3z"/>
	<path class="st0" d="M7.9,38.2c0.5-0.5-3.8-16.7-3.8-18.6c0-0.3-0.1-0.8-0.2-1.4c-0.4-1.6-3.9-1-4.2,0.2C0,20,0.1,21.6,0.1,22.1
		c0,1.1,1.9,11.2,3,12.1C3.8,34.9,7,39.2,7.9,38.2z"/>
	<path class="st0" d="M-11.3,37.6c-0.1,0.6,6.2,4.8,6.7,5.9c0.3,0.6,0.5,7.4,0.4,9.3c1.2-1.5,4.3-4.3,6.1-3.3
		c-0.1-1.2,0.3-5.5,0.6-6.3c0.3-0.8,5.1-4.1,5-4.8c-0.6-4.6-1.7-7.7-1.7-11.9C6,23.2,6,17.2,6.2,16.1c0.4-2-0.5-6.2-0.7-7.5
		s-9-3.7-13.4,0.5c0,0,0.2,4,0,9.2c-0.1,2.9-0.1,7.6-0.2,10.2C-7.9,30.5-11,35.6-11.3,37.6z"/>
	<path class="st0" d="M-11.3,37.5C-11.3,37.5-11.3,37.5-11.3,37.5c3.5-1.9,3.3-5.4,3.3-5.8c-0.1-2.5-0.6-10.1-1-14.9
		c-0.4-2.2-4-1.2-3.9,0.6C-12.7,24.2-11.9,36.9-11.3,37.5z"/>
	<g>
		<path class="st1" d="M6.2,7.8c0,0-7.3-1.8-11.5-1.2c-1.1,0.2-2,0.5-2.5,1c0,0-1,1.3-1.6-9s0.2-18.4,0.2-18.4s11.9-3.8,18.1-0.8
			c0.2,0.1-0.7,15.6-1,19.7C7.6,3.3,6.2,7.8,6.2,7.8z"/>
		<path class="st2" d="M2,6.4C2.5,4,3-20.8,3-20.8l-0.8,0.2L2.3-1.9L1.8,6.9L2,6.4z"/>
	</g>
	<path class="st3" d="M-7.1,30.5c0-0.2,0.2-0.7,0.6-0.7c0.3,0,0.6,0.5,0.6,0.7c0,0.2-0.2,0.3-0.6,0.3C-6.9,30.8-7.1,30.6-7.1,30.5z"
		/>
	<path class="st3" d="M3.3,30.6c0-0.2,0.2-0.6,0.5-0.6s0.5,0.4,0.5,0.6c0,0.2-0.2,0.3-0.5,0.3S3.3,30.8,3.3,30.6z"/>
	<g>
		<path class="st0" d="M-9.3,16.6c-1.1,2.6-4.3,1.6-4.2-0.4c0.7-2.9,2.6-8.4,3.6-10.8c1.2-2.9,1.7-8.1,2-10.1c0-0.1,0.3-0.5,0.3-0.6
			C-7.1-4.3-6-3.1-5.1-4c0.4-0.4,0.6-0.8,0.6-1.3C-4.2-5-4.2-5-3.9-4.8c0,0.2,0.3,0.2,0.2,0.6c-0.1,0.4-1,1.1-1.4,2.1
			c0,0-2.1,9.3-2.5,10.4C-8,9-8.8,13.3-9.3,16.6z"/>
		<path class="st3" d="M-4.7-6.8C-5-8.3-4.4-9.1-3.4-9.7c-0.1,0.1-0.2,0.2-0.2,0.2s2.1-0.6,2.7-0.2c0.2,0.1,0.2,0.5,0,0.6
			C-2.1-8.7-3-8.4-3-8.3c0,0,1.1-0.4,1.5-0.2c0.3,0.1,0.2,0.3,0.3,0.3c0.1,0.5-1.7,0.7-2.3,1.6c0,0-0.1,1.7-0.3,2.6
			c-0.3-0.2-0.3-1-0.6-1.2C-4.5-5.8-4.6-6.3-4.7-6.8z"/>
		<path class="st0" d="M-1.6-10.3C-2.4-10.1-3-9.7-3.4-9.5c-1,0.5-1.6,1.7-1.3,3.2c0.2,0.9,0.4,1.7-0.5,2.5C-6-2.9-7.3-3.9-7.8-5
			c0.5-2.2,2.9-5.7,3.8-5.6c0,0,2.1-0.5,2.5-0.3C-1.3-10.8-1.1-10.4-1.6-10.3z"/>
		<path class="st0" d="M-3.8-7.5c0.5-0.6,0.5-1.4,1-1.5C-2.3-9-2.4-7.7-2.9-6.8c-0.5,0.9-0.5,2-0.5,2S-3.5-4.5-3.9-4
			c-1.5,2.3-4-0.3-1-3C-4.8-7-4.4-6.9-3.8-7.5z"/>
	</g>
	<rect x="-50" y="-75" class="st4" width="100" height="150"/>
	<path class="st5" d="M-0.6,62.5c0,0-0.5,0.2-1.9,0.2c-1.4-0.1-3.1-2-2.7-5.3c0,0-0.2,0.2-0.1-1c0-0.3,0.5-2.1,0.5-3.4
		c0,0,1.2-3,2.9-1.7c1.6,1.3,3.9-0.8,3.9-0.8s1-0.1,1,0c0,0,0.3-0.2,0.4,0.7c0.1,0.6,0.8,3.9,1.2,6.7c0.2,1.2,0.1,1.9,0.1,1.9
		s0,0.5-0.1,0.9c-0.1,0.4-1.6,2-2.5,2.3c-0.5,0.2-1,0.3-1.6,0.1C0.1,62.9-0.6,62.5-0.6,62.5z"/>
	<path class="st3" d="M-3.8,50.9c-0.1,1.4,6.1,6.2,5.6-1.6c0,0,0.1,0.9,0-0.8C1.3,46.4-3.5,47.7-3.8,50.9z"/>
	<path class="st0" d="M4.4,57c0,0-0.5-4.6-1-6.2c-0.2-0.5-0.9-2.3-2-2.7c-1.5-0.5-4.6,0.5-5.4,3.8c-0.4,1.5-0.4,4.7-0.2,5.5
		c0,0.1,1.6,3.8,4.6,3.5C3.7,60.5,4.3,60.8,4.4,57z"/>
	<path class="st3" d="M-6.7,53.6c-0.3,0.5-0.8,2.9,0,4c0.8,1.1,2.1,0.1,2.3-0.3c0.2-0.3,0.1-4.6,0.1-4.6S-6.4,53.1-6.7,53.6z"/>
	<path class="st3" d="M5.8,56.1c0.2-1,0-2.7-0.6-3.4s-1.4-0.2-1.4-0.2l0.6,4.1C4.4,56.6,5.6,57.1,5.8,56.1z"/>
	<path class="st6" d="M-5.9,56.1c0,0,0,0.9,0.9,0.8s0.5-1.6,0.5-1.6s-0.9,0.3-0.9-0.4s0.7-0.7,0.7-0.7"/>
	<path class="st6" d="M5.4,55.3c0,0,0.1,0.5-0.4,0.5c-0.8,0-0.8-1.5-0.8-1.5s0.8,0.2,0.6-0.5c-0.1-0.4-0.6-0.2-0.6-0.2"/>
	<path class="st7" d="M3,55.9c0-0.1,0.1-0.1,0.1-0.2c0-0.3-0.1-0.5-0.4-0.5c-0.3,0-0.5,0.1-0.5,0.4c0,0.1,0,0.1,0,0.2
		C2.5,55.9,2.7,55.9,3,55.9z"/>
	<path class="st8" d="M-2.4,53.3c0.2-0.6,0.2-0.8,0.9-0.6C-2.3,52.4-2.5,53.6-2.4,53.3z"/>
	<path class="st9" d="M-0.6,57.6c0,0-0.3,0.7-1.4,0.5"/>
	<path class="st9" d="M3.4,57.9c0,0-0.7,0.4-1.4-0.4"/>
	<g>
		<ellipse transform="matrix(0.9853 -0.1708 0.1708 0.9853 -9.4719 1.2382)" class="st1" cx="2.5" cy="55.7" rx="0.1" ry="0.1"/>
	</g>
	<path class="st7" d="M-0.4,55.9c0-0.1,0-0.1,0-0.2c-0.1-0.3-0.3-0.4-0.6-0.3c-0.2,0.1-0.4,0.3-0.3,0.6c0,0.1,0.1,0.1,0.1,0.2
		C-0.9,56.1-0.7,56-0.4,55.9z"/>
	<g>
		<ellipse transform="matrix(0.2834 -0.959 0.959 0.2834 -54.2759 39.0859)" class="st1" cx="-1" cy="55.9" rx="0.1" ry="0.1"/>
	</g>
	<path class="st5" d="M-4.3,57.7c0,0-0.1-0.2-0.1-0.3l0.1-1.1c0,0,1.9,4.9,3.3,4.6c1.4-0.3,2-0.8,2-0.8s1.7,1,2,0.8
		c0,0-3.5,1.6-5.2,0.5C-3.9,60.4-4.3,57.7-4.3,57.7z"/>
	<path class="st3" d="M2,53.2c0,0,0.7,0.9-0.4,0.9c-1.1,0.1-1.7,0.1-1.7-0.3c0-0.2,0.1-0.3,0.2-0.5C0.2,53.1,2,53.2,2,53.2z"/>
	<path class="st5" d="M1,60c0,0-0.1,0.1-0.4,0.1s-0.6-0.3-0.8-0.6c0-0.1-0.1-0.2-0.1-0.2s0.1,0.1,0.2,0.3C0.5,60.3,1,60,1,60z"/>
	<path class="st10" d="M1,60c0,0-0.2,0.3-0.4,0.3s-0.8-0.5-0.8-0.7c0-0.2-0.1-0.5-0.1-0.5s0.2,0.3,0.3,0.4c0.1,0.2,0.3,0.4,0.6,0.5
		c0,0,0.1,0.1,0.3,0L1,60z"/>
	<path class="st5" d="M1.6,60.3c0.2,0,0.4-0.1,0.7-0.6c0,0-0.4,0.5-0.7,0.5S1,60,1,60S1.3,60.3,1.6,60.3z"/>
	<path class="st10" d="M1.6,60.6c0.3,0,1-0.6,0.9-1.2c0,0-0.6,1-0.9,0.9S1,60.1,1,60.1S1.4,60.6,1.6,60.6z"/>
</symbol>
<symbol  id="walk2_x5F_2_1_" viewBox="-50 -75 100 150">
	<path class="st0" d="M18.4-58.2c0.1-0.2,0.2-0.6,0.2-0.6c0.4-0.2,8-0.1,8.5,0.1c0.8,0.3,0.1-2.4-2.3-3c-0.6-0.2-8.3-0.1-8.5,0.5
		c-0.4,0.5-0.4,1.7-0.3,1.8C15.9-58.5,18-57.2,18.4-58.2z"/>
	<path class="st0" d="M15.1-56.8c-3.5,8.6-8.6,19.9-8.9,26.7c-0.1,2.8,2.6,3.4,3.6,3.5c0.2,0,1-0.5,1.2-1.5
		c0.4-2.7,0.7-3.7,2.2-10.7c1.2-5.6,5.1-19.2,5-19.5c-0.1-1.1-1.8-2-2.4-1.6C15.7-59.8,15.7-58.2,15.1-56.8z"/>
	<path class="st0" d="M-15.6-56.4c1.3,6,4,24.3,7.8,30.2c0.8,1.4,3.2,1,4,0.6c0.8-0.4,1.1-1.3,0.5-2.6c-0.6-1.5-2.2-5.7-3.9-10.5
		c-1.8-5.1-3.8-11.7-5-15.5c-0.6-1.7-0.9-3.6-1-3.8c-0.3-1.1-3-1-2.9-0.1C-16.1-57.9-15.7-56.8-15.6-56.4z"/>
	<path class="st0" d="M-16-58c0.1,0.4,2.9,0.4,2.9,0.1c0-0.1-0.1-0.4-0.1-0.4c0-0.6,7-3.2,7.4-3.4c0.6-0.4-2.2-2.2-4.3-1.7
		c-1.3,0.3-5.4,2.4-6.4,3.3c-0.4,0.3-0.1,0.7,0.1,1.1C-16.4-58.9-16.1-58.2-16-58z"/>
	<path class="st0" d="M-8.8,0.5c0,0.2,0.6,6.1,0.9,7.4c0.9,3.6,13.3,3.7,13.6,0c0.1-1.5,0.8-8.1,0.7-8.4c-0.3-1.4-6.6-4-6.6-4
		c-1.1-0.2-1.3-0.2-1.9,0.2C-3.8-3.1-8.5-2.3-8.8,0.5z"/>
	<path class="st0" d="M-8.4-6c0.1,1.3,0.2,7.5,0.5,7.7c1.9,1.1,6.3-3.3,6.6-5C-1.3-3.9-1.7-16.2-2.1-21c-0.4-4.8-0.8-8.2-1-8.6
		c-0.4-0.9-1.2-1.6-2.1-1.4c-0.9,0.3-2.5,1.9-2.6,2.6C-7.9-28.4-8.6-8.7-8.4-6z"/>
	<path class="st0" d="M7-7.4c2.2-9.7,4.1-19.6,4.3-22.1c0-0.5-0.1-2.1-0.6-2.3c-0.9-0.4-2.9-0.3-4,1.3C6.5-30.2-0.5-7.4-0.7-5.9
		c-0.4,3,5.1,6.5,6.2,5.3C5.6-0.8,6.4-4.8,7-7.4z"/>
	<path class="st0" d="M7.8,37.3c0.5-0.5-2.6-16.9-2.4-18.9c0-0.3,0-0.8-0.1-1.4c-0.2-1.6-3.8-1.3-4.2-0.1c0.1,1.6,0.1,3.3,0,3.8
		C1.1,21.7,2.3,32,3.3,33C4,33.7,6.8,38.2,7.8,37.3z"/>
	<path class="st0" d="M-11.3,36.3C-11.3,36.3-11.3,36.3-11.3,36.3c3.5-1.9,3.3-5.4,3.3-5.8C-8.1,28-8.6,20.4-9,15.6
		c-0.4-2.2-4-1.2-3.9,0.6C-12.7,23-11.9,35.7-11.3,36.3z"/>
	<g>
		<path class="st0" d="M1,16.2c0.7,2.8,4,2.2,4.2,0.3c-0.2-3-1.4-8.6-2-11.2C2.5,2.3,2.6-2.9,2.7-5c0-0.1-0.2-0.5-0.2-0.7
			c-0.7,1-2,2-2.7,1C-0.6-5.1-0.6-5.6-0.6-6c-0.3,0.2-0.3,0.2-0.6,0.4c0,0.2-0.3,0.1-0.3,0.6c0,0.4,0.9,1.2,1.1,2.3
			c0,0,0.7,9.5,1,10.6C0.8,8.5,1,13,1,16.2z"/>
		<path class="st3" d="M-0.2-7.5c0.5-1.4,0-2.4-1-3c0.1,0.1,0.2,0.2,0.2,0.2s-2-0.9-2.7-0.6c-0.2,0.1-0.3,0.5-0.1,0.6
			c1.2,0.6,2,1.1,2,1.2c0,0-1-0.5-1.4-0.4c-0.3,0.1-0.3,0.2-0.3,0.3c-0.2,0.4,1.6,1,2.1,1.9c0,0-0.1,1.7,0,2.6C-1-5.1-0.9-5.8-0.6-6
			C-0.6-6.6-0.4-7.1-0.2-7.5z"/>
		<path class="st0" d="M-2.8-11.4c0.7,0.3,1.3,0.8,1.6,1.1C-0.2-9.7,0.2-8.4-0.3-7C-0.6-6.2-1-5.4-0.2-4.5c0.7,1,2.2,0.2,2.9-0.8
			c-0.2-2.2-2.1-6.1-2.9-6.1c0,0-2-0.8-2.5-0.7C-3-11.9-3.2-11.6-2.8-11.4z"/>
		<path class="st0" d="M-1-8.3C-1.4-9-1.3-9.8-1.8-9.9C-2.3-10.1-2.4-8.8-2-7.8c0.4,1,0.2,2,0.2,2s0.1,0.4,0.4,0.9
			c1.2,2.5,4,0.3,1.4-2.8C0-7.7-0.5-7.7-1-8.3z"/>
	</g>
	<g>
		<path class="st1" d="M6.2,6.6c0,0-7.3-1.8-11.5-1.2c-1.1,0.2-2,0.5-2.5,1c0,0-1,1.3-1.6-9s0.2-18.4,0.2-18.4s11.9-3.8,18.1-0.8
			C9.1-21.6,8.3-6,7.9-2C7.6,2.1,6.2,6.6,6.2,6.6z"/>
		<path class="st2" d="M2,5.4C2.4,3,2.9-21.8,2.9-21.8l-0.8,0.2L2.3-2.9L1.7,5.8L2,5.4z"/>
	</g>
	<g>
		<path class="st0" d="M-9,16.1c-1.6,2.4-4.5,0.8-4-1.1C-11.9,12.2-9,7.2-7.6,5c1.7-2.6,3.2-7.6,3.8-9.6c0-0.1,0.4-0.4,0.4-0.6
			C-3-4-2.1-2.6-1.1-3.3c0.5-0.3,0.7-0.7,0.8-1.2C0-4.2-0.1-4.2,0.2-3.9C0.1-3.8,0.4-3.7,0.3-3.3C0.1-2.9-1-2.4-1.6-1.5
			c0,0-3.7,8.8-4.3,9.7C-6.3,8.9-7.9,13-9,16.1z"/>
		<path class="st3" d="M-0.2-6.1c0-1.5,0.8-2.2,1.9-2.6C1.5-8.6,1.4-8.5,1.4-8.5s2.1-0.2,2.7,0.3C4.3-8.1,4.2-7.7,4-7.7
			C2.7-7.5,1.7-7.3,1.8-7.2c0,0,1.1-0.2,1.5,0.1C3.6-7,3.5-6.8,3.5-6.8c0,0.5-1.8,0.4-2.6,1.1c0,0-0.4,1.6-0.8,2.5
			c-0.3-0.3-0.1-1-0.4-1.3C-0.2-5-0.2-5.6-0.2-6.1z"/>
		<path class="st0" d="M3.5-8.9C2.7-8.8,2-8.6,1.6-8.4C0.5-8.1-0.2-7.1-0.2-5.5c0,0.9,0.1,1.7-0.9,2.4c-1,0.7-2.1-0.5-2.4-1.7
			c0.9-2,3.9-5.1,4.7-4.8c0,0,2.2-0.1,2.6,0.2C3.9-9.3,4-8.9,3.5-8.9z"/>
		<path class="st0" d="M0.8-6.6C1.4-7,1.6-7.8,2.1-7.8c0.5,0,0.2,1.3-0.5,2.1C0.9-5,0.8-3.9,0.8-3.9S0.5-3.6,0.1-3.1
			c-1.9,1.9-3.9-1-0.4-3.2C-0.3-6.3,0.2-6.1,0.8-6.6z"/>
	</g>
	<rect x="-50" y="-75" class="st4" width="100" height="150"/>
	<path class="st0" d="M-11.3,36.2c-0.1,0.6,6.2,4.8,6.7,5.9c0.3,0.6,0.5,7.4,0.4,9.3c1.2-1.5,4.3-4.3,6.1-3.3
		c-0.1-1.2,0.3-5.5,0.6-6.3c0.3-0.8,5.1-4.1,5-4.8C7,32.4,5.9,29.3,5.9,25.1c0.1-3.3,0.2-9.3,0.3-10.4c0.4-2-0.5-6.2-0.7-7.5
		s-9-3.7-13.4,0.5c0,0,0.2,4,0,9.2c-0.1,2.9-0.1,7.6-0.2,10.2C-7.9,29-10.9,34.1-11.3,36.2z"/>
	<path class="st3" d="M-7,29c0-0.2,0.2-0.7,0.6-0.7s0.6,0.5,0.6,0.7s-0.2,0.3-0.6,0.3S-7,29.2-7,29z"/>
	<path class="st3" d="M3.4,29.1c0-0.2,0.2-0.6,0.5-0.6s0.5,0.4,0.5,0.6s-0.2,0.3-0.5,0.3S3.4,29.3,3.4,29.1z"/>
	<path class="st5" d="M-0.6,61c0,0-0.5,0.2-1.9,0.2c-1.4-0.1-3.1-2-2.7-5.3c0,0-0.2,0.2-0.1-1c0-0.3,0.5-2.1,0.5-3.4
		c0,0,1.2-3,2.9-1.7c1.6,1.3,3.9-0.8,3.9-0.8s1-0.1,1,0c0,0,0.3-0.2,0.4,0.7c0.1,0.6,0.8,3.9,1.2,6.7c0.2,1.2,0.1,1.9,0.1,1.9
		s0,0.5-0.1,0.9c-0.1,0.4-1.6,2-2.5,2.3c-0.5,0.2-1,0.3-1.6,0.1C0.2,61.4-0.6,61-0.6,61z"/>
	<path class="st3" d="M-3.8,49.5c-0.1,1.4,6.1,6.2,5.6-1.6c0,0,0.1,0.9,0-0.8C1.4,45-3.5,46.3-3.8,49.5z"/>
	<path class="st0" d="M4.5,55.6c0,0-0.5-4.6-1-6.2c-0.2-0.5-0.9-2.3-2-2.7C0,46.1-3.1,47.2-4,50.4c-0.4,1.5-0.4,4.7-0.2,5.5
		c0,0.1,1.6,3.8,4.6,3.5C3.8,59.1,4.3,59.4,4.5,55.6z"/>
	<path class="st3" d="M-6.6,52.2c-0.3,0.5-0.8,2.9,0,4c0.8,1.1,2.1,0.1,2.3-0.3s0.1-4.6,0.1-4.6S-6.4,51.7-6.6,52.2z"/>
	<path class="st3" d="M5.8,54.7c0.2-1,0-2.7-0.6-3.4c-0.6-0.7-1.4-0.2-1.4-0.2l0.6,4.1C4.4,55.2,5.6,55.7,5.8,54.7z"/>
	<path class="st6" d="M-5.9,54.6c0,0,0,0.9,0.9,0.8s0.5-1.6,0.5-1.6s-0.9,0.3-0.9-0.4c0-0.7,0.7-0.7,0.7-0.7"/>
	<path class="st6" d="M5.5,53.8c0,0,0.1,0.5-0.4,0.5c-0.8,0-0.8-1.5-0.8-1.5s0.8,0.2,0.6-0.5c-0.1-0.4-0.6-0.2-0.6-0.2"/>
	<path class="st7" d="M3.1,54.5c0-0.1,0.1-0.1,0.1-0.2c0-0.3-0.1-0.5-0.4-0.5c-0.3,0-0.5,0.1-0.5,0.4c0,0.1,0,0.1,0,0.2
		C2.5,54.4,2.8,54.5,3.1,54.5z"/>
	<path class="st8" d="M-2.3,51.9c0.2-0.6,0.2-0.8,0.9-0.6C-2.2,50.9-2.4,52.1-2.3,51.9z"/>
	<path class="st9" d="M-0.6,56.1c0,0-0.3,0.7-1.4,0.5"/>
	<path class="st9" d="M3.5,56.4c0,0-0.7,0.4-1.4-0.4"/>
	<g>
		<ellipse transform="matrix(0.9853 -0.1708 0.1708 0.9853 -9.2238 1.2275)" class="st1" cx="2.5" cy="54.2" rx="0.1" ry="0.1"/>
	</g>
	<path class="st7" d="M-0.3,54.5c0-0.1,0-0.1,0-0.2c-0.1-0.3-0.3-0.4-0.6-0.3c-0.2,0.1-0.4,0.3-0.3,0.6c0,0.1,0.1,0.1,0.1,0.2
		C-0.9,54.6-0.6,54.5-0.3,54.5z"/>
	<g>
		<ellipse transform="matrix(0.2834 -0.959 0.959 0.2834 -52.8437 38.1087)" class="st1" cx="-0.9" cy="54.4" rx="0.1" ry="0.1"/>
	</g>
	<path class="st5" d="M-4.2,56.3c0,0-0.1-0.2-0.1-0.3l0.1-1.1c0,0,1.9,4.9,3.3,4.6c1.4-0.3,2-0.8,2-0.8s1.7,1,2,0.8
		c0,0-3.5,1.6-5.2,0.5C-3.8,58.9-4.2,56.3-4.2,56.3z"/>
	<path class="st3" d="M2,51.7c0,0,0.7,0.9-0.4,0.9c-1.1,0.1-1.7,0.1-1.7-0.3c0-0.2,0.1-0.3,0.2-0.5C0.2,51.6,2,51.7,2,51.7z"/>
	<path class="st5" d="M1.1,58.6c0,0-0.1,0.1-0.4,0.1s-0.6-0.3-0.8-0.6c0-0.1-0.1-0.2-0.1-0.2S-0.1,58,0,58.1
		C0.6,58.8,1.1,58.6,1.1,58.6z"/>
	<path class="st10" d="M1.1,58.6c0,0-0.2,0.3-0.4,0.3s-0.8-0.5-0.8-0.7s-0.1-0.5-0.1-0.5S-0.1,58,0,58.2c0.1,0.2,0.3,0.4,0.6,0.5
		c0,0,0.1,0.1,0.3,0L1.1,58.6z"/>
	<path class="st5" d="M1.6,58.8c0.2,0,0.4-0.1,0.7-0.6c0,0-0.4,0.5-0.7,0.5S1,58.6,1,58.6S1.4,58.8,1.6,58.8z"/>
	<path class="st10" d="M1.7,59.1c0.3,0,1-0.6,0.9-1.2c0,0-0.6,1-0.9,0.9S1,58.6,1,58.6S1.5,59.1,1.7,59.1z"/>
</symbol>
<symbol  id="walk2_x5F_3_1_" viewBox="-50 -75 100 150">
	<path class="st0" d="M-17.5-48.8c-0.1-0.1-0.4-0.5-0.4-0.6c0.1-0.5,4.8-6.4,5.3-6.7c0.7-0.4-1.8-1.5-3.8,0
		c-0.5,0.4-5.1,6.5-4.8,7.1c0.1,0.6,1.1,1.3,1.2,1.4C-19.2-47-16.9-47.9-17.5-48.8z"/>
	<path class="st0" d="M-17.6-45.5c6,7,13.8,16.7,19.7,20c2.5,1.4,4.3-0.8,4.7-1.6c0.1-0.2,0-1.1-0.8-1.7c-2.2-1.6-3-2.3-8.5-6.8
		c-4.5-3.6-14.8-13.2-15.1-13.3c-1-0.4-2.6,0.7-2.5,1.4C-20-47.4-18.6-46.6-17.6-45.5z"/>
	<path class="st0" d="M-2.4-59.6c-0.4,6.1-2.4,24.5-0.3,31.2c0.4,1.6,2.8,1.8,3.7,1.6c0.9-0.2,1.4-0.9,1.2-2.3
		c-0.2-1.6-0.7-6-1.1-11.1c-0.4-5.4-0.6-12.3-0.8-16.2c-0.1-1.8,0.1-3.7,0.1-3.9c0-1.1-2.7-1.7-2.8-0.9C-2.4-61.2-2.4-60-2.4-59.6z"
		/>
	<path class="st0" d="M-2.6-60.7c0,0.4,2.8,1,2.8,0.6c0-0.1,0-0.4,0-0.4c0.1-0.6,7.5-1.7,7.9-1.9c0.6-0.2-1.7-2.6-3.8-2.5
		c-1.3,0.1-5.7,1.3-7,2c-0.4,0.2-0.2,0.7-0.1,1.1C-2.8-61.7-2.6-61-2.6-60.7z"/>
	<path class="st0" d="M-8.8,1.5c0,0.2,0.6,6.1,0.9,7.4c0.9,3.6,13.3,3.7,13.6,0c0.1-1.5,0.8-8.1,0.7-8.4c-0.3-1.4-6.6-4-6.6-4
		c-1.1-0.2-1.3-0.2-1.9,0.2C-3.8-2.1-8.5-1.3-8.8,1.5z"/>
	<path class="st0" d="M-5.6-7.3C-5.7-6-6.2,0.1-5.9,0.4c1.7,1.3,6.6-2.6,7-4.3c0.1-0.5,1-12.8,1-17.6c0.1-4.8,0-8.3-0.2-8.7
		C1.7-31.2,1-32,0-31.9c-0.9,0.2-2.7,1.6-2.8,2.3C-2.8-29.5-5.5-10.1-5.6-7.3z"/>
	<path class="st0" d="M2.5-4.5c2.2-9.7,4.1-19.6,4.3-22.1c0-0.5-0.1-2.1-0.6-2.3c-0.9-0.4-2.9-0.3-4,1.3C2-27.3-5-4.5-5.2-3
		C-5.6,0-0.1,3.6,1,2.3C1.1,2.1,1.9-1.9,2.5-4.5z"/>
	<path class="st0" d="M7.5,38.7c0.6-0.4,0-17.1,0.5-19c0.1-0.3,0.1-0.8,0.2-1.4c0-1.6-3.6-1.9-4.1-0.7c-0.2,1.6-0.4,3.3-0.5,3.7
		c-0.3,1-0.6,11.4,0.2,12.5C4.2,34.5,6.4,39.4,7.5,38.7z"/>
	<path class="st0" d="M-11.1,37.9C-11.1,37.9-11.1,37.9-11.1,37.9c3.2-2.3,2.6-5.8,2.5-6.2c-0.5-2.4-1.9-9.9-3-14.6
		c-0.7-2.1-4.1-0.6-3.8,1.1C-14.2,25-11.8,37.5-11.1,37.9z"/>
	<g>
		<path class="st0" d="M3.8,18c-0.8,2.7,2.3,4,3.5,2.3c1.3-2.7,3.2-8.1,4-10.6c0.9-3,3.7-7.4,4.8-9.1c0.1-0.1,0.1-0.5,0.2-0.7
			c-1.1,0.5-2.7,0.7-2.8-0.5c-0.1-0.6,0.1-1,0.3-1.4c-0.4,0-0.4,0-0.7,0c-0.1,0.2-0.3,0-0.5,0.4c-0.2,0.4,0.1,1.5-0.2,2.5
			c0,0-4.2,8.5-4.6,9.6C7.5,11.2,5.4,15.1,3.8,18z"/>
		<path class="st3" d="M14.9-3.1c1.1-1,1.2-2,0.7-3.1c0.1,0.2,0.1,0.3,0.1,0.3s-1.3-1.8-2-1.9c-0.2,0-0.5,0.3-0.4,0.4
			c0.7,1.2,1.2,2,1.1,2c0,0-0.6-1-1-1.1c-0.3-0.1-0.3,0-0.4,0.1c-0.4,0.3,0.9,1.7,0.9,2.7c0,0-1,1.4-1.4,2.2c0.4,0,0.9-0.6,1.2-0.6
			C14-2.4,14.5-2.8,14.9-3.1z"/>
		<path class="st0" d="M14.6-7.8c0.5,0.6,0.7,1.4,0.9,1.7c0.5,1.1,0.2,2.3-1,3.3c-0.7,0.5-1.4,1-1.2,2.2c0.1,1.2,1.8,1.3,2.9,0.8
			c0.9-2,1.3-6.3,0.6-6.7c0,0-1.3-1.7-1.8-1.9C14.7-8.3,14.3-8.2,14.6-7.8z"/>
		<path class="st0" d="M14.6-4.2c-0.1-0.8,0.5-1.4,0.1-1.8c-0.4-0.4-1.1,0.7-1.3,1.7c-0.1,1-0.9,1.8-0.9,1.8s-0.1,0.4-0.1,1
			c-0.2,2.7,3.3,2.3,2.6-1.7C15.1-3.2,14.7-3.4,14.6-4.2z"/>
	</g>
	<path class="st1" d="M6.2,7.6c0,0-7.3-1.8-11.5-1.2c-1.1,0.2-2,0.5-2.5,1c0,0-1,1.3-1.6-9s0.2-18.4,0.2-18.4s11.9-3.8,18.1-0.8
		C9.1-20.6,8.3-5,7.9-1C7.6,3.1,6.2,7.6,6.2,7.6z"/>
	<path class="st2" d="M1.9,6.3c0.4-2.4,0.9-27.2,0.9-27.2L2-20.7L2.1-1.9L1.6,6.8L1.9,6.3z"/>
	<g>
		<path class="st0" d="M-11.2,17.3c-0.7,2.8-4,2.2-4.2,0.3c0.2-3,1.3-8.7,1.8-11.2c0.7-3.1,0.5-8.2,0.4-10.3c0-0.1,0.2-0.5,0.2-0.7
			c0.7,1,2,2,2.7,1c0.4-0.4,0.4-0.9,0.4-1.4c0.3,0.2,0.3,0.2,0.6,0.4C-9.3-4.5-9-4.5-9-4.1c0,0.4-0.9,1.2-1.1,2.3
			c0,0-0.6,9.5-0.8,10.6C-11,9.5-11.2,14-11.2,17.3z"/>
		<path class="st3" d="M-10.3-6.5c-0.5-1.4,0-2.4,0.9-3.1c-0.1,0.1-0.2,0.2-0.2,0.2s2-0.9,2.6-0.6c0.2,0.1,0.3,0.5,0.1,0.6
			c-1.2,0.6-2,1.1-1.9,1.2c0,0,1-0.5,1.4-0.4c0.3,0.1,0.3,0.2,0.3,0.3c0.2,0.4-1.6,1-2.1,1.9c0,0,0.2,1.7,0.1,2.6
			c-0.3-0.2-0.5-0.9-0.8-1.1C-9.9-5.6-10.1-6.1-10.3-6.5z"/>
		<path class="st0" d="M-7.8-10.5c-0.7,0.3-1.3,0.8-1.6,1.1c-0.9,0.7-1.3,1.9-0.8,3.4c0.3,0.8,0.7,1.6-0.1,2.6
			c-0.7,1-2.2,0.2-2.9-0.8c0.2-2.2,2-6.1,2.8-6.1c0,0,2-0.8,2.5-0.7C-7.6-11-7.3-10.7-7.8-10.5z"/>
		<path class="st0" d="M-9.6-7.4C-9.1-8-9.3-8.8-8.8-9c0.5-0.1,0.6,1.1,0.2,2.1c-0.4,1-0.2,2-0.2,2S-8.8-4.4-9-3.9
			c-1.2,2.5-4,0.4-1.4-2.8C-10.5-6.8-10-6.7-9.6-7.4z"/>
	</g>
	<rect x="-50" y="-75" class="st4" width="100" height="150"/>
	<path class="st0" d="M-11.3,38c-0.1,0.6,6.2,4.8,6.7,5.9c0.3,0.6,0.5,7.4,0.4,9.3c1.2-1.5,4.3-4.3,6.1-3.3
		c-0.1-1.2,0.3-5.5,0.6-6.3c0.3-0.8,5.1-4.1,5-4.8c-0.6-4.6-1.7-7.7-1.7-11.9C6,23.6,6,17.5,6.2,16.5c0.4-2-0.5-6.2-0.7-7.5
		s-9-3.7-13.4,0.5c0,0,0.2,4,0,9.2c-0.1,2.9-0.1,7.6-0.2,10.2C-7.9,30.8-11,35.9-11.3,38z"/>
	<path class="st3" d="M-7.1,30.8c0-0.2,0.2-0.7,0.6-0.7c0.3,0,0.6,0.5,0.6,0.7s-0.2,0.3-0.6,0.3C-6.9,31.1-7.1,31-7.1,30.8z"/>
	<path class="st3" d="M3.3,30.9c0-0.2,0.2-0.6,0.5-0.6s0.5,0.4,0.5,0.6c0,0.2-0.2,0.3-0.5,0.3S3.3,31.1,3.3,30.9z"/>
	<path class="st5" d="M-0.6,62.8c0,0-0.5,0.2-1.9,0.2c-1.4-0.1-3.1-2-2.7-5.3c0,0-0.2,0.2-0.1-1c0-0.3,0.5-2.1,0.5-3.4
		c0,0,1.2-3,2.9-1.7c1.6,1.3,3.9-0.8,3.9-0.8s1-0.1,1,0c0,0,0.3-0.2,0.4,0.7c0.1,0.6,0.8,3.9,1.2,6.7c0.2,1.2,0.1,1.9,0.1,1.9
		s0,0.5-0.1,0.9c-0.1,0.4-1.6,2-2.5,2.3c-0.5,0.2-1,0.3-1.6,0.1C0.1,63.2-0.6,62.8-0.6,62.8z"/>
	<path class="st3" d="M-3.8,51.3c-0.1,1.4,6.1,6.2,5.6-1.6c0,0,0.1,0.9,0-0.8C1.3,46.7-3.5,48.1-3.8,51.3z"/>
	<path class="st0" d="M4.4,57.3c0,0-0.5-4.6-1-6.2c-0.2-0.5-0.9-2.3-2-2.7C-0.1,47.9-3.2,49-4,52.2c-0.4,1.5-0.4,4.7-0.2,5.5
		c0,0.1,1.6,3.8,4.6,3.5C3.7,60.8,4.3,61.2,4.4,57.3z"/>
	<path class="st3" d="M-6.7,54c-0.3,0.5-0.8,2.9,0,4s2.1,0.1,2.3-0.3c0.2-0.3,0.1-4.6,0.1-4.6S-6.4,53.4-6.7,54z"/>
	<path class="st3" d="M5.8,56.4c0.2-1,0-2.7-0.6-3.4s-1.4-0.2-1.4-0.2L4.4,57C4.4,57,5.6,57.5,5.8,56.4z"/>
	<path class="st6" d="M-5.9,56.4c0,0,0,0.9,0.9,0.8c0.9-0.1,0.5-1.6,0.5-1.6s-0.9,0.3-0.9-0.4s0.7-0.7,0.7-0.7"/>
	<path class="st6" d="M5.4,55.6c0,0,0.1,0.5-0.4,0.5c-0.8,0-0.8-1.5-0.8-1.5s0.8,0.2,0.6-0.5c-0.1-0.4-0.6-0.2-0.6-0.2"/>
	<path class="st7" d="M3,56.3c0-0.1,0.1-0.1,0.1-0.2c0-0.3-0.1-0.5-0.4-0.5c-0.3,0-0.5,0.1-0.5,0.4c0,0.1,0,0.1,0,0.2
		C2.5,56.2,2.7,56.2,3,56.3z"/>
	<path class="st8" d="M-2.4,53.7c0.2-0.6,0.2-0.8,0.9-0.6C-2.3,52.7-2.5,53.9-2.4,53.7z"/>
	<path class="st9" d="M-0.6,57.9c0,0-0.3,0.7-1.4,0.5"/>
	<path class="st9" d="M3.4,58.2c0,0-0.7,0.4-1.4-0.4"/>
	<g>
		<ellipse transform="matrix(0.9853 -0.1708 0.1708 0.9853 -9.53 1.2432)" class="st1" cx="2.5" cy="56" rx="0.1" ry="0.1"/>
	</g>
	<path class="st7" d="M-0.4,56.2c0-0.1,0-0.1,0-0.2c-0.1-0.3-0.3-0.4-0.6-0.3c-0.2,0.1-0.4,0.3-0.3,0.6c0,0.1,0.1,0.1,0.1,0.2
		C-0.9,56.4-0.7,56.3-0.4,56.2z"/>
	<g>
		<ellipse transform="matrix(0.2834 -0.959 0.959 0.2834 -54.6019 39.3295)" class="st1" cx="-1" cy="56.2" rx="0.1" ry="0.1"/>
	</g>
	<path class="st5" d="M-4.3,58.1c0,0-0.1-0.2-0.1-0.3l0.1-1.1c0,0,1.9,4.9,3.3,4.6c1.4-0.3,2-0.8,2-0.8s1.7,1,2,0.8
		c0,0-3.5,1.6-5.2,0.5C-3.9,60.7-4.3,58.1-4.3,58.1z"/>
	<path class="st3" d="M2,53.5c0,0,0.7,0.9-0.4,0.9c-1.1,0.1-1.7,0.1-1.7-0.3c0-0.2,0.1-0.3,0.2-0.5C0.2,53.4,2,53.5,2,53.5z"/>
	<path class="st5" d="M1,60.4c0,0-0.1,0.1-0.4,0.1s-0.6-0.3-0.8-0.6c0-0.1-0.1-0.2-0.1-0.2s0.1,0.1,0.2,0.3C0.5,60.6,1,60.4,1,60.4z
		"/>
	<path class="st10" d="M1,60.4c0,0-0.2,0.3-0.4,0.3c-0.2,0-0.8-0.5-0.8-0.7s-0.1-0.5-0.1-0.5s0.2,0.3,0.3,0.4
		c0.1,0.2,0.3,0.4,0.6,0.5c0,0,0.1,0.1,0.3,0L1,60.4z"/>
	<path class="st5" d="M1.6,60.6c0.2,0,0.4-0.1,0.7-0.6c0,0-0.4,0.5-0.7,0.5S1,60.4,1,60.4S1.3,60.6,1.6,60.6z"/>
	<path class="st10" d="M1.6,60.9c0.3,0,1-0.6,0.9-1.2c0,0-0.6,1-0.9,0.9S1,60.4,1,60.4S1.4,60.9,1.6,60.9z"/>
</symbol>
<symbol  id="walk2_x5F_4" viewBox="-50 -75 100 150">
	<path class="st0" d="M-10.5-54.5c0-0.2-0.1-0.6-0.1-0.7c0.3-0.4,7.1-3.5,7.7-3.5c0.8,0-0.9-2.2-3.4-1.7c-0.6,0.1-7.5,3.5-7.5,4.1
		c-0.2,0.6,0.4,1.7,0.4,1.7C-12.8-53.7-10.4-53.4-10.5-54.5z"/>
	<path class="st0" d="M-12.5-52.2c1,9.2,1.9,21.6,4.9,27.7c1.2,2.6,4,1.8,4.8,1.4c0.2-0.1,0.6-0.9,0.3-1.9
		c-0.9-2.5-1.1-3.6-3.1-10.4C-7.2-41-10.3-54.8-10.5-55c-0.6-0.9-2.5-0.9-2.8-0.3C-13.4-55.1-12.7-53.7-12.5-52.2z"/>
	<path class="st0" d="M6.1-60.3c-1.7,5.9-7.6,23.4-7,30.4c0.1,1.6,2.4,2.4,3.3,2.4c0.9,0,1.5-0.6,1.6-2c0.1-1.6,0.6-6.1,1.4-11.1
		C6.1-46,7.4-52.8,8-56.7c0.3-1.8,0.9-3.6,0.9-3.8c0.3-1.1-2.3-2.3-2.5-1.5C6.4-61.9,6.2-60.7,6.1-60.3z"/>
	<path class="st0" d="M6.6-61.8c-0.1,0.4,2.1,2.1,2.3,1.8C8.9-60.2,9-60.4,9-60.4c0.4-0.4,7.5,1.7,8,1.7c0.7,0.1-0.4-3.1-2.4-3.9
		c-1.2-0.5-5.7-1.3-7.1-1.3c-0.5,0-0.5,0.5-0.6,0.9C6.8-62.8,6.7-62.1,6.6-61.8z"/>
	<path class="st0" d="M-8.8,0.5c0,0.2,0.6,6.1,0.9,7.4c0.9,3.6,13.3,3.7,13.6,0c0.1-1.5,0.8-8.1,0.7-8.4c-0.3-1.4-6.6-4-6.6-4
		c-1.1-0.2-1.3-0.2-1.9,0.2C-3.8-3.1-8.5-2.3-8.8,0.5z"/>
	<path class="st0" d="M-5.3-9.2C-5.5-8-6.5-1.9-6.2-1.6c1.6,1.4,6.8-2.1,7.4-3.8c0.2-0.5,2-12.7,2.5-17.4c0.5-4.8,0.7-8.2,0.5-8.7
		c-0.3-1-0.9-1.8-1.9-1.7c-0.9,0.2-2.8,1.4-3,2.1C-0.7-31.2-4.9-12-5.3-9.2z"/>
	<path class="st0" d="M3.7-5.9C0.9-15.4-2.4-25-3.4-27.2C-3.6-27.7-4.5-29-5-29c-1,0.1-2.6,1.2-2.9,3.1c0,0.4,5.1,23.7,5.7,25.1
		c1.1,2.8,7.6,3.2,7.9,1.5C5.8,0.5,4.5-3.3,3.7-5.9z"/>
	<path class="st0" d="M7.4,37.5c0.6-0.4,1.1-17.1,1.7-19c0.1-0.3,0.2-0.8,0.3-1.4c0.1-1.6-3.4-2.1-4.1-1c-0.3,1.6-0.6,3.2-0.8,3.7
		c-0.4,1-1.4,11.3-0.6,12.5C4.5,33.1,6.3,38.1,7.4,37.5z"/>
	<path class="st0" d="M-11.1,36.8C-11.1,36.9-11.1,36.9-11.1,36.8c3.1-2.5,2.2-5.9,2.1-6.3c-0.6-2.4-2.5-9.8-3.8-14.4
		c-0.8-2-4.1-0.4-3.7,1.3C-15,24.1-11.8,36.4-11.1,36.8z"/>
	<g>
		<path class="st0" d="M5.4,15.9c-0.4,2.8,2.8,3.6,3.8,1.9c0.9-2.8,2.1-8.5,2.5-11.1c0.5-3.1,2.7-7.8,3.5-9.7c0.1-0.1,0-0.6,0.1-0.7
			c-1,0.7-2.6,1.1-2.9-0.1c-0.2-0.6-0.1-1,0.2-1.4c-0.4,0.1-0.4,0.1-0.7,0.1c0,0.2-0.3,0-0.5,0.4c-0.2,0.4,0.3,1.4,0.2,2.5
			c0,0-3.1,9-3.2,10.1C8.2,8.7,6.6,12.9,5.4,15.9z"/>
		<path class="st3" d="M13.5-6.4c1-1.1,0.9-2.2,0.3-3.2C13.9-9.4,14-9.3,14-9.3s-1.5-1.6-2.2-1.6c-0.2,0-0.4,0.3-0.3,0.5
			c0.9,1,1.5,1.8,1.4,1.8c0,0-0.7-0.9-1.2-1c-0.3-0.1-0.3,0.1-0.4,0.2c-0.3,0.3,1.1,1.5,1.2,2.6c0,0-0.8,1.5-1,2.4
			c0.4,0,0.8-0.7,1.1-0.7C12.8-5.7,13.2-6.1,13.5-6.4z"/>
		<path class="st0" d="M12.7-11c0.5,0.6,0.9,1.2,1.1,1.6c0.6,1,0.5,2.3-0.5,3.4c-0.6,0.6-1.2,1.2-0.9,2.4c0.3,1.2,1.9,1.1,2.9,0.4
			c0.7-2.1,0.5-6.4-0.3-6.7c0,0-1.6-1.5-2-1.6C12.7-11.6,12.3-11.4,12.7-11z"/>
		<path class="st0" d="M13.2-7.5C13-8.2,13.4-8.9,13-9.3c-0.4-0.3-1,0.8-1,1.9c0,1-0.6,1.9-0.6,1.9s0,0.4,0,1
			c0.1,2.7,3.5,1.9,2.4-2.1C13.8-6.6,13.3-6.7,13.2-7.5z"/>
	</g>
	<path class="st1" d="M6.2,6.6c0,0-7.3-1.8-11.5-1.2c-1.1,0.2-2,0.5-2.5,1c0,0-1,1.3-1.6-9s0.2-18.4,0.2-18.4s11.9-3.8,18.1-0.8
		C9.1-21.6,8.3-6,7.9-2C7.6,2.1,6.2,6.6,6.2,6.6z"/>
	<path class="st2" d="M1,5C1.5,2.7,2-22.1,2-22.1l-0.8,0.2L1.3-3.2L0.8,5.5L1,5z"/>
	<g>
		<path class="st0" d="M-12.6,16.8c-0.7,2.8-4,2.2-4.2,0.3c0.2-3,1.3-8.7,1.8-11.2c0.7-3.1,0.5-8.2,0.4-10.3c0-0.1,0.2-0.5,0.2-0.7
			c0.7,1,2,2,2.7,1c0.4-0.4,0.4-0.9,0.4-1.4c0.3,0.2,0.3,0.2,0.6,0.4c0,0.2,0.3,0.1,0.3,0.6c0,0.4-0.9,1.2-1.1,2.3
			c0,0-0.6,9.5-0.8,10.6C-12.4,9.1-12.6,13.5-12.6,16.8z"/>
		<path class="st3" d="M-11.7-7c-0.5-1.4,0-2.4,0.9-3.1C-10.9-10-11-9.9-11-9.9s2-0.9,2.6-0.6c0.2,0.1,0.3,0.5,0.1,0.6
			c-1.2,0.6-2,1.1-1.9,1.2c0,0,1-0.5,1.4-0.4C-8.5-9.2-8.5-9-8.5-8.9c0.2,0.4-1.6,1-2.1,1.9c0,0,0.2,1.7,0.1,2.6
			c-0.3-0.2-0.5-0.9-0.8-1.1C-11.3-6.1-11.5-6.6-11.7-7z"/>
		<path class="st0" d="M-9.2-11c-0.7,0.3-1.3,0.8-1.6,1.1c-0.9,0.7-1.3,1.9-0.8,3.4c0.3,0.8,0.7,1.6-0.1,2.6c-0.7,1-2.2,0.2-2.9-0.8
			c0.2-2.2,2-6.1,2.8-6.1c0,0,2-0.8,2.5-0.7C-8.9-11.5-8.7-11.2-9.2-11z"/>
		<path class="st0" d="M-10.9-7.8c0.4-0.6,0.3-1.5,0.8-1.6c0.5-0.1,0.6,1.1,0.2,2.1c-0.4,1-0.2,2-0.2,2s-0.1,0.4-0.4,0.9
			c-1.2,2.5-4,0.4-1.4-2.8C-11.8-7.2-11.4-7.2-10.9-7.8z"/>
	</g>
	<rect x="-50" y="-75" class="st4" width="100" height="150"/>
	<path class="st0" d="M-11.3,36.4c-0.1,0.6,6.2,4.8,6.7,5.9c0.3,0.6,0.5,7.4,0.4,9.3c1.2-1.5,4.3-4.3,6.1-3.3
		c-0.1-1.2,0.3-5.5,0.6-6.3c0.3-0.8,5.1-4.1,5-4.8C7,32.7,5.8,29.5,5.9,25.3C6,22,6,16,6.2,14.9c0.4-2-0.5-6.2-0.7-7.5
		s-9-3.7-13.4,0.5c0,0,0.2,4,0,9.2C-7.9,20-7.9,24.7-8,27.3C-7.9,29.2-10.9,34.3-11.3,36.4z"/>
	<path class="st3" d="M-7.1,29.2c0-0.2,0.2-0.7,0.6-0.7S-6,29.1-6,29.2c0,0.2-0.2,0.3-0.6,0.3S-7.1,29.4-7.1,29.2z"/>
	<path class="st3" d="M3.4,29.4c0-0.2,0.2-0.6,0.5-0.6s0.5,0.4,0.5,0.6c0,0.2-0.2,0.3-0.5,0.3S3.4,29.5,3.4,29.4z"/>
	<path class="st5" d="M-0.6,61.3c0,0-0.5,0.2-1.9,0.2c-1.4-0.1-3.1-2-2.7-5.3c0,0-0.2,0.2-0.1-1c0-0.3,0.5-2.1,0.5-3.4
		c0,0,1.2-3,2.9-1.7c1.6,1.3,3.9-0.8,3.9-0.8s1-0.1,1,0c0,0,0.3-0.2,0.4,0.7c0.1,0.6,0.8,3.9,1.2,6.7c0.2,1.2,0.1,1.9,0.1,1.9
		s0,0.5-0.1,0.9c-0.1,0.4-1.6,2-2.5,2.3c-0.5,0.2-1,0.3-1.6,0.1C0.2,61.7-0.6,61.3-0.6,61.3z"/>
	<path class="st3" d="M-3.8,49.7c-0.1,1.4,6.1,6.2,5.6-1.6c0,0,0.1,0.9,0-0.8C1.4,45.2-3.5,46.5-3.8,49.7z"/>
	<path class="st0" d="M4.5,55.8c0,0-0.5-4.6-1-6.2c-0.2-0.5-0.9-2.3-2-2.7C0,46.4-3.2,47.4-4,50.6c-0.4,1.5-0.4,4.7-0.2,5.5
		c0,0.1,1.6,3.8,4.6,3.5C3.8,59.3,4.3,59.6,4.5,55.8z"/>
	<path class="st3" d="M-6.6,52.4c-0.3,0.5-0.8,2.9,0,4s2.1,0.1,2.3-0.3s0.1-4.6,0.1-4.6S-6.4,51.9-6.6,52.4z"/>
	<path class="st3" d="M5.8,54.9c0.2-1,0-2.7-0.6-3.4s-1.4-0.2-1.4-0.2l0.6,4.1C4.4,55.4,5.6,55.9,5.8,54.9z"/>
	<path class="st6" d="M-5.9,54.8c0,0,0,0.9,0.9,0.8c0.9-0.1,0.5-1.6,0.5-1.6s-0.9,0.3-0.9-0.4c0-0.7,0.7-0.7,0.7-0.7"/>
	<path class="st6" d="M5.5,54.1c0,0,0.1,0.5-0.4,0.5c-0.8,0-0.8-1.5-0.8-1.5s0.8,0.2,0.6-0.5c-0.1-0.4-0.6-0.2-0.6-0.2"/>
	<path class="st7" d="M3.1,54.7c0-0.1,0.1-0.1,0.1-0.2C3.2,54.3,3,54,2.8,54c-0.3,0-0.5,0.1-0.5,0.4c0,0.1,0,0.1,0,0.2
		C2.5,54.6,2.8,54.7,3.1,54.7z"/>
	<path class="st8" d="M-2.3,52.1c0.2-0.6,0.2-0.8,0.9-0.6C-2.2,51.1-2.4,52.4-2.3,52.1z"/>
	<path class="st9" d="M-0.6,56.4c0,0-0.3,0.7-1.4,0.5"/>
	<path class="st9" d="M3.4,56.7c0,0-0.7,0.4-1.4-0.4"/>
	<g>
		<ellipse transform="matrix(0.9853 -0.1708 0.1708 0.9853 -9.2649 1.2282)" class="st1" cx="2.5" cy="54.4" rx="0.1" ry="0.1"/>
	</g>
	<path class="st7" d="M-0.3,54.7c0-0.1,0-0.1,0-0.2c-0.1-0.3-0.3-0.4-0.6-0.3c-0.2,0.1-0.4,0.3-0.3,0.6c0,0.1,0.1,0.1,0.1,0.2
		C-0.9,54.8-0.6,54.8-0.3,54.7z"/>
	<g>
		<ellipse transform="matrix(0.2834 -0.959 0.959 0.2834 -53.0851 38.2644)" class="st1" cx="-0.9" cy="54.7" rx="0.1" ry="0.1"/>
	</g>
	<path class="st5" d="M-4.2,56.5c0,0-0.1-0.2-0.1-0.3l0.1-1.1c0,0,1.9,4.9,3.3,4.6c1.4-0.3,2-0.8,2-0.8s1.7,1,2,0.8
		c0,0-3.5,1.6-5.2,0.5C-3.9,59.1-4.2,56.5-4.2,56.5z"/>
	<path class="st3" d="M2,51.9c0,0,0.7,0.9-0.4,0.9c-1.1,0.1-1.7,0.1-1.7-0.3c0-0.2,0.1-0.3,0.2-0.5S2,51.9,2,51.9z"/>
	<path class="st5" d="M1.1,58.8c0,0-0.1,0.1-0.4,0.1s-0.6-0.3-0.8-0.6c0-0.1-0.1-0.2-0.1-0.2s0.1,0.1,0.2,0.3
		C0.5,59.1,1.1,58.8,1.1,58.8z"/>
	<path class="st10" d="M1.1,58.8c0,0-0.2,0.3-0.4,0.3s-0.8-0.5-0.8-0.7s-0.1-0.5-0.1-0.5s0.2,0.3,0.3,0.4c0.1,0.2,0.3,0.4,0.6,0.5
		c0,0,0.1,0.1,0.3,0L1.1,58.8z"/>
	<path class="st5" d="M1.6,59.1c0.2,0,0.4-0.1,0.7-0.6c0,0-0.4,0.5-0.7,0.5S1,58.8,1,58.8S1.4,59.1,1.6,59.1z"/>
	<path class="st10" d="M1.6,59.3c0.3,0,1-0.6,0.9-1.2c0,0-0.6,1-0.9,0.9C1.3,59,1,58.9,1,58.9S1.5,59.4,1.6,59.3z"/>
</symbol>
<g id="walk_x5F_1" class="st11">
</g>
<g id="walk2_x5F_01" class="st11">
</g>
<g id="walk_x5F_2" class="st11">
</g>
<g id="walk2_x5F_2" class="st11">
</g>
<g id="walk_x5F_3" class="st11">
</g>
<g id="walk2_x5F_3">
</g>
<g id="walk_x5F_4" class="st11">
</g>
<g id="Layer_8" class="st11">
</g>
<g id="Layer_9">
</g>
<g id="laugh1">
</g>
<g id="laugh2">
</g>
<g id="laugh3">
</g>
<g id="sprite">
	<g>

			<use xlink:href="#walk2_x5F_1"  width="100" height="150" x="-50" y="-75" transform="matrix(1 0 0 -1 50 375)" style="overflow:visible;"/>

			<use xlink:href="#walk2_x5F_2_1_"  width="100" height="150" x="-50" y="-75" transform="matrix(1 0 0 -1 150 375)" style="overflow:visible;"/>

			<use xlink:href="#walk2_x5F_3_1_"  width="100" height="150" x="-50" y="-75" transform="matrix(1 0 0 -1 250 375)" style="overflow:visible;"/>

			<use xlink:href="#walk2_x5F_4"  width="100" height="150" x="-50" y="-75" transform="matrix(1 0 0 -1 350 375)" style="overflow:visible;"/>
	</g>
	<g>

			<use xlink:href="#laugh1_1_"  width="100" height="150" x="-50" y="-75" transform="matrix(1 0 0 -1 50 525)" style="overflow:visible;"/>

			<use xlink:href="#laugh2_1_"  width="100" height="150" x="-50" y="-75" transform="matrix(1 0 0 -1 150 525)" style="overflow:visible;"/>

			<use xlink:href="#laugh3_1_"  width="100" height="150" x="-50" y="-75" transform="matrix(1 0 0 -1 250 525)" style="overflow:visible;"/>

			<use xlink:href="#laugh2_1_"  width="100" height="150" x="-50" y="-75" transform="matrix(1 0 0 -1 350 525)" style="overflow:visible;"/>
	</g>

		<use xlink:href="#content_1_"  width="100" height="150" x="-50" y="-75" transform="matrix(1 0 0 -1 50 225)" style="overflow:visible;"/>

		<use xlink:href="#start_1_"  width="100" height="150" x="-50" y="-75" transform="matrix(1 0 0 -1 50 75)" style="overflow:visible;"/>
</g>
<g id="content">
</g>
<g id="start">
</g>
</svg>
