<?xml version="1.0" standalone="no"?>
<!DOCTYPE svg PUBLIC "-//W3C//DTD SVG 20010904//EN"
 "http://www.w3.org/TR/2001/REC-SVG-20010904/DTD/svg10.dtd">
<svg version="1.0" xmlns="http://www.w3.org/2000/svg"
 width="1024.000000pt" height="1024.000000pt" viewBox="0 0 1024.000000 1024.000000"
 preserveAspectRatio="xMidYMid meet">
<metadata>
Created by potrace 1.11, written by Peter Selinger 2001-2013
</metadata>
<g transform="translate(0.000000,1024.000000) scale(0.100000,-0.100000)"
fill="#000000" stroke="none">
<path d="M1449 10236 c-2 -2 -23 -6 -46 -9 -132 -19 -340 -85 -477 -154 -91
-46 -232 -133 -281 -174 -179 -150 -291 -271 -388 -419 -72 -110 -161 -299
-204 -435 l-38 -120 -3 -3780 c-3 -4222 -10 -3818 69 -4038 145 -410 452 -755
839 -944 152 -75 189 -88 409 -150 14 -4 1709 -9 3766 -10 3375 -2 3747 -1
3810 13 256 58 519 184 715 343 79 65 239 229 277 285 15 23 31 43 34 46 17
14 103 157 144 240 55 112 117 291 142 410 17 81 18 257 18 3765 0 2024 -3
3699 -7 3722 -12 71 -36 165 -63 253 -32 101 -140 330 -187 395 -139 192 -251
312 -393 421 -50 38 -99 75 -110 81 -78 48 -213 118 -280 144 -44 17 -89 35
-100 39 -25 11 -159 47 -200 55 -16 2 -41 8 -55 12 -25 8 -7383 17 -7391 9z"/>
</g>
</svg>
