<?xml version="1.0" encoding="utf-8"?>
<!-- Generator: Adobe Illustrator 22.0.0, SVG Export Plug-In . SVG Version: 6.00 Build 0)  -->
<svg version="1.1" id="Layer_1" xmlns="http://www.w3.org/2000/svg" xmlns:xlink="http://www.w3.org/1999/xlink" x="0px" y="0px"
	 viewBox="0 0 1300 1400" style="enable-background:new 0 0 1300 1400;" xml:space="preserve">
<style type="text/css">
	.st0{fill:#818080;}
	.st1{fill:#BABABA;}
	.st2{fill:none;}
	.st3{fill:#D1D1D1;}
	.st4{fill:none;stroke:#000000;stroke-miterlimit:10;}
	.st5{fill:none;stroke:#000000;stroke-linecap:round;stroke-miterlimit:10;}
	.st6{fill:#FFFFFF;stroke:#000000;stroke-miterlimit:10;}
	.st7{fill:#818080;stroke:#000000;stroke-miterlimit:10;}
	.st8{fill:#FFFFFF;}
	.st9{fill:#6D6D6D;}
	.st10{fill:#818080;stroke:#6B6B6B;stroke-miterlimit:10;}
</style>
<symbol  id="_13" viewBox="-50 -100 100 200">
	<path id="hue-13_1_" class="st0" d="M43.5-59.4c2.7,1,0.2-3.6,0.2-3.6l-9.9-17.6C20.4-92-19-81-19-81c-0.8,0.9-1.4,1.9-2,3
		c-3.1,7.9,3,12,6.2,15.4c0,0,1.7,7.2,4,8.3s3.1-1.9,3.1-1.9"/>
	<path class="st1" d="M16.5,17.5l1,2.8c0,0,2.3,6,1.5,0.2c0,0,2.5,5.8,1.6-0.2c0,0,2.7,4.2,1.4-0.8c0,0-1.2-3,1.4-0.7
		c0,0,2.2,1.5-1.7-4.1C19.8,15.2,18,16.1,16.5,17.5z"/>
	<rect id="Baggrund-13_1_" x="-50" y="-100" class="st2" width="100" height="200"/>
	<path id="armv-12_1_" class="st0" d="M33.2-7.5c-1.5-6.4-5.2-14.3-8.7-16.6c0.6,5,1.2,13.6,1.3,13.2c0,0,2,17.8,12.6,23.3
		c0.4-1.9,1.1-3.8,2.2-5.5C37.3,4.7,34.2-3.4,33.2-7.5z"/>
	<path id="bagben-16_1_" class="st1" d="M10.8,49.8c0,0,8,0.4,9.2,3.2s3.3,11.4,3.3,11.4s-2.9,10.9,6.9,8.2c0,0,9.8-0.9,7.2-3.6
		s-6.3-1.3-9-2.9c0,0,0.3-12,1.3-15.2S23.4,38.8,13.2,34"/>
	<path id="bagben-17_1_" class="st3" d="M-16.5,43.6c0,0-1.3,7.9-4.2,8.8s-11.7,2-11.7,2s-10.5-4.1-8.9,6c0,0-0.2,9.8,2.8,7.5
		s2-6.1,3.9-8.6c0,0,11.9,1.6,15,3s12.7-4.9,18.7-14.5"/>
	<path id="krop-13_1_" class="st0" d="M26.8-21.4l-35.1-9.7l-5.5,9.8C-16-17-30.5,16.3-27.5,35.4c0.1,0.9,0.4,0.6,1.3,2.6
		c2.5,5.8,7.3,7.6,12.5,9.9c7.8,3.5,16.6,6,21.7,8c3.7-2.1,9.8-5.6,11.9-8.3c2.4-2.7,5-5.4,7.7-7.9c2.2-5.8,3.4-12,3.5-18.2
		c0.2-10.3-7.8-17.1-4.8-28.2C28-13,28-16,28-21C27.9-21,26.9-21.3,26.8-21.4z"/>
	<path id="kravev-13_1_" class="st4" d="M17.6-19.2c0,0,7.5,1.9,8.8,5c0,0,5.1-8.8,1.7-14.6"/>
	<path id="skjorte-13_1_" class="st5" d="M22.3-21.8c0,0-4.2,14.4-5.9,39.5c-1.6,24.8-8.8,37.4-8.8,37.4"/>
	<path id="kraveh-13_1_" class="st4" d="M8.2-26.8c0,0,0.1,9.2,5.8,15c0,0,6.7-8.2,11.6-8.7"/>
	<path id="dut-13_1_" class="st4" d="M21.1,57.4"/>
	<path class="st3" d="M-7.7-56.2c0,0-12.3,38.5,23.6,38.5c3.8,0.1,7.5-0.5,11.1-1.6C49.9-27,43.5-59.4,43.5-59.4S16.4-71.8-7.7-56.2
		z"/>
	<ellipse transform="matrix(0.9714 -0.2373 0.2373 0.9714 11.709 2.8975)" class="st6" cx="17.9" cy="-47.2" rx="10.4" ry="10.8"/>
	<ellipse transform="matrix(0.9714 -0.2373 0.2373 0.9714 12.3629 8.5015)" class="st6" cx="41.5" cy="-47.1" rx="6" ry="6.5"/>
	<circle cx="12.5" cy="-50.8" r="1"/>
	<path class="st7" d="M26.4-29.8c0,0,0.5-5.8,6.5-5.8s4.6,6.2,4.6,6.2s-1.3,2.7-3.2-0.8s-4.3,0-4.3,0S28.3-26.9,26.4-29.8z"/>
	<path class="st4" d="M27.7-43.7c0,0-2,7.8-6.1,10"/>
	<path class="st4" d="M35.7-45.1c0,0-0.3,5,2.8,6.7"/>
	<circle cx="44.9" cy="-46.9" r="0.9"/>
	<path id="armh-14_1_" class="st0" d="M-7.7-25.8c0,0-23.6,0.2-30.8,17.1c1.5,0.4,2.9,1.5,4.4,1.9c3.1-3.8,9-9.4,16.6-8.5
		c4.8-2.5,7.1-6.7,10-10.7L-7.7-25.8z"/>
	<path class="st3" d="M-38.6-8.7l-2,3c0,0-2.8,3.5,0.8,0.8c0,0-2.3,5,1,0.8c0,0-1.6,5.3,1.4,0.8c0,0,1.4-1.8,0.9,0.3
		c0,0,0.3,2.5,2.3-3.8C-34.1-6.8-37.7-8.7-38.6-8.7z"/>
	<path class="st1" d="M38.3,12.4l2.6,1.6c0,0,5.6,3.1,1.3-0.9c0,0,5.7,2.8,1.1-1.1c0,0,4.7,1.4,0.6-1.5c0,0-2.8-1.6,0.6-1.4
		c0,0,2.7-0.2-3.9-2.1C39.3,8.6,38.6,10.5,38.3,12.4z"/>
	<path class="st0" d="M-18.4-81.1c-3.3,1.3-5.2,4.3-6.8,7.3c-1.8,2-3.1,3.1-5.9,2s-2.6-2.5-5.8-0.5c-3.3,2-3.7,0.3-6.5-0.9
		c2.4,5,7.5,1.5,9.5,5.5s8,3.9,11.3,1.7c3.3-2.2,5.3,0.6,7.6,2.9"/>
	<circle class="st8" cx="-44.3" cy="-77.5" r="5.1"/>
</symbol>
<symbol  id="blink_3" viewBox="-50 -100 100 200">
	<path class="st3" d="M20.7,58.1c0,0,7,3.9,6.9,6.8s-2,11.7-2,11.7s-9.6,9.4,3,8.5c0,0,8.6,0.9,7.5-2.6s-4.1-2.4-6.7-2.2
		c0,0,5.5-10.7,7.8-13.1s-0.3-13.6-7.5-22.4"/>
	<path class="st3" d="M-17.5,51.9c0,0,6,12,3.5,16.3s-7.4,4.3-8.9,7.5s-2.9,5.2,2,7.8s6.2,0,6.2,0s3-3-3.2-3.9c0,0,0.7-3,5.8-3.6
		s9-1.3,11.5-13.6"/>
	<path class="st0" d="M28.1-4.1c-2.4-6.2-7.4-13.7-11.2-15.3l-36.4-0.1l-2.8,11c0,0-19,14.1-14.8,32c1.5-0.6,3.2-0.5,4.7-1
		c0.2-5,1.8-13.3,9-16.9c0,0-5,26.5,2.9,44.1c0.4,0.8,0.5,0.4,1.9,2.1C-8.7,64.2,9.8,65.4,9.8,65.4s15.7-6.6,18.5-16.6
		s5.4-9.6,5.4-9.6c0.6-6.2,0.1-12.5-1.4-18.5c-2.6-10.3-12.7-14.8-12-27.2c0,0,4.5,17.3,15.7,21.3c0.1-2,0.6-3.9,1.4-5.7
		C33.9,7.3,29.7-0.2,28.1-4.1z"/>
	<path class="st0" d="M-34.4-33c0.2,1.2,0.4,2,0.4,2S-34.2-31.8-34.4-33z"/>
	<path class="st0" d="M27.6-56.2l-9.3-18C5.4-86-34.8-76.4-34.8-76.4c-5.7,7.6-1,35.7,0.4,43.4c-0.4-2.8-0.4-5.6,0.1-8.3
		c0.6-2.8,2.3-5,1.8-6.2c-1.5-3.3-0.6-3.1,0-3.9s1.5-2-0.2-3.2c-1.3-0.9-1.4-4.3,1.9-3.2c0,0,1.4,7.2,3.7,8.4s3.2-1.8,3.2-1.8
		l51.2-1.3C29.9-51.4,27.6-56.2,27.6-56.2z"/>
	<path class="st4" d="M-0.5-12.7c0,0,6.4,4.4,6.6,7.8c0,0,7.8-6.4,6.6-13.1"/>
	<path class="st5" d="M-0.6-13.2c0,0,1.3,14.8,6.8,39S9.8,65,9.8,65"/>
	<path class="st4" d="M-18.1-17.9c0,0,0.7,9.1,6.8,14.6c0,0,6.2-8.6,11-9.4"/>
	<path class="st4" d="M20.1,59.4"/>
	<circle class="st8" cx="-34.1" cy="-30.9" r="5.1"/>
	<path class="st3" d="M27.1-53.1c0,0-26.2-14.2-51.3-0.2c0,0-14.8,37.5,21,40c3.7,0.3,7.5,0,11.1-0.9C31.4-20.3,27.1-53.1,27.1-53.1
		z M-23-39c7,3,15,3,21-1C-8-36-16-36-23-39z M22.5-41.2C18-37.3,10.3-38.3,5-41C10.3-38.3,18-37.3,22.5-41.2
		C18.6-38.1,11.2-38.4,6-41C11.2-38.4,18.6-38.1,22.5-41.2c0.6-0.5,1.1-1.1,1.5-1.8C23.6-42.3,23.1-41.7,22.5-41.2z"/>
	<path class="st3" d="M22.5-41.2c0.6-0.5,1.1-1.1,1.5-1.8C23.6-42.3,23-41.8,22.5-41.2z"/>
	<path class="st3" d="M-37.1,23.5l0.2,3.6c0,0-0.2,4.5,1.1,0.2c0,0,1.1,5.3,1.3,0.1c0,0,1.8,5.3,1.6-0.2c0,0,0.1-2.3,1-0.3
		c0,0,1.7,1.9-0.4-4.4C-32.4,22.4-36.4,23-37.1,23.5z"/>
	<path class="st3" d="M36,14.9l2.8,1.2c0,0,6,2.3,1.1-1c0,0,6,1.9,0.9-1.3c0,0,4.9,0.8,0.4-1.6c0,0-3-1.1,0.3-1.5
		c0,0,2.6-0.6-4.2-1.5C36.5,11,36,12.9,36,14.9z"/>
	<path class="st6" d="M-2.4-39.8c0.6-5.6-3.4-10.7-9-11.5c-5.8-0.6-11,3.6-11.6,9.4c-0.1,1-0.1,1.9,0,2.9
		C-16.1-36.1-8.3-36-2.4-39.8z"/>
	<path class="st6" d="M-23-39c0.6,4.7,4.2,8.5,8.9,9.1c5.8,0.6,11-3.6,11.7-9.4l0,0c0-0.2,0-0.3,0-0.5C-8.3-36-16.1-36.1-23-39z"/>
	<path class="st6" d="M23.9-42.9c0.5-5.2-3.2-9.8-8.4-10.4c-5.2-0.5-9.8,3.2-10.4,8.4c-0.1,1.4,0,2.8,0.5,4.1
		C11.5-38,20-37.2,23.9-42.9z"/>
	<path class="st6" d="M5.5-40.8c1.7,4.9,7,7.6,12,5.9c3.4-1.2,5.9-4.2,6.3-7.8c0-0.1,0-0.2,0-0.2C20-37.2,11.5-38,5.5-40.8z"/>
	<path class="st7" d="M-4.5-22.5c0,0-0.2-5.8,5.8-6.5s5.3,5.6,5.3,5.6s-1,2.8-3.2-0.4S-1-23.4-1-23.4S-2.3-19.8-4.5-22.5z"/>
	<path class="st4" d="M-2.6-38.2c0,0-1.1,8-5,10.6"/>
	<path class="st4" d="M5.8-40.2c0,0,0.6,7.2,5.7,9.3"/>
	<path class="st2" d="M22.5-41.2c0.6-0.5,1.1-1.1,1.5-1.8C23.6-42.3,23-41.8,22.5-41.2z"/>
	<path class="st2" d="M-50-100v200H50v-200H-50z M-23-39c7,3,15,3,21-1C-8-36-16-36-23-39z M22.5-41.2C18-37.3,10.3-38.3,5-41
		C10.3-38.3,18-37.3,22.5-41.2C18.6-38.1,11.2-38.4,6-41C11.2-38.4,18.6-38.1,22.5-41.2c0.6-0.5,1.1-1.1,1.5-1.8
		C23.6-42.3,23.1-41.7,22.5-41.2z"/>
</symbol>
<symbol  id="blink_4" viewBox="-50 -100 100 200">
	<path class="st3" d="M20.7,58.1c0,0,7,3.9,6.9,6.8s-2,11.7-2,11.7s-9.6,9.4,3,8.5c0,0,8.6,0.9,7.5-2.6s-4.1-2.4-6.7-2.2
		c0,0,5.5-10.7,7.8-13.1s-0.3-13.6-7.5-22.4"/>
	<path class="st3" d="M-17.5,51.9c0,0,6,12,3.5,16.3s-7.4,4.3-8.9,7.5s-2.9,5.2,2,7.8s6.2,0,6.2,0s3-3-3.2-3.9c0,0,0.7-3,5.8-3.6
		s9-1.3,11.5-13.6"/>
	<path class="st0" d="M28.1-4.1c-2.4-6.2-7.4-13.7-11.2-15.3l-36.4-0.1l-2.8,11c0,0-19,14.1-14.8,32c1.5-0.6,3.2-0.5,4.7-1
		c0.2-5,1.8-13.3,9-16.9c0,0-5,26.5,2.9,44.1c0.4,0.8,0.5,0.4,1.9,2.1C-8.7,64.2,9.8,65.4,9.8,65.4s15.7-6.6,18.5-16.6
		s5.4-9.6,5.4-9.6c0.6-6.2,0.1-12.5-1.4-18.5c-2.6-10.3-12.7-14.8-12-27.2c0,0,4.5,17.3,15.7,21.3c0.1-2,0.6-3.9,1.4-5.7
		C33.9,7.3,29.7-0.2,28.1-4.1z"/>
	<path class="st0" d="M-34.4-33c0.2,1.2,0.4,2,0.4,2S-34.2-31.8-34.4-33z"/>
	<path class="st0" d="M27.6-56.2l-9.3-18C5.4-86-34.8-76.4-34.8-76.4c-5.7,7.6-1,35.7,0.4,43.4c-0.4-2.8-0.4-5.6,0.1-8.3
		c0.6-2.8,2.3-5,1.8-6.2c-1.5-3.3-0.6-3.1,0-3.9s1.5-2-0.2-3.2c-1.3-0.9-1.4-4.3,1.9-3.2c0,0,1.4,7.2,3.7,8.4s3.2-1.8,3.2-1.8
		l51.2-1.3C29.9-51.4,27.6-56.2,27.6-56.2z"/>
	<path class="st4" d="M-0.5-12.7c0,0,6.4,4.4,6.6,7.8c0,0,7.8-6.4,6.6-13.1"/>
	<path class="st5" d="M-0.6-13.2c0,0,1.3,14.8,6.8,39S9.8,65,9.8,65"/>
	<path class="st4" d="M-18.1-17.9c0,0,0.7,9.1,6.8,14.6c0,0,6.2-8.6,11-9.4"/>
	<path class="st4" d="M20.1,59.4"/>
	<circle class="st8" cx="-34.1" cy="-30.9" r="5.1"/>
	<path class="st3" d="M27.1-53.1c0,0-26.2-14.2-51.3-0.2c0,0-14.8,37.5,21,40c3.7,0.3,7.5,0,11.1-0.9C31.4-20.3,27.1-53.1,27.1-53.1
		z M-1-41h5c-9.2-2-18.8-2-28,0c9.2-2,18.8-2,28,0H-1z M4-42c7-1,15-3,22,0C19-45,11-43,4-42z"/>
	<path class="st3" d="M-37.1,23.5l0.2,3.6c0,0-0.2,4.5,1.1,0.2c0,0,1.1,5.3,1.3,0.1c0,0,1.8,5.3,1.6-0.2c0,0,0.1-2.3,1-0.3
		c0,0,1.7,1.9-0.4-4.4C-32.4,22.4-36.4,23-37.1,23.5z"/>
	<path class="st3" d="M36,14.9l2.8,1.2c0,0,6,2.3,1.1-1c0,0,6,1.9,0.9-1.3c0,0,4.9,0.8,0.4-1.6c0,0-3-1.1,0.3-1.5
		c0,0,2.6-0.6-4.2-1.5C36.5,11,36,12.9,36,14.9z"/>
	<path class="st6" d="M-23-41.2c-0.5,5.6,3.5,10.5,9,11.3c5.8,0.6,11-3.6,11.6-9.4c0.1-0.9,0.1-1.8,0-2.8
		C-9.3-42.8-16.2-42.5-23-41.2z"/>
	<path class="st6" d="M-11.4-51.3c-5.8-0.6-11,3.6-11.6,9.4l0,0c0,0.2,0,0.5,0,0.7c6.8-1.4,13.7-1.7,20.6-0.9
		C-3-46.8-6.6-50.6-11.4-51.3z"/>
	<path class="st6" d="M5.2-42.2c0.9,5.1,5.8,8.6,10.9,7.7c4.1-0.7,7.3-4,7.8-8.2v-0.1C17.8-44.5,11.2-43.1,5.2-42.2z"/>
	<path class="st6" d="M23.9-42.7c0.6-5.2-3.2-9.9-8.3-10.5S5.7-50,5.1-44.9C5-44,5-43.1,5.2-42.2C11.2-43.1,17.8-44.5,23.9-42.7z"/>
	<path d="M-18.4-41.5c-0.5-0.1-1,0.3-1.1,0.9c-0.1,0.5,0.3,1,0.9,1.1c0.5,0.1,1-0.3,1.1-0.9C-17.5-40.9-17.9-41.4-18.4-41.5
		L-18.4-41.5z"/>
	<path d="M18.6-43.5c-0.5-0.1-1,0.3-1.1,0.9c-0.1,0.5,0.3,1,0.9,1.1c0.5,0.1,1-0.3,1.1-0.9C19.5-42.9,19.1-43.4,18.6-43.5L18.6-43.5
		z"/>
	<path d="M18-43.5c0,0.1,0,0.2,0,0.3c0,0.4,0.3,0.7,0.7,0.7c0.4,0,0.7-0.3,0.7-0.7c0-0.2-0.1-0.3-0.2-0.4L18-43.5z"/>
	<path d="M17.1-43.6c0.1,0.2,0.3,0.3,0.5,0.3c0.3,0,0.6-0.1,0.7-0.3H17.1z"/>
	<path class="st7" d="M-4.5-22.5c0,0-0.2-5.8,5.8-6.5s5.3,5.6,5.3,5.6s-1,2.8-3.2-0.4S-1-23.4-1-23.4S-2.3-19.8-4.5-22.5z"/>
	<path class="st4" d="M-2.6-38.2c0,0-1.1,8-5,10.6"/>
	<path class="st4" d="M5.8-40.2c0,0,0.6,7.2,5.7,9.3"/>
	<path class="st2" d="M-50-100v200H50v-200H-50z M-1-41h5c-9.2-2-18.8-2-28,0c9.2-2,18.8-2,28,0H-1z M4-42c7-1,15-3,22,0
		C19-45,11-43,4-42z"/>
</symbol>
<symbol  id="blink_5" viewBox="-50 -100 100 200">
	<path class="st3" d="M20.7,58.1c0,0,7,3.9,6.9,6.8s-2,11.7-2,11.7s-9.6,9.4,3,8.5c0,0,8.6,0.9,7.5-2.6s-4.1-2.4-6.7-2.2
		c0,0,5.5-10.7,7.8-13.1s-0.3-13.6-7.5-22.4"/>
	<path class="st3" d="M-17.5,51.9c0,0,6,12,3.5,16.3s-7.4,4.3-8.9,7.5s-2.9,5.2,2,7.8s6.2,0,6.2,0s3-3-3.2-3.9c0,0,0.7-3,5.8-3.6
		s9-1.3,11.5-13.6"/>
	<path class="st0" d="M28.1-4.1c-2.4-6.2-7.4-13.7-11.2-15.3l-36.4-0.1l-2.8,11c0,0-19,14.1-14.8,32c1.5-0.6,3.2-0.5,4.7-1
		c0.2-5,1.8-13.3,9-16.9c0,0-5,26.5,2.9,44.1c0.4,0.8,0.5,0.4,1.9,2.1C-8.7,64.2,9.8,65.4,9.8,65.4s15.7-6.6,18.5-16.6
		s5.4-9.6,5.4-9.6c0.6-6.2,0.1-12.5-1.4-18.5c-2.6-10.3-12.7-14.8-12-27.2c0,0,4.5,17.3,15.7,21.3c0.1-2,0.6-3.9,1.4-5.7
		C33.9,7.3,29.7-0.2,28.1-4.1z"/>
	<path class="st0" d="M27.3-52.6c2.6,1.1,0.3-3.6,0.3-3.6l-9.3-18C5.4-86-34.8-76.4-34.8-76.4C-41.4-67.6-34-31-34-31
		c-0.8-3.4-0.9-6.9-0.3-10.3c0.6-2.8,2.3-5,1.8-6.2c-1.5-3.3-0.6-3.1,0-3.9s1.5-2-0.2-3.2c-1.3-0.9-1.4-4.3,1.9-3.2
		c0,0,1.4,7.2,3.7,8.4s3.2-1.8,3.2-1.8"/>
	<path class="st4" d="M-0.5-12.7c0,0,6.4,4.4,6.6,7.8c0,0,7.8-6.4,6.6-13.1"/>
	<path class="st5" d="M-0.6-13.2c0,0,1.3,14.8,6.8,39S9.8,65,9.8,65"/>
	<path class="st4" d="M-18.1-17.9c0,0,0.7,9.1,6.8,14.6c0,0,6.2-8.6,11-9.4"/>
	<path class="st4" d="M20.1,59.4"/>
	<circle class="st8" cx="-34.1" cy="-30.9" r="5.1"/>
	<path class="st3" d="M-24.1-53.3c0,0-14.8,37.5,21,40c3.7,0.3,7.5,0,11.1-0.9c23.4-6.2,19.1-38.9,19.1-38.9S0.9-67.3-24.1-53.3z"/>
	<path class="st3" d="M-37.1,23.5l0.2,3.6c0,0-0.2,4.5,1.1,0.2c0,0,1.1,5.3,1.3,0.1c0,0,1.8,5.3,1.6-0.2c0,0,0.1-2.3,1-0.3
		c0,0,1.7,1.9-0.4-4.4C-32.4,22.4-36.4,23-37.1,23.5z"/>
	<path class="st3" d="M36,14.9l2.8,1.2c0,0,6,2.3,1.1-1c0,0,6,1.9,0.9-1.3c0,0,4.9,0.8,0.4-1.6c0,0-3-1.1,0.3-1.5
		c0,0,2.6-0.6-4.2-1.5C36.5,11,36,12.9,36,14.9z"/>
	
		<ellipse transform="matrix(0.9922 -0.1246 0.1246 0.9922 4.9601 -1.8986)" class="st6" cx="-12.7" cy="-40.6" rx="10.4" ry="10.8"/>
	<circle class="st6" cx="14.5" cy="-43.8" r="9.5"/>
	<circle cx="-18.5" cy="-43.5" r="1"/>
	<circle cx="17.7" cy="-46.9" r="0.7"/>
	<path class="st7" d="M-4.5-22.5c0,0-0.2-5.8,5.8-6.5s5.3,5.6,5.3,5.6s-1,2.8-3.2-0.4S-1-23.4-1-23.4S-2.3-19.8-4.5-22.5z"/>
	<path class="st4" d="M-2.6-38.2c0,0-1.1,8-5,10.6"/>
	<path class="st4" d="M5.8-40.2c0,0,0.6,7.2,5.7,9.3"/>
	<rect id="background_7_" x="-50" y="-100" class="st2" width="100" height="200"/>
</symbol>
<symbol  id="drej_x5F_1" viewBox="-50 -100 100 200">
	<path class="st3" d="M20.7-58.1c0,0,7-3.9,6.9-6.8s-2-11.7-2-11.7s-9.5-9.4,3-8.5c0,0,8.6-0.9,7.5,2.6C35-79,32-80.1,29.4-80.3
		c0,0,5.5,10.7,7.8,13.1s-0.3,13.6-7.5,22.5"/>
	<path class="st3" d="M-17.5-51.9c0,0,5.9-12,3.5-16.3s-7.4-4.3-8.9-7.5s-2.9-5.2,2-7.8c4.8-2.6,6.2,0,6.2,0s3,3-3.2,3.9
		c0,0,0.7,3,5.8,3.6S-3-74.7-0.6-62.4"/>
	<path class="st0" d="M28.1,4.1c-2.4,6.2-7.4,13.7-11.2,15.3l-36.4,0.1l-2.8-11c0,0-19-14.1-14.8-32c1.5,0.6,3.2,0.5,4.7,1.1
		c0.2,5,1.8,13.3,9,16.9c0,0-5-26.5,2.9-44.1c0.4-0.8,0.5-0.4,1.9-2.2C-8.7-64.2,9.8-65.5,9.8-65.5s15.7,6.6,18.5,16.6
		c2.8,10.1,5.4,9.6,5.4,9.6s1.2,8.2-1.4,18.5S19.6-6,20.3,6.4c0,0,4.5-17.3,15.7-21.3c0.1,1.9,0.5,3.8,1.4,5.7
		C33.9-7.4,29.7,0.2,28.1,4.1z"/>
	<path class="st0" d="M22.9,59.1c2.8-0.4-0.7,3.5-0.7,3.5L8.3,77.3c-15.7,7.8-51.6-12.6-51.6-12.6c-3.9-10.3,11.8-44.9,11.8-44.9
		s-1.1,6.1-1.5,11.3c-0.2,2.9,0.8,5.5,0,6.5c-2.4,2.8-1.4,2.8-1.1,3.7c0.3,0.8,0.8,2.3-1.1,3c-1.5,0.5-2.6,3.8,0.9,3.6
		c0,0,3.4-6.6,5.9-7c2.5-0.5,2.6,2.6,2.6,2.6"/>
	<path class="st4" d="M-0.5,12.7c0,0,6.4-4.4,6.6-7.8c0,0,7.8,6.4,6.6,13.1"/>
	<path class="st5" d="M-0.6,13.2c0,0,1.3-14.8,6.8-38.9S9.8-65,9.8-65"/>
	<path class="st4" d="M-18.1,17.9c0,0,0.7-9.1,6.8-14.6c0,0,6.2,8.6,11,9.4"/>
	<path class="st4" d="M20.1-59.4"/>
	<circle class="st8" cx="-31.1" cy="16.9" r="5.1"/>
	<path class="st3" d="M-26.9,45.7c0,0-2.8-40.3,32.1-31.8c4.2,1,7.6,2.5,10.4,4.2C36,30.9,22,60.9,22,60.9S-7.3,66.5-26.9,45.7z"/>
	<path class="st3" d="M-37.1-23.5l0.2-3.6c0,0-0.2-4.5,1.1-0.1c0,0,1.1-5.4,1.3-0.1c0,0,1.9-5.3,1.6,0.2c0,0,0.1,2.3,1,0.3
		c0,0,1.7-1.8-0.4,4.4C-32.4-22.4-36.4-23-37.1-23.5z"/>
	<path class="st3" d="M36-14.9l2.8-1.2c0,0,6-2.3,1.1,1c0,0,6-1.9,0.9,1.3c0,0,4.9-0.8,0.4,1.6c0,0-3,1.1,0.3,1.5
		c0,0,2.6,0.6-4.2,1.5C37.3-9.1,35.9-11.9,36-14.9z"/>
	<ellipse class="st6" cx="0.6" cy="41.4" rx="7.8" ry="8.1"/>
	<circle class="st6" cx="21.8" cy="47.4" r="6.3"/>
	<circle cx="24.9" cy="50.2" r="1"/>
	<circle cx="5.9" cy="40.2" r="1"/>
	<path class="st7" d="M11.4,27.1c0,0-0.9,5.7,4.9,7.2c5.9,1.4,6-4.9,6-4.9s-0.7-2.9-3.3,0s-4.2-1-4.2-1S14,24.7,11.4,27.1z"/>
	<path class="st4" d="M8.4,41.9c0,0-0.1-8.1-3.6-11.1"/>
	<path class="st4" d="M16.8,43.5c0,0,4.9-5.3,10.2-3.8"/>
	<rect id="background_6_" x="-50" y="-100" class="st2" width="100" height="200"/>
</symbol>
<symbol  id="drej_x5F_2" viewBox="-50 -100 100 200">
	<path class="st3" d="M20.7-58.1c0,0,7-3.9,6.9-6.8s-2-11.7-2-11.7s-9.5-9.4,3-8.5c0,0,8.6-0.9,7.5,2.6C35-79,32-80.1,29.4-80.3
		c0,0,5.5,10.7,7.8,13.1s-0.3,13.6-7.5,22.5"/>
	<path class="st3" d="M-17.5-51.9c0,0,5.9-12,3.5-16.3s-7.4-4.3-8.9-7.5s-2.9-5.2,2-7.8c4.8-2.6,6.2,0,6.2,0s3,3-3.2,3.9
		c0,0,0.7,3,5.8,3.6S-3-74.7-0.6-62.4"/>
	<path class="st0" d="M28.1,4.1c-2.4,6.2-7.4,13.7-11.2,15.3l-36.4,0.1l-2.8-11c0,0-19-14.1-14.8-32c1.5,0.6,3.2,0.5,4.7,1.1
		c0.2,5,1.8,13.3,9,16.9c0,0-5-26.5,2.9-44.1c0.4-0.8,0.5-0.4,1.9-2.2C-8.7-64.2,9.8-65.5,9.8-65.5s15.7,6.6,18.5,16.6
		c2.8,10.1,5.4,9.6,5.4,9.6s1.2,8.2-1.4,18.5S19.6-6,20.3,6.4c0,0,4.5-17.3,15.7-21.3c0.1,1.9,0.5,3.8,1.4,5.7
		C33.9-7.4,29.7,0.2,28.1,4.1z"/>
	<path class="st0" d="M21,58.9c2.8-0.4-0.7,3.5-0.7,3.5L6.5,77.1C-9.2,85.1-45.3,65-45.3,65c-4-10.3,11.5-45,11.5-45
		s-1.1,6.2-1.4,11.3c-0.2,2.9,0.9,5.5,0,6.5c-2.3,2.8-1.4,2.8-1,3.8c0.3,0.8,0.9,2.3-1.1,3c-1.5,0.6-2.6,3.8,0.9,3.6
		c0,0,3.3-6.6,5.9-7.1s2.6,2.6,2.6,2.6"/>
	<path class="st4" d="M-0.5,12.7c0,0,6.4-4.4,6.6-7.8c0,0,7.8,6.4,6.6,13.1"/>
	<path class="st5" d="M-0.6,13.2c0,0,1.3-14.8,6.8-38.9S9.8-65,9.8-65"/>
	<path class="st4" d="M-18.1,17.9c0,0,0.7-9.1,6.8-14.6c0,0,6.2,8.6,11,9.4"/>
	<path class="st4" d="M20.1-59.4"/>
	<circle class="st8" cx="-34.1" cy="19.9" r="5.1"/>
	<path class="st3" d="M-37.1-23.5l0.2-3.6c0,0-0.2-4.5,1.1-0.1c0,0,1.1-5.4,1.3-0.1c0,0,1.9-5.3,1.6,0.2c0,0,0.1,2.3,1,0.3
		c0,0,1.7-1.8-0.4,4.4C-32.4-22.4-36.4-23-37.1-23.5z"/>
	<path class="st3" d="M36-14.9l2.8-1.2c0,0,6-2.3,1.1,1c0,0,6-1.9,0.9,1.3c0,0,4.9-0.8,0.4,1.6c0,0-3,1.1,0.3,1.5
		c0,0,2.6,0.6-4.2,1.5C37.3-9.1,35.9-11.9,36-14.9z"/>
	<path class="st3" d="M-28.9,44.7c0,0-2.8-40.3,32.1-31.8c4.2,1,7.6,2.5,10.4,4.2C34,29.9,20,59.9,20,59.9S-9.3,65.5-28.9,44.7z"/>
	<ellipse class="st6" cx="-11.5" cy="38.5" rx="9" ry="9.3"/>
	<circle class="st6" cx="15.3" cy="45.7" r="7.8"/>
	<circle cx="-10.1" cy="40.2" r="1"/>
	<circle cx="17.4" cy="50.1" r="0.7"/>
	<path class="st7" d="M0.4,23.1c0,0-0.9,5.7,4.9,7.2s6-4.9,6-4.9s-0.7-2.9-3.3,0s-4.2-1-4.2-1S3,20.7,0.4,23.1z"/>
	<path class="st4" d="M-2.6,37.9c0,0-0.1-8.1-3.6-11.1"/>
	<path class="st4" d="M8.4,41.8c0,0,3.3-6.4,8.8-6.4"/>
	<rect id="background_5_" x="-50" y="-100" class="st2" width="100" height="200"/>
</symbol>
<symbol  id="drej_x5F_3" viewBox="-50 -100 100 200">
	<path class="st3" d="M20.7-58.1c0,0,7-3.9,6.9-6.8s-2-11.7-2-11.7s-9.5-9.4,3-8.5c0,0,8.6-0.9,7.5,2.6c-1.2,3.6-4.1,2.4-6.7,2.2
		c0,0,5.5,10.7,7.8,13.1s-0.3,13.6-7.5,22.5"/>
	<path class="st3" d="M-17.6-51.9c0,0,5.9-12,3.5-16.3s-7.4-4.3-8.9-7.5s-2.9-5.2,2-7.8c4.8-2.6,6.2,0,6.2,0s3,3-3.2,3.9
		c0,0,0.7,3,5.8,3.6s9.1,1.3,11.5,13.6"/>
	<path class="st0" d="M28.1,4.1c-2.4,6.2-7.4,13.7-11.2,15.3l-36.4,0.2l-2.8-11c0,0-19-14.1-14.8-32c1.5,0.6,3.2,0.5,4.7,1.1
		c0.2,5,1.8,13.3,9,16.9c0,0-5-26.5,2.9-44.1c0.4-0.8,0.5-0.4,1.9-2.2C-8.7-64.2,9.8-65.4,9.8-65.4s15.7,6.5,18.5,16.6
		s5.4,9.6,5.4,9.6s1.2,8.2-1.4,18.5S19.5-6,20.2,6.4c0,0,4.5-17.3,15.7-21.3c0.1,1.9,0.5,3.8,1.4,5.7C33.9-7.4,29.6,0.2,28.1,4.1z"
		/>
	<path class="st0" d="M27.3,52.6c2.6-1.1,0.3,3.6,0.3,3.6l-9.3,17.9c-13,11.9-53.1,2.3-53.1,2.3C-41.5,67.6-34,31-34,31
		s-1.4,5.3-0.3,10.3c0.6,2.8,2.3,5,1.8,6.2c-1.5,3.3-0.6,3.1,0,3.9c0.5,0.7,1.5,2-0.2,3.2c-1.3,1-1.4,4.4,1.9,3.2
		c0,0,1.4-7.2,3.7-8.4s3.2,1.8,3.2,1.8"/>
	<path class="st4" d="M-0.5,12.7c0,0,6.4-4.4,6.6-7.8c0,0,7.8,6.4,6.6,13.1"/>
	<path class="st5" d="M-0.6,13.2c0,0,1.3-14.8,6.8-38.9S9.8-65,9.8-65"/>
	<path class="st4" d="M-18.1,17.9c0,0,0.7-9.1,6.8-14.6c0,0,6.2,8.6,11,9.4"/>
	<path class="st4" d="M20-59.4"/>
	<circle class="st8" cx="-34.1" cy="30.9" r="5.1"/>
	<path class="st3" d="M-24.2,53.3c0,0-14.8-37.6,21-40c4.3-0.3,8,0.1,11.2,0.9c23.4,6.2,19.1,38.9,19.1,38.9S0.9,67.3-24.2,53.3z"/>
	<path class="st3" d="M-37.1-23.5l0.2-3.6c0,0-0.2-4.5,1.1-0.1c0,0,1.1-5.4,1.3-0.1c0,0,1.9-5.3,1.6,0.2c0,0,0.1,2.3,1,0.3
		c0,0,1.7-1.8-0.4,4.4C-32.5-22.4-36.4-23-37.1-23.5z"/>
	<path class="st3" d="M35.9-14.9l2.8-1.2c0,0,6-2.3,1.1,1c0,0,6-1.9,0.9,1.3c0,0,4.9-0.8,0.4,1.6c0,0-3,1.1,0.3,1.5
		c0,0,2.6,0.6-4.2,1.5C37.3-9.1,35.8-11.9,35.9-14.9z"/>
	
		<ellipse transform="matrix(0.1246 -0.9922 0.9922 0.1246 -51.3047 22.8442)" class="st6" cx="-12.7" cy="40.5" rx="10.8" ry="10.4"/>
	<circle class="st6" cx="14.5" cy="43.8" r="9.5"/>
	<circle cx="-18.6" cy="43.5" r="1"/>
	<circle cx="17.6" cy="46.9" r="0.7"/>
	<path class="st7" d="M-4.6,22.5c0,0-0.2,5.8,5.8,6.5s5.3-5.6,5.3-5.6s-1-2.8-3.2,0.4S-1,23.4-1,23.4S-2.3,19.8-4.6,22.5z"/>
	<path class="st4" d="M-2.7,38.2c0,0-1.1-8-4.9-10.6"/>
	<path class="st4" d="M5.7,40.1c0,0,0.6-7.2,5.7-9.3"/>
	<rect id="background_4_" x="-50" y="-100" class="st2" width="100" height="200"/>
</symbol>
<symbol  id="drej_x5F_4" viewBox="-50 -100 100 200">
	<path class="st0" d="M-25.8,57.9c-2.8-0.4,0.7,3.5,0.7,3.5l13.8,14.7C4.4,84.1,40.4,64,40.4,64C44.4,53.7,29,19,29,19
		s1.1,6.2,1.4,11.3c0.2,2.9-0.9,5.5,0,6.5c2.3,2.8,1.4,2.8,1,3.8c-0.3,0.8-0.9,2.3,1.1,3c1.5,0.6,2.6,3.8-0.9,3.6
		c0,0-3.3-6.6-5.9-7.1s-2.6,2.6-2.6,2.6"/>
	<path class="st3" d="M20.7-58.1c0,0,7-3.9,6.9-6.8s-2-11.7-2-11.7s-9.5-9.4,3-8.5c0,0,8.6-0.9,7.5,2.6C35-79,32-80.1,29.4-80.3
		c0,0,5.5,10.7,7.8,13.1s-0.3,13.6-7.5,22.5"/>
	<path class="st3" d="M-17.5-51.9c0,0,5.9-12,3.5-16.3s-7.4-4.3-8.9-7.5s-2.9-5.2,2-7.8c4.8-2.6,6.2,0,6.2,0s3,3-3.2,3.9
		c0,0,0.7,3,5.8,3.6S-3-74.7-0.6-62.4"/>
	<path class="st0" d="M28.1,4.1c-2.4,6.2-7.4,13.7-11.2,15.3l-36.4,0.1l-2.8-11c0,0-19-14.1-14.8-32c1.5,0.6,3.2,0.5,4.7,1.1
		c0.2,5,1.8,13.3,9,16.9c0,0-5-26.5,2.9-44.1c0.4-0.8,0.5-0.4,1.9-2.2C-8.7-64.2,9.8-65.5,9.8-65.5s15.7,6.6,18.5,16.6
		c2.8,10.1,5.4,9.6,5.4,9.6s1.2,8.2-1.4,18.5S19.6-6,20.3,6.4c0,0,4.5-17.3,15.7-21.3c0.1,1.9,0.5,3.8,1.4,5.7
		C33.9-7.4,29.7,0.2,28.1,4.1z"/>
	<path class="st4" d="M-0.5,12.7c0,0,6.4-4.4,6.6-7.8c0,0,7.8,6.4,6.6,13.1"/>
	<path class="st5" d="M-0.6,13.2c0,0,1.3-14.8,6.8-38.9S9.8-65,9.8-65"/>
	<path class="st4" d="M-18.1,17.9c0,0,0.7-9.1,6.8-14.6c0,0,6.2,8.6,11,9.4"/>
	<path class="st4" d="M20.1-59.4"/>
	<path class="st3" d="M-37.1-23.5l0.2-3.6c0,0-0.2-4.5,1.1-0.1c0,0,1.1-5.4,1.3-0.1c0,0,1.9-5.3,1.6,0.2c0,0,0.1,2.3,1,0.3
		c0,0,1.7-1.8-0.4,4.4C-32.4-22.4-36.4-23-37.1-23.5z"/>
	<path class="st3" d="M36-14.9l2.8-1.2c0,0,6-2.3,1.1,1c0,0,6-1.9,0.9,1.3c0,0,4.9-0.8,0.4,1.6c0,0-3,1.1,0.3,1.5
		c0,0,2.6,0.6-4.2,1.5C37.3-9.1,35.9-11.9,36-14.9z"/>
	<path class="st3" d="M24.6,44.7c0,0,2.8-40.3-32.1-31.8c-4.2,1-7.6,2.5-10.4,4.2c-20.4,12.9-6.5,42.8-6.5,42.8S4.9,65.5,24.6,44.7z
		"/>
	<ellipse class="st6" cx="7.2" cy="38.5" rx="9" ry="9.3"/>
	<circle class="st6" cx="-19.7" cy="45.7" r="7.8"/>
	<circle cx="5.7" cy="40.2" r="1"/>
	<circle cx="-21.8" cy="50.1" r="0.7"/>
	<path class="st7" d="M-4.8,23.1c0,0,0.9,5.7-4.9,7.2s-6-4.9-6-4.9s0.7-2.9,3.3,0s4.2-1,4.2-1S-7.4,20.7-4.8,23.1z"/>
	<path class="st4" d="M-1.7,37.9c0,0,0.1-8.1,3.6-11.1"/>
	<path class="st4" d="M-12.8,41.8c0,0-3.3-6.4-8.8-6.4"/>
	<circle class="st8" cx="29.3" cy="18.9" r="5.1"/>
	<rect id="background_3_" x="-50" y="-100" class="st2" width="100" height="200"/>
</symbol>
<symbol  id="drej_x5F_5" viewBox="-50 -100 100 200">
	<path class="st0" d="M-24.9,59.1c-2.8-0.4,0.7,3.5,0.7,3.5l13.9,14.6C5.4,85,41.3,64.6,41.3,64.6c3.9-10.3-11.8-44.9-11.8-44.9
		S30.6,25.8,31,31c0.2,2.9-0.8,5.5,0,6.5c2.4,2.8,1.4,2.8,1.1,3.7c-0.3,0.8-0.8,2.3,1.1,3c1.5,0.5,2.6,3.8-0.9,3.6
		c0,0-3.4-6.6-5.9-7c-2.5-0.5-2.6,2.6-2.6,2.6"/>
	<path class="st3" d="M20.7-58.1c0,0,7-3.9,6.9-6.8s-2-11.7-2-11.7s-9.5-9.4,3-8.5c0,0,8.6-0.9,7.5,2.6C35-79,32-80.1,29.4-80.3
		c0,0,5.5,10.7,7.8,13.1s-0.3,13.6-7.5,22.5"/>
	<path class="st3" d="M-17.5-51.9c0,0,5.9-12,3.5-16.3s-7.4-4.3-8.9-7.5s-2.9-5.2,2-7.8c4.8-2.6,6.2,0,6.2,0s3,3-3.2,3.9
		c0,0,0.7,3,5.8,3.6S-3-74.7-0.6-62.4"/>
	<path class="st0" d="M28.1,4.1c-2.4,6.2-7.4,13.7-11.2,15.3l-36.4,0.1l-2.8-11c0,0-19-14.1-14.8-32c1.5,0.6,3.2,0.5,4.7,1.1
		c0.2,5,1.8,13.3,9,16.9c0,0-5-26.5,2.9-44.1c0.4-0.8,0.5-0.4,1.9-2.2C-8.7-64.2,9.8-65.5,9.8-65.5s15.7,6.6,18.5,16.6
		c2.8,10.1,5.4,9.6,5.4,9.6s1.2,8.2-1.4,18.5S19.6-6,20.3,6.4c0,0,4.5-17.3,15.7-21.3c0.1,1.9,0.5,3.8,1.4,5.7
		C33.9-7.4,29.7,0.2,28.1,4.1z"/>
	<path class="st4" d="M-0.5,12.7c0,0,6.4-4.4,6.6-7.8c0,0,7.8,6.4,6.6,13.1"/>
	<path class="st5" d="M-0.6,13.2c0,0,1.3-14.8,6.8-38.9S9.8-65,9.8-65"/>
	<path class="st4" d="M-18.1,17.9c0,0,0.7-9.1,6.8-14.6c0,0,6.2,8.6,11,9.4"/>
	<path class="st4" d="M20.1-59.4"/>
	<path class="st3" d="M-37.1-23.5l0.2-3.6c0,0-0.2-4.5,1.1-0.1c0,0,1.1-5.4,1.3-0.1c0,0,1.9-5.3,1.6,0.2c0,0,0.1,2.3,1,0.3
		c0,0,1.7-1.8-0.4,4.4C-32.4-22.4-36.4-23-37.1-23.5z"/>
	<path class="st3" d="M36-14.9l2.8-1.2c0,0,6-2.3,1.1,1c0,0,6-1.9,0.9,1.3c0,0,4.9-0.8,0.4,1.6c0,0-3,1.1,0.3,1.5
		c0,0,2.6,0.6-4.2,1.5C37.3-9.1,35.9-11.9,36-14.9z"/>
	<path class="st3" d="M25.1,45.7c0,0,2.8-40.3-32.1-31.8c-4.2,1-7.6,2.5-10.4,4.2c-20.4,12.9-6.5,42.8-6.5,42.8S5.4,66.5,25.1,45.7z
		"/>
	<ellipse class="st6" cx="-2.5" cy="41.4" rx="7.8" ry="8.1"/>
	<circle class="st6" cx="-23.7" cy="47.4" r="6.3"/>
	<circle cx="-26.8" cy="50.2" r="1"/>
	<circle cx="-7.8" cy="40.2" r="1"/>
	<path class="st7" d="M-13.3,27.1c0,0,0.9,5.7-4.9,7.2c-5.9,1.4-6-4.9-6-4.9s0.7-2.9,3.3,0s4.2-1,4.2-1S-15.9,24.7-13.3,27.1z"/>
	<path class="st4" d="M-10.3,41.9c0,0,0.1-8.1,3.6-11.1"/>
	<path class="st4" d="M-18.6,43.5c0,0-4.9-5.3-10.2-3.8"/>
	<circle class="st8" cx="29.1" cy="16.9" r="5.1"/>
	<rect id="background_2_" x="-50" y="-100" class="st2" width="100" height="200"/>
</symbol>
<symbol  id="gut_1" viewBox="-50 -100 100 200">
	<rect id="Baggrund_1_" x="-50" y="-100" class="st2" width="100" height="200"/>
	<path id="bagben_1_" class="st1" d="M3.8,44.2c0,0-0.4,8-3.1,9.2s-11.4,3.4-11.4,3.4s-12.7-4.4-6.3,6.4c0,0,3,8.2,5.7,5.6
		s0.3-4.8-1-7c0,0,12,0.3,15.2,1.3c3.2,1,12.1-6.3,16.9-16.6"/>
	<path id="forben_1_" class="st3" d="M-18.7,50.5c0,0,12.2,14.5,13.8,17.1s5.8,10.9,5.8,10.9s-1,12.7,8,3.9c0,0,7.2-4.9,4-6.8
		s-4.7,0.8-6.5,2.6c0,0-1.8-11.8-2.5-15.1c-0.8-3.6-3.1-9.5-11.3-20.8"/>
	<path id="armh_1_" class="st0" d="M-6.7-19.2c0,0-23.6-2-32.3,14.2c1.5,0.5,2.7,1.8,4.2,2.3c3.4-3.5,9.8-8.6,17.4-6.9
		c5-2.1,7.7-6,10.9-9.8L-6.7-19.2z"/>
	<path id="krop_1_" class="st0" d="M26.8-16.4l-35.1-9.7l-5.5,9.8C-16-12-30.5,21.3-27.5,40.4c0.1,0.9,0.4,0.6,1.3,2.6
		c2.5,5.8,7.3,7.6,12.5,9.9c7.8,3.5,16.6,6,21.7,8c3.7-2.1,9.8-5.6,11.9-8.3c2.4-2.7,5-5.4,7.7-7.9c2.2-5.8,3.4-12,3.5-18.2
		c0.2-10.3-7.8-17.1-4.8-28.2C28-8,28-11,28-16C27.9-16,26.9-16.3,26.8-16.4z"/>
	<path id="armv_1_" class="st0" d="M31.2-6.5c-1.5-6.4-5.2-14.3-8.7-16.6c0.6,5,1.2,13.6,1.3,13.2c0,0,2,17.8,12.6,23.3
		c0.4-1.9,1.1-3.8,2.2-5.5C35.3,5.7,32.2-2.4,31.2-6.5z"/>
	<path id="hue_1_" class="st0" d="M43.5-54.4c2.7,1,0.2-3.6,0.2-3.6l-9.9-17.6C20.4-87-19-76-19-76c-0.8,0.9-1.4,1.9-2,3
		c-3.1,7.9,3,12,6.2,15.4c0,0,1.7,7.2,4,8.3s3.1-1.9,3.1-1.9"/>
	<path id="kravev_1_" class="st4" d="M16.6-16.2c0,0,7.5,1.9,8.8,5c0,0,5.1-8.8,1.7-14.6"/>
	<path id="skjorte_1_" class="st5" d="M22.3-16.8c0,0-4.2,14.4-5.9,39.5c-1.6,24.8-8.8,37.4-8.8,37.4"/>
	<path id="kraveh_1_" class="st4" d="M5.2-21.8c0,0,0.1,9.2,5.8,15c0,0,6.7-8.2,11.6-8.7"/>
	<path id="dut_1_" class="st4" d="M21.1,57.4"/>
	<path class="st3" d="M-7.7-51.2c0,0-12.3,38.5,23.6,38.5c3.8,0.1,7.5-0.5,11.1-1.6C49.9-22,43.5-54.4,43.5-54.4S16.4-66.8-7.7-51.2
		z"/>
	<path class="st3" d="M-39-5l-2.3,2.9c0,0-3.2,3.2,0.8,0.9c0,0-2.7,4.7,0.9,0.9c0,0-2.1,5.2,1.3,0.9c0,0,1.6-1.6,0.9,0.4
		c0,0,0.1,2.5,2.6-3.6C-34.7-2.7-38.1-4.9-39-5z"/>
	<path class="st1" d="M36.3,13.4l2.6,1.6c0,0,5.6,3.1,1.3-0.9c0,0,5.7,2.8,1.1-1.1c0,0,4.7,1.4,0.6-1.5c0,0-2.8-1.6,0.6-1.4
		c0,0,2.7-0.2-3.9-2.1C37.3,9.6,36.6,11.5,36.3,13.4z"/>
	<ellipse transform="matrix(0.9714 -0.2373 0.2373 0.9714 10.523 3.04)" class="st6" cx="17.9" cy="-42.2" rx="10.4" ry="10.8"/>
	<ellipse transform="matrix(0.9714 -0.2373 0.2373 0.9714 11.1759 8.6442)" class="st6" cx="41.5" cy="-42.1" rx="6" ry="6.5"/>
	<circle cx="12.5" cy="-45.8" r="1"/>
	<path class="st7" d="M26.4-24.8c0,0,0.5-5.8,6.5-5.8s4.6,6.2,4.6,6.2s-1.3,2.7-3.2-0.8s-4.3,0-4.3,0S28.3-21.9,26.4-24.8z"/>
	<path class="st4" d="M27.7-38.7c0,0-2,7.8-6.1,10"/>
	<path class="st4" d="M35.7-40.1c0,0-0.3,5,2.8,6.7"/>
	<circle cx="44.9" cy="-43.9" r="0.9"/>
	<path class="st0" d="M-20.9-73.4"/>
	<path class="st0" d="M-18.4-76.1c-3.3,1.3-5.2,4.3-6.8,7.3c-1.8,2-3.1,3.1-5.9,2s-2.6-2.5-5.8-0.5c-3.3,2-3.7,0.3-6.5-0.9
		c2.4,5,7.5,1.5,9.5,5.5s8,3.9,11.3,1.7s5.3,0.6,7.6,2.9"/>
	<circle class="st8" cx="-44.3" cy="-72.5" r="5.1"/>
</symbol>
<symbol  id="gut_10" viewBox="-50 -100 100 200">
	<path id="hue-10_1_" class="st0" d="M43.5-54.4c2.7,1,0.2-3.6,0.2-3.6l-9.9-17.6C20.4-87-19-76-19-76c-0.8,0.9-1.4,1.9-2,3
		c-3.1,7.9,3,12,6.2,15.4c0,0,1.7,7.2,4,8.3s3.1-1.9,3.1-1.9"/>
	<rect id="Baggrund-10_1_" x="-50" y="-100" class="st2" width="100" height="200"/>
	<path id="bagben-13_1_" class="st1" d="M3.6,50.1c0,0,2.6,7.6,0.5,9.7s-9.3,7.4-9.3,7.4s-13.4,0.6-3.5,8.3c0,0,5.8,6.5,7.3,3
		s-1.5-4.6-3.5-6.1c0,0,11.3-4.2,14.6-4.5s8.9-10.3,9.5-21.7"/>
	<path id="forben-7_1_" class="st3" d="M-14,46c0,0,10.1,15.9,9.6,18.8s-3,11.9-3,11.9S-16.6,85.5-4,85c0,0,8.6,1.2,7.6-2.4
		S-0.5,80-3,80.2c0,0,6.6-10,8.3-12.9C7,64.2,6,57,2,44"/>
	<path id="armh-11_1_" class="st0" d="M-6.2-21.4c0,0-23.3,4.3-27.4,22.2c1.6,0.1,3.1,1,4.7,1.1C-26.6-2.4-21.7-8.9-14-9.3
		c4.3-3.3,5.8-7.8,8-12.3L-6.2-21.4z"/>
	<path id="krop-10_1_" class="st0" d="M26.8-16.4l-35.1-9.7l-5.5,9.8C-16-12-30.5,21.3-27.5,40.4c0.1,0.9,0.4,0.6,1.3,2.6
		c2.5,5.8,7.3,7.6,12.5,9.9c7.8,3.5,16.6,6,21.7,8c3.7-2.1,9.8-5.6,11.9-8.3c2.4-2.7,5-5.4,7.7-7.9c2.2-5.8,3.4-12,3.5-18.2
		c0.2-10.3-7.8-17.1-4.8-28.2C28-8,28-11,28-16C27.9-16,26.9-16.3,26.8-16.4z"/>
	<path id="armv-8_1_" class="st0" d="M32.5-1.8c-1.1-6.5-4.3-14.6-7.6-17.2c0.2,5,0.3,13.6,0.4,13.2c0,0,0.8,17.8,11,24.1
		c0.5-1.9,1.3-3.7,2.5-5.4C35.8,10.6,33.2,2.3,32.5-1.8z"/>
	<path id="kravev-10_1_" class="st4" d="M17.6-14.2c0,0,7.5,1.9,8.8,5c0,0,5.1-8.8,1.7-14.6"/>
	<path id="skjorte-10_1_" class="st5" d="M22.3-16.8c0,0-4.2,14.4-5.9,39.5c-1.6,24.8-8.8,37.4-8.8,37.4"/>
	<path id="kraveh-10_1_" class="st4" d="M8.2-21.8c0,0,0.1,9.2,5.8,15c0,0,6.7-8.2,11.6-8.7"/>
	<path id="dut-10_1_" class="st4" d="M21.1,57.4"/>
	<path class="st3" d="M-7.7-51.2c0,0-12.3,38.5,23.6,38.5c3.8,0.1,7.5-0.5,11.1-1.6C49.9-22,43.5-54.4,43.5-54.4S16.4-66.8-7.7-51.2
		z"/>
	<path class="st3" d="M-33.6,0.8l-1.5,3.3c0,0-2.2,3.9,1,0.6c0,0-1.4,5.3,1.1,0.6c0,0-0.7,5.6,1.5,0.5c0,0,1.1-2,1,0.2
		c0,0,0.7,2.4,1.6-4.2C-28.9,1.9-32.8,0.6-33.6,0.8z"/>
	<path class="st1" d="M36.2,18.4l2.5,1.7c0,0,5.4,3.5,1.3-0.8c0,0,5.5,3.2,1.2-1c0,0,4.6,1.8,0.7-1.4c0,0-2.7-1.7,0.7-1.4
		c0,0,2.7,0-3.8-2.3C37.5,14.6,36.6,16.4,36.2,18.4z"/>
	<ellipse transform="matrix(0.9714 -0.2373 0.2373 0.9714 10.523 3.04)" class="st6" cx="17.9" cy="-42.2" rx="10.4" ry="10.8"/>
	<ellipse transform="matrix(0.9714 -0.2373 0.2373 0.9714 11.1759 8.6442)" class="st6" cx="41.5" cy="-42.1" rx="6" ry="6.5"/>
	<circle cx="12.5" cy="-45.8" r="1"/>
	<path class="st7" d="M26.4-24.8c0,0,0.5-5.8,6.5-5.8s4.6,6.2,4.6,6.2s-1.3,2.7-3.2-0.8s-4.3,0-4.3,0S28.3-21.9,26.4-24.8z"/>
	<path class="st4" d="M27.7-38.7c0,0-2,7.8-6.1,10"/>
	<path class="st4" d="M35.7-40.1c0,0-0.3,5,2.8,6.7"/>
	<circle cx="44.9" cy="-43.9" r="0.9"/>
	<path class="st0" d="M-20.3-73.6c-2.4,2.1-4.7,5.9-6.6,8.1s-3.9,3.3-5.1,5.4c-1.2,2.1-3,4.3-3,6.4s0.7,2.9,0.8,4.9
		c0.5-3.2,0.8-3.8,2.9-6.5s5.1-4.1,8.6-5s5.5,0.9,8.5,2.4"/>
	<circle class="st8" cx="-32.3" cy="-45.5" r="5.1"/>
</symbol>
<symbol  id="gut_11" viewBox="-50 -100 100 200">
	<path id="hue-11_1_" class="st0" d="M43.5-57.4c2.7,1,0.2-3.6,0.2-3.6l-9.9-17.6C20.4-90-19-79-19-79c-0.8,0.9-1.4,1.9-2,3
		c-3.1,7.9,3,12,6.2,15.4c0,0,1.7,7.2,4,8.3s3.1-1.9,3.1-1.9"/>
	<path id="armv-9_1_" class="st0" d="M25.5-0.9c3-5.9,5.3-14.4,4.1-18.4c-2.8,4.2-7.9,11.2-7.6,11c0,0-10,14.9-5.5,26.1
		c1.6-1.2,3.3-2.2,5.2-2.8C20.7,11.1,23.6,2.9,25.5-0.9z"/>
	<path class="st1" d="M16.5,17.5l1,2.8c0,0,2.3,6,1.5,0.2c0,0,2.5,5.8,1.6-0.2c0,0,2.7,4.2,1.4-0.8c0,0-1.2-3,1.4-0.7
		c0,0,2.2,1.5-1.7-4.1C19.8,15.2,18,16.1,16.5,17.5z"/>
	<rect id="Baggrund-11_1_" x="-50" y="-100" class="st2" width="100" height="200"/>
	<path id="armv-10_1_" class="st0" d="M33.3-5.7c-1.6-6.4-5.4-14.3-8.9-16.5c0.6,5,1.3,13.6,1.4,13.2c0,0,2.2,17.7,12.8,23.2
		c0.4-1.9,1.1-3.8,2.1-5.5C37.5,6.4,34.3-1.6,33.3-5.7z"/>
	<path class="st1" d="M38.5,14.2l2.6,1.5c0,0,5.7,3,1.3-0.9c0,0,5.7,2.7,1.1-1.1c0,0,4.8,1.4,0.6-1.5c0,0-2.8-1.5,0.5-1.4
		c0,0,2.7-0.3-3.9-2C39.5,10.3,38.8,12.2,38.5,14.2z"/>
	<path id="bagben-14_1_" class="st1" d="M10.8,48c0,0,6.9,4,6.8,6.9s-2.1,11.7-2.1,11.7S8,75,18,77c0,0,9.1,3.6,8,0s-5-4-6.8-6.6
		c0,0,5.7-10.6,8-13S27,43.8,20,34.8"/>
	<path id="forben-8_1_" class="st3" d="M-14.8,41.7c0,0,7.5,17.3,6.5,20.1S-13,73.2-13,73.2s-7.5,5.1,0,9.3c0,0,6.3,5,7.6,3.2
		c2.2-3.1-3.2-5.6-3.8-8.4c0,0,8-8.8,10.1-11.4C3.2,63,3.4,55.7,1.4,42.3"/>
	<path id="krop-11_1_" class="st0" d="M26.8-19.4l-35.1-9.7l-5.5,9.8C-16-15-30.5,18.3-27.5,37.4c0.1,0.9,0.4,0.6,1.3,2.6
		c2.5,5.8,7.3,7.6,12.5,9.9c7.8,3.5,16.6,6,21.7,8c3.7-2.1,9.8-5.6,11.9-8.3c2.4-2.7,5-5.4,7.7-7.9c2.2-5.8,3.4-12,3.5-18.2
		c0.2-10.3-7.8-17.1-4.8-28.2C28-11,28-14,28-19C27.9-19,26.9-19.3,26.8-19.4z"/>
	<path id="kravev-11_1_" class="st4" d="M18.6-17.2c0,0,7.5,1.9,8.8,5c0,0,5.1-8.8,1.7-14.6"/>
	<path id="skjorte-11_1_" class="st5" d="M22.3-19.8c0,0-4.2,14.4-5.9,39.5c-1.6,24.8-8.8,37.4-8.8,37.4"/>
	<path id="kraveh-11_1_" class="st4" d="M8.2-24.8c0,0,0.1,9.2,5.8,15c0,0,6.7-8.2,11.6-8.7"/>
	<path id="dut-11_1_" class="st4" d="M21.1,57.4"/>
	<path class="st3" d="M-7.7-54.2c0,0-12.3,38.5,23.6,38.5c3.8,0.1,7.5-0.5,11.1-1.6C49.9-25,43.5-57.4,43.5-57.4S16.4-69.8-7.7-54.2
		z"/>
	<ellipse transform="matrix(0.9714 -0.2373 0.2373 0.9714 11.235 2.9547)" class="st6" cx="17.9" cy="-45.2" rx="10.4" ry="10.8"/>
	<ellipse transform="matrix(0.9714 -0.2373 0.2373 0.9714 11.8879 8.5588)" class="st6" cx="41.5" cy="-45.1" rx="6" ry="6.5"/>
	<circle cx="12.5" cy="-48.8" r="1"/>
	<path class="st7" d="M26.4-27.8c0,0,0.5-5.8,6.5-5.8s4.6,6.2,4.6,6.2s-1.3,2.7-3.2-0.8s-4.3,0-4.3,0S28.3-24.9,26.4-27.8z"/>
	<path class="st4" d="M27.7-41.7c0,0-2,7.8-6.1,10"/>
	<path class="st4" d="M35.7-43.1c0,0-0.3,5,2.8,6.7"/>
	<circle cx="44.9" cy="-46.9" r="0.9"/>
	<g id="armh-12_1_">
		<path class="st0" d="M-6.5-25.2c0,0-23.6,0.6-30.6,17.6c1.6,0.4,2.9,1.5,4.4,1.8c3-3.9,8.8-9.6,16.5-8.7c4.8-2.6,7-6.8,9.8-10.9
			L-6.5-25.2z"/>
	</g>
	<path class="st3" d="M-37.1-7.5l-2,3.1c0,0-2.8,3.5,0.8,0.8c0,0-2.2,5,1,0.8c0,0-1.5,5.4,1.4,0.7c0,0,1.4-1.8,1,0.3
		c0,0,0.3,2.5,2.2-3.8C-32.6-5.7-36.2-7.6-37.1-7.5z"/>
	<path class="st0" d="M-19.9-78.2c-2.6,2.8-3.9,6.1-5.6,9.5c-1.3,2.3-3.1,4.2-5.3,5.5c-1.9,1.3-2.9,2.1-4.7,3.3s-4,1.1-6.1,0.8
		c3.4,1.5,6.1,1.3,9.8,0.5c3.8-0.8,7.4-2.1,10.8-3.9c3.2-1.9,5.4-0.7,8.5,0.8"/>
	<circle class="st8" cx="-44.3" cy="-62.5" r="5.1"/>
</symbol>
<symbol  id="gut_12" viewBox="-50 -100 100 200">
	<path id="hue-12_1_" class="st0" d="M43.5-59.4c2.7,1,0.2-3.6,0.2-3.6l-9.9-17.6C20.4-92-19-81-19-81c-0.8,0.9-1.4,1.9-2,3
		c-3.1,7.9,3,12,6.2,15.4c0,0,1.7,7.2,4,8.3s3.1-1.9,3.1-1.9"/>
	<path class="st1" d="M16.5,17.5l1,2.8c0,0,2.3,6,1.5,0.2c0,0,2.5,5.8,1.6-0.2c0,0,2.7,4.2,1.4-0.8c0,0-1.2-3,1.4-0.7
		c0,0,2.2,1.5-1.7-4.1C19.8,15.2,18,16.1,16.5,17.5z"/>
	<rect id="Baggrund-12_1_" x="-50" y="-100" class="st2" width="100" height="200"/>
	<path id="armv-11_1_" class="st0" d="M33.3-6.7c-1.6-6.4-5.4-14.3-8.9-16.5c0.6,5,1.3,13.6,1.4,13.2c0,0,2.2,17.7,12.8,23.2
		c0.4-1.9,1.1-3.8,2.1-5.5C37.5,5.4,34.3-2.6,33.3-6.7z"/>
	<path class="st1" d="M38.5,13.2l2.6,1.5c0,0,5.7,3,1.3-0.9c0,0,5.7,2.7,1.1-1.1c0,0,4.8,1.4,0.6-1.5c0,0-2.8-1.5,0.5-1.4
		c0,0,2.7-0.3-3.9-2C39.5,9.3,38.8,11.2,38.5,13.2z"/>
	<g id="armh-13_1_">
		<path class="st0" d="M-5.3-25.4c0,0-23.6-1.8-32.2,14.4c1.5,0.5,2.7,1.8,4.2,2.3c3.4-3.6,9.8-8.6,17.3-7c5-2.1,7.6-6.1,10.8-9.8
			L-5.3-25.4z"/>
	</g>
	<path class="st3" d="M-37.6-11l-2.3,2.9c0,0-3.1,3.2,0.8,0.8c0,0-2.7,4.7,0.9,0.9c0,0-2.1,5.2,1.3,0.9c0,0,1.6-1.7,0.9,0.4
		c0,0,0.1,2.5,2.6-3.6C-33.3-8.7-36.7-10.9-37.6-11z"/>
	<path id="bagben-15_1_" class="st1" d="M11.3,48.6c0,0,7.9,1.3,8.8,4.1s2.1,11.7,2.1,11.7s-4.1,10.5,6,8.9c0,0,9.8,0.1,7.5-2.8
		s-6.1-2-8.7-3.9c0,0,1.6-11.9,2.9-15s-5-12.7-14.6-18.6"/>
	<path id="forben-9_1_" class="st3" d="M-15,41c0,0-9.3,17-10.2,19.8S-30,72.2-30,72.2s-7.5,5.1,0,9.3c0,0,6.3,5,7.6,3.2
		c2.2-3.1-3.2-5.6-3.8-8.4c0,0,8-8.8,10.1-11.4C-13.8,62-4.1,54.5-6,41"/>
	<path id="krop-12_1_" class="st0" d="M26.8-21.4l-35.1-9.7l-5.5,9.8C-16-17-30.5,16.3-27.5,35.4c0.1,0.9,0.4,0.6,1.3,2.6
		c2.5,5.8,7.3,7.6,12.5,9.9c7.8,3.5,16.6,6,21.7,8c3.7-2.1,9.8-5.6,11.9-8.3c2.4-2.7,5-5.4,7.7-7.9c2.2-5.8,3.4-12,3.5-18.2
		c0.2-10.3-7.8-17.1-4.8-28.2C28-13,28-16,28-21C27.9-21,26.9-21.3,26.8-21.4z"/>
	<path id="kravev-12_1_" class="st4" d="M17.6-19.2c0,0,7.5,1.9,8.8,5c0,0,5.1-8.8,1.7-14.6"/>
	<path id="skjorte-12_1_" class="st5" d="M22.3-21.8c0,0-4.2,14.4-5.9,39.5c-1.6,24.8-8.8,37.4-8.8,37.4"/>
	<path id="kraveh-12_1_" class="st4" d="M8.2-26.8c0,0,0.1,9.2,5.8,15c0,0,6.7-8.2,11.6-8.7"/>
	<path id="dut-12_1_" class="st4" d="M21.1,57.4"/>
	<path class="st3" d="M-7.7-56.2c0,0-12.3,38.5,23.6,38.5c3.8,0.1,7.5-0.5,11.1-1.6C49.9-27,43.5-59.4,43.5-59.4S16.4-71.8-7.7-56.2
		z"/>
	<ellipse transform="matrix(0.9714 -0.2373 0.2373 0.9714 11.709 2.8975)" class="st6" cx="17.9" cy="-47.2" rx="10.4" ry="10.8"/>
	<ellipse transform="matrix(0.9714 -0.2373 0.2373 0.9714 12.3629 8.5015)" class="st6" cx="41.5" cy="-47.1" rx="6" ry="6.5"/>
	<circle cx="12.5" cy="-50.8" r="1"/>
	<path class="st7" d="M26.4-29.8c0,0,0.5-5.8,6.5-5.8s4.6,6.2,4.6,6.2s-1.3,2.7-3.2-0.8s-4.3,0-4.3,0S28.3-26.9,26.4-29.8z"/>
	<path class="st4" d="M27.7-43.7c0,0-2,7.8-6.1,10"/>
	<path class="st4" d="M35.7-45.1c0,0-0.3,5,2.8,6.7"/>
	<circle cx="44.9" cy="-46.9" r="0.9"/>
	<path class="st0" d="M-19-81.2c-3.3,2-4.7,5-6.5,8.3c-1.6,1.9-3.7,3.3-6.1,3.9c-2.2,0.4-2.7-0.1-5-0.6s-3.4-3.1-4.5-5.3
		c-0.1,4.2,2.4,6.9,6.1,9c3.9,2.2,8.7,2.2,12.6,0c3.7-2.2,5.3,0.3,8,2.3"/>
	<circle class="st8" cx="-41.3" cy="-79.5" r="5.1"/>
</symbol>
<symbol  id="gut_2" viewBox="-50 -100 100 200">
	<path id="hue-2_1_" class="st0" d="M43.5-50.4c2.7,1,0.2-3.6,0.2-3.6l-9.9-17.6C20.4-83-19-72-19-72c-0.8,0.9-1.4,1.9-2,3
		c-3.1,7.9,3,12,6.2,15.4c0,0,1.7,7.2,4,8.3s3.1-1.9,3.1-1.9"/>
	<rect id="Baggrund-2_1_" x="-50" y="-100" class="st2" width="100" height="200"/>
	<path id="bagben-2_1_" class="st1" d="M-9.2,48.2c0,0-0.4,8-3.1,9.2s-11.4,3.4-11.4,3.4s-12.7-4.4-6.3,6.4c0,0,3,8.2,5.7,5.6
		s0.4-4.8-1-7c0,0,12,0.3,15.2,1.3S2,60.8,6.8,50.5"/>
	<path id="bagben-3_1_" class="st3" d="M-4.2,59.5c0,0,7.5,2.8,7.8,5.7c0.3,2.9-0.2,11.9-0.2,11.9s-8,10.8,4.2,8c0,0,8.7-0.4,7-3.7
		s-4.5-1.8-6.9-1.2c0,0,3.9-11.4,5.8-14.1c1.9-2.7-2.4-13.4-10.7-21.1"/>
	<path id="armh-2_1_" class="st0" d="M-7.5-18.9c0,0-23.4,3.3-28.3,21.1c1.6,0.2,3.1,1.1,4.6,1.3C-28.7-0.7-23.6-7-15.8-7.1
		c4.4-3.2,6.1-7.6,8.5-11.9L-7.5-18.9z"/>
	<path id="krop-2_1_" class="st0" d="M26.8-12.4l-35.1-9.7l-5.5,9.8C-16-8-30.5,25.3-27.5,44.4c0.1,0.9,0.4,0.6,1.3,2.6
		c2.5,5.8,7.3,7.6,12.5,9.9c7.8,3.5,16.6,6,21.7,8c3.7-2.1,9.8-5.6,11.9-8.3c2.4-2.7,5-5.4,7.7-7.9c2.2-5.8,3.4-12,3.5-18.2
		c0.2-10.3-7.8-17.1-4.8-28.2C28-4,28-7,28-12C27.9-12,26.9-12.3,26.8-12.4z"/>
	<path id="armv-2_1_" class="st0" d="M30.5-1.6c-0.9-6.5-3.9-14.7-7.2-17.3c0.1,5-0.1,13.7,0,13.2c0,0,0.3,17.9,10.3,24.4
		c0.6-1.9,1.5-3.7,2.7-5.3C33.5,10.9,31.1,2.5,30.5-1.6z"/>
	<path id="kravev-2_1_" class="st4" d="M16.6-11.2c0,0,7.5,1.9,8.8,5c0,0,5.1-8.8,1.7-14.6"/>
	<path id="skjorte-2_1_" class="st5" d="M22.3-12.8c0,0-4.2,14.4-5.9,39.5c-1.6,24.8-8.8,37.4-8.8,37.4"/>
	<path id="kraveh-2_1_" class="st4" d="M5.2-17.8c0,0,0.1,9.2,5.8,15c0,0,6.7-8.2,11.6-8.7"/>
	<path id="dut-2_1_" class="st4" d="M21.1,57.4"/>
	<path class="st3" d="M-7.7-47.2c0,0-12.3,38.5,23.6,38.5c3.8,0.1,7.5-0.5,11.1-1.6C49.9-18,43.5-50.4,43.5-50.4S16.4-62.8-7.7-47.2
		z"/>
	<path class="st3" d="M-35.8,2.2l-1.6,3.3c0,0-2.4,3.8,0.9,0.7c0,0-1.6,5.2,1.1,0.7c0,0-0.9,5.5,1.5,0.6c0,0,1.2-1.9,1,0.2
		c0,0,0.6,2.4,1.8-4.1C-31.1,3.5-34.9,2-35.8,2.2z"/>
	<path class="st1" d="M33.7,18.7l2.4,1.8c0,0,5.3,3.6,1.3-0.8c0,0,5.4,3.3,1.2-1c0,0,4.6,1.9,0.7-1.4c0,0-2.7-1.8,0.7-1.4
		c0,0,2.7,0-3.7-2.4C35.1,14.9,34.2,16.7,33.7,18.7z"/>
	<ellipse transform="matrix(0.9714 -0.2373 0.2373 0.9714 9.574 3.1545)" class="st6" cx="17.9" cy="-38.2" rx="10.4" ry="10.8"/>
	<ellipse transform="matrix(0.9714 -0.2373 0.2373 0.9714 10.2269 8.7586)" class="st6" cx="41.5" cy="-38.1" rx="6" ry="6.5"/>
	<circle cx="12.5" cy="-41.8" r="1"/>
	<path class="st7" d="M26.4-20.8c0,0,0.5-5.8,6.5-5.8s4.6,6.2,4.6,6.2s-1.3,2.7-3.2-0.8s-4.3,0-4.3,0S28.3-17.9,26.4-20.8z"/>
	<path class="st4" d="M27.7-34.7c0,0-2,7.8-6.1,10"/>
	<path class="st4" d="M35.7-36.1c0,0-0.3,5,2.8,6.7"/>
	<circle cx="44.9" cy="-39.9" r="0.9"/>
	<path class="st0" d="M-16.5-72.6c-3.4,1.4-5.2,3.9-7.1,7c-2.3,2-4.3,0.9-6-1.3s-1.6-5.8-5-5.6c-3.3,0.2-4.9,1.5-7.1-1.5
		c0.6,4.7,5.9,1.7,8,8.6s6.3,8,11.2,7.4s4.6,0.9,7.6,3.9"/>
	<circle class="st8" cx="-40.3" cy="-78.5" r="5.1"/>
</symbol>
<symbol  id="gut_3" viewBox="-50 -100 100 200">
	<path id="hue-3_1_" class="st0" d="M43.5-54.4c2.7,1,0.2-3.6,0.2-3.6l-9.9-17.6C20.4-87-19-76-19-76c-0.8,0.9-1.4,1.9-2,3
		c-3.1,7.9,3,12,6.2,15.4c0,0,1.7,7.2,4,8.3s3.1-1.9,3.1-1.9"/>
	<rect id="Baggrund-3_1_" x="-50" y="-100" class="st2" width="100" height="200"/>
	<path id="bagben-4_1_" class="st1" d="M3.6,50.1c0,0,2.6,7.6,0.5,9.7s-9.3,7.4-9.3,7.4s-13.4,0.6-3.5,8.3c0,0,5.8,6.5,7.3,3
		s-1.5-4.6-3.5-6.1c0,0,11.3-4.2,14.6-4.5s8.9-10.3,9.5-21.7"/>
	<path id="forben-2_1_" class="st3" d="M-14,46c0,0,10.1,15.9,9.6,18.8s-3,11.9-3,11.9S-16.6,85.5-4,85c0,0,8.6,1.2,7.6-2.4
		S-0.5,80-3,80.2c0,0,6.6-10,8.3-12.9C7,64.2,6,57,2,44"/>
	<path id="armh-3_1_" class="st0" d="M-9.6-21.9c0,0-21.2,10.4-20.4,28.8c1.6-0.3,3.2,0.1,4.8-0.2c1.1-4.8,4-12.4,11.4-14.8
		c3.2-4.4,3.5-9.1,4.3-14L-9.6-21.9z"/>
	<path id="krop-3_1_" class="st0" d="M26.8-16.4l-35.1-9.7l-5.5,9.8C-16-12-30.5,21.3-27.5,40.4c0.1,0.9,0.4,0.6,1.3,2.6
		c2.5,5.8,7.3,7.6,12.5,9.9c7.8,3.5,16.6,6,21.7,8c3.7-2.1,9.8-5.6,11.9-8.3c2.4-2.7,5-5.4,7.7-7.9c2.2-5.8,3.4-12,3.5-18.2
		c0.2-10.3-7.8-17.1-4.8-28.2C28-8,28-11,28-16C27.9-16,26.9-16.3,26.8-16.4z"/>
	<path id="armv-3_1_" class="st0" d="M30.8-1c-0.4-6.6-2.6-15-5.7-17.9c-0.3,5-1.2,13.6-1,13.2c0,0-1.2,17.8,8.3,25.2
		c0.7-1.8,1.8-3.5,3.1-5C32.7,11.7,31.1,3.2,30.8-1z"/>
	<path id="kravev-3_1_" class="st4" d="M17.6-15.2c0,0,7.5,1.9,8.8,5c0,0,5.1-8.8,1.7-14.6"/>
	<path id="skjorte-3_1_" class="st5" d="M22.3-16.8c0,0-4.2,14.4-5.9,39.5c-1.6,24.8-8.8,37.4-8.8,37.4"/>
	<path id="kraveh-3_1_" class="st4" d="M5.2-21.8c0,0,0.1,9.2,5.8,15c0,0,6.7-8.2,11.6-8.7"/>
	<path id="dut-3_1_" class="st4" d="M21.1,57.4"/>
	<path class="st3" d="M-7.7-51.2c0,0-12.3,38.5,23.6,38.5c3.8,0.1,7.5-0.5,11.1-1.6C49.9-22,43.5-54.4,43.5-54.4S16.4-66.8-7.7-51.2
		z"/>
	<path class="st3" d="M-30,6.8l-0.5,3.6c0,0-1.1,4.4,1.1,0.3c0,0,0.1,5.5,1.2,0.3c0,0,0.9,5.5,1.6,0.1c0,0,0.5-2.2,1-0.1
		c0,0,1.4,2.1,0.4-4.4C-25.2,6.7-29.2,6.4-30,6.8z"/>
	<path class="st1" d="M32.3,19.5l2.3,2c0,0,5,4.1,1.4-0.6c0,0,5.1,3.7,1.3-0.9c0,0,4.4,2.3,0.8-1.4c0,0-2.5-2,0.8-1.3
		c0,0,2.7,0.2-3.5-2.8C34,15.9,33,17.6,32.3,19.5z"/>
	<ellipse transform="matrix(0.9714 -0.2373 0.2373 0.9714 10.523 3.04)" class="st6" cx="17.9" cy="-42.2" rx="10.4" ry="10.8"/>
	<ellipse transform="matrix(0.9714 -0.2373 0.2373 0.9714 11.1759 8.6442)" class="st6" cx="41.5" cy="-42.1" rx="6" ry="6.5"/>
	<circle cx="12.5" cy="-45.8" r="1"/>
	<path class="st7" d="M26.4-24.8c0,0,0.5-5.8,6.5-5.8s4.6,6.2,4.6,6.2s-1.3,2.7-3.2-0.8s-4.3,0-4.3,0S28.3-21.9,26.4-24.8z"/>
	<path class="st4" d="M27.7-38.7c0,0-2,7.8-6.1,10"/>
	<path class="st4" d="M35.7-40.1c0,0-0.3,5,2.8,6.7"/>
	<circle cx="44.9" cy="-43.9" r="0.9"/>
	<path class="st0" d="M-19-76.2c-3.3,2-4.7,5-6.5,8.3c-1.6,1.9-3.7,3.3-6.1,3.9c-2.2,0.4-2.7-0.1-5-0.6s-3.4-3.1-4.5-5.3
		c-0.1,4.2,2.4,6.9,6.1,9c3.9,2.2,8.7,2.2,12.6,0c3.7-2.2,5.3,0.3,8,2.3"/>
	<circle class="st8" cx="-41.3" cy="-74.5" r="5.1"/>
</symbol>
<symbol  id="gut_4" viewBox="-50 -100 100 200">
	<path id="hue-4_1_" class="st0" d="M43.5-57.4c2.7,1,0.2-3.6,0.2-3.6l-9.9-17.6C20.4-90-19-79-19-79c-0.8,0.9-1.4,1.9-2,3
		c-3.1,7.9,3,12,6.2,15.4c0,0,1.7,7.2,4,8.3s3.1-1.9,3.1-1.9"/>
	<path id="armv-4_1_" class="st0" d="M25.5-0.9c3-5.9,5.3-14.4,4.1-18.4c-2.8,4.2-7.9,11.2-7.6,11c0,0-10,14.9-5.5,26.1
		c1.6-1.2,3.3-2.2,5.2-2.8C20.7,11.1,23.6,2.9,25.5-0.9z"/>
	<path class="st1" d="M16.5,17.5l1,2.8c0,0,2.3,6,1.5,0.2c0,0,2.5,5.8,1.6-0.2c0,0,2.7,4.2,1.4-0.8c0,0-1.2-3,1.4-0.7
		c0,0,2.2,1.5-1.7-4.1C19.8,15.2,18,16.1,16.5,17.5z"/>
	<rect id="Baggrund-4_1_" x="-50" y="-100" class="st2" width="100" height="200"/>
	<path id="bagben-5_1_" class="st1" d="M10.8,48c0,0,6.9,4,6.8,6.9s-2.1,11.7-2.1,11.7S8,75,18,77c0,0,9.1,3.6,8,0s-5-4-6.8-6.6
		c0,0,5.7-10.6,8-13S27,43.8,20,34.8"/>
	<path id="forben-3_1_" class="st3" d="M-14.8,41.7c0,0,7.5,17.3,6.5,20.1S-13,73.2-13,73.2s-7.5,5.1,0,9.3c0,0,6.3,5,7.6,3.2
		c2.2-3.1-3.2-5.6-3.8-8.4c0,0,8-8.8,10.1-11.4C3.2,63,3.4,55.7,1.4,42.3"/>
	<path id="krop-4_1_" class="st0" d="M26.8-19.4l-35.1-9.7l-5.5,9.8C-16-15-30.5,18.3-27.5,37.4c0.1,0.9,0.4,0.6,1.3,2.6
		c2.5,5.8,7.3,7.6,12.5,9.9c7.8,3.5,16.6,6,21.7,8c3.7-2.1,9.8-5.6,11.9-8.3c2.4-2.7,5-5.4,7.7-7.9c2.2-5.8,3.4-12,3.5-18.2
		c0.2-10.3-7.8-17.1-4.8-28.2C28-11,28-14,28-19C27.9-19,26.9-19.3,26.8-19.4z"/>
	<path id="kravev-4_1_" class="st4" d="M17.6-17.2c0,0,7.5,1.9,8.8,5c0,0,5.1-8.8,1.7-14.6"/>
	<path id="skjorte-4_1_" class="st5" d="M22.3-19.8c0,0-4.2,14.4-5.9,39.5c-1.6,24.8-8.8,37.4-8.8,37.4"/>
	<path id="kraveh-4_1_" class="st4" d="M5.2-24.8c0,0,0.1,9.2,5.8,15c0,0,6.7-8.2,11.6-8.7"/>
	<path id="dut-4_1_" class="st4" d="M21.1,57.4"/>
	<path class="st3" d="M-7.7-54.2c0,0-12.3,38.5,23.6,38.5c3.8,0.1,7.5-0.5,11.1-1.6C49.9-25,43.5-57.4,43.5-57.4S16.4-69.8-7.7-54.2
		z"/>
	<ellipse transform="matrix(0.9714 -0.2373 0.2373 0.9714 11.235 2.9547)" class="st6" cx="17.9" cy="-45.2" rx="10.4" ry="10.8"/>
	<ellipse transform="matrix(0.9714 -0.2373 0.2373 0.9714 11.8879 8.5588)" class="st6" cx="41.5" cy="-45.1" rx="6" ry="6.5"/>
	<circle cx="12.5" cy="-48.8" r="1"/>
	<path class="st7" d="M26.4-27.8c0,0,0.5-5.8,6.5-5.8s4.6,6.2,4.6,6.2s-1.3,2.7-3.2-0.8s-4.3,0-4.3,0S28.3-24.9,26.4-27.8z"/>
	<path class="st4" d="M27.7-41.7c0,0-2,7.8-6.1,10"/>
	<path class="st4" d="M35.7-43.1c0,0-0.3,5,2.8,6.7"/>
	<circle cx="44.9" cy="-46.9" r="0.9"/>
	<g id="armh-4_1_">
		<path class="st0" d="M-3.3,12.3c-13.3-10.8-8.5-31.8-8-34c0.4,0.5,0.8,1,1.2,1.5C-7.5-17-5-14-4-9.5C-7-2.4-3.1,5-0.4,8.8
			c-0.4,0.6-0.9,1.2-1.5,1.8C-2.4,11.1-2.9,11.7-3.3,12.3z"/>
		<path class="st9" d="M-11.3-21.4c0.4,0.4,0.7,0.9,1.1,1.3c2.6,3.1,5.1,6.1,6,10.5C-7.2-2.4-3.3,5-0.6,8.8C-1,9.4-1.5,9.9-2,10.4
			s-1,1.1-1.4,1.7C-16.1,1.6-12-18.2-11.3-21.4 M-11.5-22l0.1,0.2c0,0-6.2,22.8,8.1,34.3c0.8-1.4,2.2-2.3,3-3.7
			c-2.9-4-6.6-11.2-3.6-18.3C-5-14.9-8.4-18.2-11.5-22z"/>
	</g>
	<path class="st3" d="M-3.3,12.5l2.4,2.8c0,0,2.6,3.7,1-0.6c0,0,4.2,3.6,1.1-0.7c0,0,4.7,3,1.1-1.1c0,0-1.3-1.9,0.6-0.8
		c0,0,2.5,0.4-3-3.2C-0.3,8.8-3.1,11.6-3.3,12.5z"/>
	<path class="st0" d="M-20.4-76.6c-2.3,2.2-4.5,5.9-6.3,8.1s-3.6,2.8-4.8,5.1c-1.2,2.3-2.5,3.5-3.6,5.8c-1.1,2.4-1.3,5-0.8,7.6
		c0.3-3.8,2.3-6.1,4.9-8.7s5-3.5,8.5-4.5S-17-62.3-14-61"/>
	<circle class="st8" cx="-36.3" cy="-45.5" r="5.1"/>
</symbol>
<symbol  id="gut_5" viewBox="-50 -100 100 200">
	<path id="hue-5_1_" class="st0" d="M43.5-59.4c2.7,1,0.2-3.6,0.2-3.6l-9.9-17.6C20.4-92-19-81-19-81c-0.8,0.9-1.4,1.9-2,3
		c-3.1,7.9,3,12,6.2,15.4c0,0,1.7,7.2,4,8.3s3.1-1.9,3.1-1.9"/>
	<path id="armv-5_1_" class="st0" d="M24.5-1.9c3-5.9,5.3-14.4,4.1-18.4c-2.8,4.2-7.9,11.2-7.6,11c0,0-10,14.9-5.5,26.1
		c1.6-1.2,3.3-2.2,5.2-2.8C19.7,10.1,22.6,1.9,24.5-1.9z"/>
	<path class="st1" d="M16.5,17.5l1,2.8c0,0,2.3,6,1.5,0.2c0,0,2.5,5.8,1.6-0.2c0,0,2.7,4.2,1.4-0.8c0,0-1.2-3,1.4-0.7
		c0,0,2.2,1.5-1.7-4.1C19.8,15.2,18,16.1,16.5,17.5z"/>
	<rect id="Baggrund-5_1_" x="-50" y="-100" class="st2" width="100" height="200"/>
	<path id="bagben-6_1_" class="st1" d="M11.3,48.6c0,0,7.9,1.3,8.8,4.1s2.1,11.7,2.1,11.7s-4.1,10.5,6,8.9c0,0,9.8,0.1,7.5-2.8
		s-6.1-2-8.7-3.9c0,0,1.6-11.9,2.9-15s-5-12.7-14.6-18.6"/>
	<path id="forben-4_1_" class="st3" d="M-15,41c0,0-9.3,17-10.2,19.8S-30,72.2-30,72.2s-7.5,5.1,0,9.3c0,0,6.3,5,7.6,3.2
		c2.2-3.1-3.2-5.6-3.8-8.4c0,0,8-8.8,10.1-11.4C-13.8,62-4.1,54.5-6,41"/>
	<path id="krop-5_1_" class="st0" d="M26.8-21.4l-35.1-9.7l-5.5,9.8C-16-17-30.5,16.3-27.5,35.4c0.1,0.9,0.4,0.6,1.3,2.6
		c2.5,5.8,7.3,7.6,12.5,9.9c7.8,3.5,16.6,6,21.7,8c3.7-2.1,9.8-5.6,11.9-8.3c2.4-2.7,5-5.4,7.7-7.9c2.2-5.8,3.4-12,3.5-18.2
		c0.2-10.3-7.8-17.1-4.8-28.2C28-13,28-16,28-21C27.9-21,26.9-21.3,26.8-21.4z"/>
	<path id="kravev-5_1_" class="st4" d="M17.6-19.2c0,0,7.5,1.9,8.8,5c0,0,5.1-8.8,1.7-14.6"/>
	<path id="skjorte-5_1_" class="st5" d="M22.3-21.8c0,0-4.2,14.4-5.9,39.5c-1.6,24.8-8.8,37.4-8.8,37.4"/>
	<path id="kraveh-5_1_" class="st4" d="M6.2-25.8c0,0,0.1,9.2,5.8,15c0,0,6.7-8.2,11.6-8.7"/>
	<path id="dut-5_1_" class="st4" d="M21.1,57.4"/>
	<path class="st3" d="M-7.7-56.2c0,0-12.3,38.5,23.6,38.5c3.8,0.1,7.5-0.5,11.1-1.6C49.9-27,43.5-59.4,43.5-59.4S16.4-71.8-7.7-56.2
		z"/>
	<ellipse transform="matrix(0.9714 -0.2373 0.2373 0.9714 11.709 2.8975)" class="st6" cx="17.9" cy="-47.2" rx="10.4" ry="10.8"/>
	<ellipse transform="matrix(0.9714 -0.2373 0.2373 0.9714 12.3629 8.5015)" class="st6" cx="41.5" cy="-47.1" rx="6" ry="6.5"/>
	<circle cx="12.5" cy="-48.8" r="1"/>
	<path class="st7" d="M26.4-29.8c0,0,0.5-5.8,6.5-5.8s4.6,6.2,4.6,6.2s-1.3,2.7-3.2-0.8s-4.3,0-4.3,0S28.3-26.9,26.4-29.8z"/>
	<path class="st4" d="M27.7-43.7c0,0-2,7.8-6.1,10"/>
	<path class="st4" d="M35.7-45.1c0,0-0.3,5,2.8,6.7"/>
	<circle cx="44.9" cy="-46.9" r="0.9"/>
	<g id="armh-5_1_">
		<path class="st0" d="M6.3,7.1C-9.7,1-11.8-20.3-12-22.6l1.7,1c3.5,2.2,6.8,4.2,9.1,8.2C-1.9-5.7,4.2,0.1,8,2.8
			C7.8,3.6,7.5,4.3,7.1,5C6.8,5.7,6.5,6.4,6.3,7.1z"/>
		<path class="st9" d="M-11.8-22.3l1.4,0.9c3.5,2.2,6.8,4.2,9,8C-2-5.6,4,0.1,7.8,2.9C7.6,3.6,7.3,4.2,7,4.9c-0.3,0.6-0.6,1.3-0.8,2
			c-15.4-6-17.8-26.1-18.1-29.3 M-12.3-23l0.1,0.1c0,0,1.3,23.6,18.5,30.1C6.6,5.6,7.7,4.3,8,2.7C4-0.2-1.8-5.9-1.2-13.5
			C-3.9-18.2-8.1-20.3-12.3-23z"/>
	</g>
	<path class="st3" d="M6.4,7.3l3.1,1.9c0,0,3.6,2.7,0.8-0.9c0,0,5.1,2.1,0.8-1c0,0,5.4,1.4,0.7-1.4c0,0-1.8-1.4,0.3-1
		c0,0,2.5-0.4-3.9-2.1C8.1,2.8,6.3,6.4,6.4,7.3z"/>
	<path class="st0" d="M-19.9-80.2c-2.6,2.8-3.9,6.1-5.6,9.5c-1.3,2.3-3.1,4.2-5.3,5.6c-1.9,1.2-2.9,2.1-4.7,3.3s-4,1.1-6.1,0.8
		c3.4,1.5,6.1,1.3,9.8,0.5c3.8-0.8,7.4-2.1,10.8-3.9c3.2-1.9,5.4-0.7,8.5,0.8"/>
	<circle class="st8" cx="-44.3" cy="-64.5" r="5.1"/>
</symbol>
<symbol  id="gut_6" viewBox="-50 -100 100 200">
	<path id="hue-6_1_" class="st0" d="M43.5-58.4c2.7,1,0.2-3.6,0.2-3.6l-9.9-17.6C20.4-91-19-80-19-80c-0.8,0.9-1.4,1.9-2,3
		c-3.1,7.9,3,12,6.2,15.4c0,0,1.7,7.2,4,8.3s3.1-1.9,3.1-1.9"/>
	<path id="armv-6_1_" class="st0" d="M25.4-1C28-7.1,29.6-15.8,28-19.7c-2.4,4.4-7,11.8-6.7,11.5c0,0-8.8,15.7-3.4,26.4
		c1.5-1.4,3.2-2.5,5-3.2C21.6,11.3,23.8,2.9,25.4-1z"/>
	<path class="st1" d="M16.5,17.5l1,2.8c0,0,2.3,6,1.5,0.2c0,0,2.5,5.8,1.6-0.2c0,0,2.7,4.2,1.4-0.8c0,0-1.2-3,1.4-0.7
		c0,0,2.2,1.5-1.7-4.1C19.8,15.2,18,16.1,16.5,17.5z"/>
	<rect id="Baggrund-6_1_" x="-50" y="-100" class="st2" width="100" height="200"/>
	<path id="bagben-7_1_" class="st1" d="M10.8,49.8c0,0,8,0.4,9.2,3.2s3.3,11.4,3.3,11.4s-2.9,10.9,6.9,8.2c0,0,9.8-0.9,7.2-3.6
		s-6.3-1.3-9-2.9c0,0,0.3-12,1.3-15.2S23.4,38.8,13.2,34"/>
	<path id="bagben-8_1_" class="st3" d="M-16.5,43.6c0,0-1.3,7.9-4.2,8.8s-11.7,2-11.7,2s-10.5-4.1-8.9,6c0,0-0.2,9.8,2.8,7.5
		s2-6.1,3.9-8.6c0,0,11.9,1.6,15,3s12.7-4.9,18.7-14.5"/>
	<path id="krop-6_1_" class="st0" d="M26.8-21.4l-35.1-9.7l-5.5,9.8C-16-17-30.5,16.3-27.5,35.4c0.1,0.9,0.4,0.6,1.3,2.6
		c2.5,5.8,7.3,7.6,12.5,9.9c7.8,3.5,16.6,6,21.7,8c3.7-2.1,9.8-5.6,11.9-8.3c2.4-2.7,5-5.4,7.7-7.9c2.2-5.8,3.4-12,3.5-18.2
		c0.2-10.3-7.8-17.1-4.8-28.2C28-13,28-16,28-21C27.9-21,26.9-21.3,26.8-21.4z"/>
	<path id="kravev-6_1_" class="st4" d="M17.5-20.7c0,0,7,3.4,7.6,6.8c0,0,6.8-7.5,4.7-13.9"/>
	<path id="skjorte-6_1_" class="st5" d="M22.3-21.8c0,0-4.2,14.4-5.9,39.5c-1.6,24.8-8.8,37.4-8.8,37.4"/>
	<path id="kraveh-6_1_" class="st4" d="M7.2-25.8c0,0,0.1,9.2,5.8,15c0,0,6.7-8.2,11.6-8.7"/>
	<path id="dut-6_1_" class="st4" d="M21.1,57.4"/>
	<path class="st3" d="M-7.7-56.2c0,0-12.3,38.5,23.6,38.5c3.8,0.1,7.5-0.5,11.1-1.6C49.9-27,43.5-59.4,43.5-59.4S16.4-71.8-7.7-56.2
		z"/>
	<ellipse transform="matrix(0.9714 -0.2373 0.2373 0.9714 11.709 2.8975)" class="st6" cx="17.9" cy="-47.2" rx="10.4" ry="10.8"/>
	<ellipse transform="matrix(0.9714 -0.2373 0.2373 0.9714 12.3629 8.5015)" class="st6" cx="41.5" cy="-47.1" rx="6" ry="6.5"/>
	<circle cx="12.5" cy="-49.8" r="1"/>
	<path class="st7" d="M26.4-29.8c0,0,0.5-5.8,6.5-5.8s4.6,6.2,4.6,6.2s-1.3,2.7-3.2-0.8s-4.3,0-4.3,0S28.3-26.9,26.4-29.8z"/>
	<path class="st4" d="M27.7-43.7c0,0-2,7.8-6.1,10"/>
	<path class="st4" d="M35.7-45.1c0,0-0.3,5,2.8,6.7"/>
	<circle cx="44.9" cy="-47.9" r="0.9"/>
	<g id="armh-6_1_">
		<path class="st0" d="M6.3,7.1C-9.7,1-11.8-20.3-12-22.6l1.7,1c3.5,2.2,6.8,4.2,9.1,8.2C-1.9-5.7,4.2,0.1,8,2.8
			C7.8,3.6,7.5,4.3,7.1,5C6.8,5.7,6.5,6.4,6.3,7.1z"/>
		<path class="st9" d="M-11.8-22.3l1.4,0.9c3.5,2.2,6.8,4.2,9,8C-2-5.6,4,0.1,7.8,2.9C7.6,3.6,7.3,4.2,7,4.9c-0.3,0.6-0.6,1.3-0.8,2
			c-15.4-6-17.8-26.1-18.1-29.3 M-12.3-23l0.1,0.1c0,0,1.3,23.6,18.5,30.1C6.6,5.6,7.7,4.3,8,2.7C4-0.2-1.8-5.9-1.2-13.5
			C-3.9-18.2-8.1-20.3-12.3-23z"/>
	</g>
	<path class="st3" d="M6.4,7.3l3.1,1.9c0,0,3.6,2.7,0.8-0.9c0,0,5.1,2.1,0.8-1c0,0,5.4,1.4,0.7-1.4c0,0-1.8-1.4,0.3-1
		c0,0,2.5-0.4-3.9-2.1C8.1,2.8,6.3,6.4,6.4,7.3z"/>
	<path class="st0" d="M-19-80.2c-3.3,2-4.7,5-6.5,8.3c-1.6,1.9-3.7,3.3-6.1,3.9c-2.2,0.4-2.7-0.1-5-0.6s-3.4-3.1-4.5-5.3
		c-0.1,4.2,2.4,6.9,6.1,9c3.9,2.2,8.7,2.2,12.6,0c3.7-2.2,5.3,0.3,8,2.3"/>
	<circle class="st8" cx="-41.3" cy="-78.5" r="5.1"/>
</symbol>
<symbol  id="gut_7" viewBox="-50 -100 100 200">
	<path id="hue-7_1_" class="st0" d="M43.5-54.4c2.7,1,0.2-3.6,0.2-3.6l-9.9-17.6C20.4-87-19-76-19-76c-0.8,0.9-1.4,1.9-2,3
		c-3.1,7.9,3,12,6.2,15.4c0,0,1.7,7.2,4,8.3s3.1-1.9,3.1-1.9"/>
	<rect id="Baggrund-7_1_" x="-50" y="-100" class="st2" width="100" height="200"/>
	<path id="forben-5_1_" class="st1" d="M2.9,51c0,0,12.7,14.1,14.4,16.6s6.1,10.7,6.1,10.7S22.8,91,31.6,82c0,0,7-5.1,3.8-7
		s-4.7,1-6.4,2.8c0,0-2.1-11.8-2.9-15c-0.9-3.6-3.4-9.4-12-20.5"/>
	<path id="bagben-9_1_" class="st3" d="M-14.2,42.2c0,0-0.4,8-3.1,9.2s-11.4,3.4-11.4,3.4s-12.7-4.5-6.3,6.4c0,0,3,8.2,5.7,5.6
		s0.4-4.8-1-7c0,0,12,0.3,15.2,1.3S-3,54.8,1.8,44.5"/>
	<path id="krop-7_1_" class="st0" d="M26.8-16.4l-35.1-9.7l-5.5,9.8C-16-12-30.5,21.3-27.5,40.4c0.1,0.9,0.4,0.6,1.3,2.6
		c2.5,5.8,7.3,7.6,12.5,9.9c7.8,3.5,16.6,6,21.7,8c3.7-2.1,9.8-5.6,11.9-8.3c2.4-2.7,5-5.4,7.7-7.9c2.2-5.8,3.4-12,3.5-18.2
		c0.2-10.3-7.8-17.1-4.8-28.2C28-8,28-11,28-16C27.9-16,26.9-16.3,26.8-16.4z"/>
	<path id="kravev-7_1_" class="st4" d="M17.6-15.2c0,0,7.5,1.9,8.8,5c0,0,5.1-8.8,1.7-14.6"/>
	<path id="skjorte-7_1_" class="st5" d="M22.3-16.8c0,0-4.2,14.4-5.9,39.5c-1.6,24.8-8.8,37.4-8.8,37.4"/>
	<path id="kraveh-7_1_" class="st4" d="M6.2-20.8c0,0,0.1,9.2,5.8,15c0,0,6.7-8.2,11.6-8.7"/>
	<path id="dut-7_1_" class="st4" d="M21.1,57.4"/>
	<path class="st3" d="M-7.7-51.2c0,0-12.3,38.5,23.6,38.5c3.8,0.1,7.5-0.5,11.1-1.6C49.9-22,43.5-54.4,43.5-54.4S16.4-66.8-7.7-51.2
		z"/>
	<path class="st3" d="M7.8,14.1l3.3,1.7c0,0,3.8,2.4,0.7-0.9c0,0,5.2,1.7,0.7-1.1c0,0,5.5,1,0.6-1.5c0,0-1.9-1.2,0.2-1
		c0,0,2.4-0.6-4-1.8C9.3,9.5,7.7,13.2,7.8,14.1z"/>
	<ellipse transform="matrix(0.9714 -0.2373 0.2373 0.9714 10.523 3.04)" class="st6" cx="17.9" cy="-42.2" rx="10.4" ry="10.8"/>
	<ellipse transform="matrix(0.9714 -0.2373 0.2373 0.9714 11.1759 8.6442)" class="st6" cx="41.5" cy="-42.1" rx="6" ry="6.5"/>
	<circle cx="12.5" cy="-45.8" r="1"/>
	<path class="st7" d="M26.4-24.8c0,0,0.5-5.8,6.5-5.8s4.6,6.2,4.6,6.2s-1.3,2.7-3.2-0.8s-4.3,0-4.3,0S28.3-21.9,26.4-24.8z"/>
	<path class="st4" d="M27.7-38.7c0,0-2,7.8-6.1,10"/>
	<path class="st4" d="M35.7-40.1c0,0-0.3,5,2.8,6.7"/>
	<circle cx="44.9" cy="-43.9" r="0.9"/>
	<g id="armh-7_1_">
		<path class="st0" d="M8.3,14.1C-7.7,8-9.8-13.3-10-15.6l1.7,1c3.5,2.2,6.8,4.2,9.1,8.2C0.1,1.3,6.2,7.1,10,9.8
			c-0.2,0.7-0.5,1.5-0.8,2.2C8.8,12.7,8.5,13.4,8.3,14.1z"/>
		<path class="st9" d="M-9.8-15.3l1.4,0.9c3.5,2.2,6.8,4.2,9,8C0,1.4,6,7.1,9.8,9.9c-0.2,0.7-0.5,1.4-0.8,2s-0.6,1.3-0.8,2
			C-7.2,7.9-9.6-12.2-9.8-15.3 M-10.3-16l0.1,0.1c0,0,1.3,23.6,18.5,30.1c0.3-1.6,1.4-2.9,1.7-4.5C6,6.8,0.2,1.1,0.8-6.5
			C-1.9-11.2-6.1-13.3-10.3-16z"/>
	</g>
	<path class="st0" d="M-18.4-76.1c-3.3,1.3-5.2,4.3-6.8,7.3c-1.8,2-3.1,3.1-5.9,2s-2.6-2.5-5.8-0.5c-3.3,2-3.7,0.3-6.5-0.9
		c2.4,5,7.5,1.5,9.5,5.5s8,3.9,11.3,1.7s5.3,0.6,7.6,2.9"/>
	<circle class="st8" cx="-44.3" cy="-72.5" r="5.1"/>
</symbol>
<symbol  id="gut_8" viewBox="-50 -100 100 200">
	<path id="hue-8_1_" class="st0" d="M43.5-54.4c2.7,1,0.2-3.6,0.2-3.6l-9.9-17.6C20.4-87-19-76-19-76c-0.8,0.9-1.4,1.9-2,3
		c-3.1,7.9,3,12,6.2,15.4c0,0,1.7,7.2,4,8.3s3.1-1.9,3.1-1.9"/>
	<rect id="Baggrund-8_1_" x="-50" y="-100" class="st2" width="100" height="200"/>
	<path id="bagben-10_1_" class="st1" d="M3.8,44.2c0,0-0.4,8-3.1,9.2s-11.4,3.4-11.4,3.4s-12.7-4.4-6.3,6.4c0,0,3,8.2,5.7,5.6
		s0.3-4.8-1-7c0,0,12,0.3,15.2,1.3c3.2,1,12.1-6.3,16.9-16.6"/>
	<path id="forben-6_1_" class="st3" d="M-18.7,50.5c0,0,12.2,14.5,13.8,17.1s5.8,10.9,5.8,10.9s-1,12.7,8,3.9c0,0,7.2-4.9,4-6.8
		s-4.7,0.8-6.5,2.6c0,0-1.8-11.8-2.5-15.1c-0.8-3.6-3.1-9.5-11.3-20.8"/>
	<path id="armh-8_1_" class="st0" d="M-9.2-17.1c0,0-16.6,16.8-9.8,33.9c1.4-0.8,3.1-0.9,4.5-1.8C-15,10.1-14.8,2-8.7-2.7
		c1.6-5.2,0.3-9.7-0.5-14.6V-17.1z"/>
	<path id="krop-8_1_" class="st0" d="M26.8-16.4l-35.1-9.7l-5.5,9.8C-16-12-30.5,21.3-27.5,40.4c0.1,0.9,0.4,0.6,1.3,2.6
		c2.5,5.8,7.3,7.6,12.5,9.9c7.8,3.5,16.6,6,21.7,8c3.7-2.1,9.8-5.6,11.9-8.3c2.4-2.7,5-5.4,7.7-7.9c2.2-5.8,3.4-12,3.5-18.2
		c0.2-10.3-7.8-17.1-4.8-28.2C28-8,28-11,28-16C27.9-16,26.9-16.3,26.8-16.4z"/>
	<path id="kravev-8_1_" class="st4" d="M17.6-14.2c0,0,7.5,1.9,8.8,5c0,0,5.1-8.8,1.7-14.6"/>
	<path id="skjorte-8_1_" class="st5" d="M22.3-16.8c0,0-4.2,14.4-5.9,39.5c-1.6,24.8-8.8,37.4-8.8,37.4"/>
	<path id="kraveh-8_1_" class="st4" d="M7.2-20.8c0,0,0.1,9.2,5.8,15c0,0,6.7-8.2,11.6-8.7"/>
	<path id="dut-8_1_" class="st4" d="M21.1,57.4"/>
	<path class="st3" d="M-7.7-51.2c0,0-12.3,38.5,23.6,38.5c3.8,0.1,7.5-0.5,11.1-1.6C49.9-22,43.5-54.4,43.5-54.4S16.4-66.8-7.7-51.2
		z"/>
	<path class="st3" d="M-19,16.8l0.7,3.6c0,0,0.4,4.5,1.1,0c0,0,1.9,5.1,1.3-0.1c0,0,2.6,4.9,1.5-0.4c0,0-0.2-2.3,0.9-0.4
		c0,0,2,1.6-1.1-4.3C-14.5,15.1-18.4,16.2-19,16.8z"/>
	<ellipse transform="matrix(0.9714 -0.2373 0.2373 0.9714 10.523 3.04)" class="st6" cx="17.9" cy="-42.2" rx="10.4" ry="10.8"/>
	<ellipse transform="matrix(0.9714 -0.2373 0.2373 0.9714 11.1759 8.6442)" class="st6" cx="41.5" cy="-42.1" rx="6" ry="6.5"/>
	<circle cx="12.5" cy="-45.8" r="1"/>
	<path class="st7" d="M26.4-24.8c0,0,0.5-5.8,6.5-5.8s4.6,6.2,4.6,6.2s-1.3,2.7-3.2-0.8s-4.3,0-4.3,0S28.3-21.9,26.4-24.8z"/>
	<path class="st4" d="M27.7-38.7c0,0-2,7.8-6.1,10"/>
	<path class="st4" d="M35.7-40.1c0,0-0.3,5,2.8,6.7"/>
	<circle cx="44.9" cy="-43.9" r="0.9"/>
	<g id="armh-9_1_">
		<path class="st0" d="M-18.5,17.1c-6.5-15.9,7.8-32,9.3-33.6c0.1,0.7,0.2,1.3,0.4,1.9C-8-10.5-7.3-6.7-8.5-2.4
			c-6.1,4.8-6.2,13.2-5.6,17.8c-0.7,0.4-1.4,0.7-2.1,0.9C-17.1,16.4-17.8,16.7-18.5,17.1z"/>
		<path class="st9" d="M-9.3-16.3l0.3,1.7c0.8,4,1.5,7.8,0.3,12.1c-6.1,4.9-6.2,13.2-5.7,17.8c-0.6,0.3-1.3,0.6-2,0.8
			c-0.7,0.2-1.4,0.5-2,0.8C-24.5,1.6-11.4-13.9-9.3-16.3 M-9.1-17v0.2c0,0-16.4,17-9.4,34c1.4-0.8,3.1-1,4.5-1.8
			c-0.6-4.9-0.4-13,5.6-17.8C-6.9-7.6-8.2-12.1-9.1-17L-9.1-17z"/>
	</g>
	<path class="st0" d="M-16.5-76.6c-3.4,1.4-5.2,3.9-7.1,7c-2.3,2-4.3,0.9-6-1.3c-1.7-2.2-1.6-5.8-5-5.6c-3.3,0.2-4.9,1.5-7.1-1.5
		c0.6,4.7,5.9,1.7,8,8.6s6.3,8,11.2,7.4s4.6,0.9,7.6,3.9"/>
	<circle class="st8" cx="-40.3" cy="-82.5" r="5.1"/>
</symbol>
<symbol  id="gut_9" viewBox="-50 -100 100 200">
	<path id="hue-9_1_" class="st0" d="M43.5-50.4c2.7,1,0.2-3.6,0.2-3.6l-9.9-17.6C20.4-83-19-72-19-72c-0.8,0.9-1.4,1.9-2,3
		c-3.1,7.9,3,12,6.2,15.4c0,0,1.7,7.2,4,8.3s3.1-1.9,3.1-1.9"/>
	<rect id="Baggrund-9_1_" x="-50" y="-100" class="st2" width="100" height="200"/>
	<path id="bagben-11_1_" class="st1" d="M-9.2,48.2c0,0-0.4,8-3.1,9.2s-11.4,3.4-11.4,3.4s-12.7-4.4-6.3,6.4c0,0,3,8.2,5.7,5.6
		s0.4-4.8-1-7c0,0,12,0.3,15.2,1.3S2,60.8,6.8,50.5"/>
	<path id="bagben-12_1_" class="st3" d="M-4.2,59.5c0,0,7.5,2.8,7.8,5.7c0.3,2.9-0.2,11.9-0.2,11.9s-8,10.8,4.2,8c0,0,8.7-0.4,7-3.7
		s-4.5-1.8-6.9-1.2c0,0,3.9-11.4,5.8-14.1c1.9-2.7-2.4-13.4-10.7-21.1"/>
	<path id="armh-10_1_" class="st0" d="M-8.3-20.9c0,0-21.3,10.2-20.7,28.6c1.6-0.3,3.2,0.2,4.8-0.1C-23,2.8-20-4.7-12.7-7.1
		C-9.4-11.4-9.1-16.2-8.3-20.9L-8.3-20.9z"/>
	<path id="krop-9_1_" class="st0" d="M26.8-12.4l-35.1-9.7l-5.5,9.8C-16-8-30.5,25.3-27.5,44.4c0.1,0.9,0.4,0.6,1.3,2.6
		c2.5,5.8,7.3,7.6,12.5,9.9c7.8,3.5,16.6,6,21.7,8c3.7-2.1,9.8-5.6,11.9-8.3c2.4-2.7,5-5.4,7.7-7.9c2.2-5.8,3.4-12,3.5-18.2
		c0.2-10.3-7.8-17.1-4.8-28.2C28-4,28-7,28-12C27.9-12,26.9-12.3,26.8-12.4z"/>
	<path id="armv-7_1_" class="st0" d="M31.9,5c0-6.6-1.9-15.1-4.8-18.1c-0.5,5-1.8,13.5-1.7,13.1c0,0-2,17.8,7,25.5
		c0.8-1.8,1.9-3.5,3.3-4.9C33.2,17.8,32,9.2,31.9,5z"/>
	<path id="kravev-9_1_" class="st4" d="M17.6-11.2c0,0,7.5,1.9,8.8,5c0,0,5.1-8.8,1.7-14.6"/>
	<path id="skjorte-9_1_" class="st5" d="M22.3-12.8c0,0-4.2,14.4-5.9,39.5c-1.6,24.8-8.8,37.4-8.8,37.4"/>
	<path id="kraveh-9_1_" class="st4" d="M8.2-17.8c0,0,0.1,9.2,5.8,15c0,0,6.7-8.2,11.6-8.7"/>
	<path id="dut-9_1_" class="st4" d="M21.1,57.4"/>
	<path class="st3" d="M-7.7-47.2c0,0-12.3,38.5,23.6,38.5c3.8,0.1,7.5-0.5,11.1-1.6C49.9-18,43.5-50.4,43.5-50.4S16.4-62.8-7.7-47.2
		z"/>
	<path class="st3" d="M-29.1,7.7l-0.5,3.6c0,0-1.1,4.4,1.1,0.4c0,0,0,5.5,1.2,0.3c0,0,0.8,5.5,1.6,0.1c0,0,0.5-2.2,1-0.1
		c0,0,1.3,2.2,0.5-4.4C-24.3,7.6-28.3,7.3-29.1,7.7z"/>
	<path class="st1" d="M32.5,25.6l2.2,2.1c0,0,4.8,4.3,1.4-0.6c0,0,4.9,4,1.3-0.9c0,0,4.3,2.5,0.9-1.3c0,0-2.4-2.1,0.9-1.3
		c0,0,2.6,0.4-3.4-2.9C34.3,22,33.2,23.7,32.5,25.6z"/>
	<ellipse transform="matrix(0.9714 -0.2373 0.2373 0.9714 9.574 3.1545)" class="st6" cx="17.9" cy="-38.2" rx="10.4" ry="10.8"/>
	<ellipse transform="matrix(0.9714 -0.2373 0.2373 0.9714 10.2269 8.7586)" class="st6" cx="41.5" cy="-38.1" rx="6" ry="6.5"/>
	<circle cx="12.5" cy="-41.8" r="1"/>
	<path class="st7" d="M26.4-20.8c0,0,0.5-5.8,6.5-5.8s4.6,6.2,4.6,6.2s-1.3,2.7-3.2-0.8s-4.3,0-4.3,0S28.3-17.9,26.4-20.8z"/>
	<path class="st4" d="M27.7-34.7c0,0-2,7.8-6.1,10"/>
	<path class="st4" d="M35.7-36.1c0,0-0.3,5,2.8,6.7"/>
	<circle cx="44.9" cy="-39.9" r="0.9"/>
	<path class="st0" d="M-19-72.2c-3.3,2-4.7,5-6.5,8.3c-1.6,1.9-3.7,3.3-6.1,3.9c-2.2,0.4-2.7-0.1-5-0.6s-3.4-3.1-4.5-5.3
		c-0.1,4.2,2.4,6.9,6.1,9c3.9,2.2,8.7,2.2,12.6,0c3.7-2.2,5.3,0.3,8,2.3"/>
	<circle class="st8" cx="-41.3" cy="-70.5" r="5.1"/>
</symbol>
<g id="spritesheet">
	
		<use xlink:href="#gut_1"  width="100" height="200" x="-50" y="-100" transform="matrix(1 0 0 1 50 1100)" style="overflow:visible;"/>
	
		<use xlink:href="#gut_2"  width="100" height="200" x="-50" y="-100" transform="matrix(1 0 0 1 150 1100)" style="overflow:visible;"/>
	
		<use xlink:href="#gut_3"  width="100" height="200" x="-50" y="-100" transform="matrix(1 0 0 1 250 1100)" style="overflow:visible;"/>
	
		<use xlink:href="#gut_4"  width="100" height="200" x="-50" y="-100" transform="matrix(1 0 0 1 350 1100)" style="overflow:visible;"/>
	
		<use xlink:href="#gut_5"  width="100" height="200" x="-50" y="-100" transform="matrix(1 0 0 1 450 1100)" style="overflow:visible;"/>
	
		<use xlink:href="#gut_6"  width="100" height="200" x="-50" y="-100" transform="matrix(1 0 0 1 550 1100)" style="overflow:visible;"/>
	
		<use xlink:href="#gut_7"  width="100" height="200" x="-50" y="-100" transform="matrix(1 0 0 1 650 1100)" style="overflow:visible;"/>
	
		<use xlink:href="#gut_8"  width="100" height="200" x="-50" y="-100" transform="matrix(1 0 0 1 750 1100)" style="overflow:visible;"/>
	
		<use xlink:href="#gut_9"  width="100" height="200" x="-50" y="-100" transform="matrix(1 0 0 1 850 1100)" style="overflow:visible;"/>
	
		<use xlink:href="#gut_10"  width="100" height="200" x="-50" y="-100" transform="matrix(1 0 0 1 950 1100)" style="overflow:visible;"/>
	
		<use xlink:href="#gut_11"  width="100" height="200" x="-50" y="-100" transform="matrix(1 0 0 1 1050 1100)" style="overflow:visible;"/>
	
		<use xlink:href="#gut_12"  width="100" height="200" x="-50" y="-100" transform="matrix(1 0 0 1 1150 1100)" style="overflow:visible;"/>
	
		<use xlink:href="#_13"  width="100" height="200" x="-50" y="-100" transform="matrix(1 0 0 1 1250 1100)" style="overflow:visible;"/>
</g>
<g>
	
		<use xlink:href="#drej_x5F_5"  width="100" height="200" x="-50" y="-100" transform="matrix(1 0 0 -1 450 901)" style="overflow:visible;"/>
	
		<use xlink:href="#drej_x5F_4"  width="100" height="200" x="-50" y="-100" transform="matrix(1 0 0 -1 349.985 901)" style="overflow:visible;"/>
	
		<use xlink:href="#drej_x5F_3"  width="100" height="200" x="-50" y="-100" transform="matrix(0.9994 0 0 -1 250 901)" style="overflow:visible;"/>
	
		<use xlink:href="#drej_x5F_2"  width="100" height="200" x="-50" y="-100" transform="matrix(1 0 0 -1 150.015 901)" style="overflow:visible;"/>
	
		<use xlink:href="#drej_x5F_1"  width="100" height="200" x="-50" y="-100" transform="matrix(1 0 0 -1 50 901)" style="overflow:visible;"/>
</g>
<use xlink:href="#drej_x5F_3"  width="100" height="200" id="XMLID_1_" x="-50" y="-100" transform="matrix(1 0 0 -1 50 300)" style="overflow:visible;enable-background:new    ;"/>
<path class="st3" d="M71.9,556.1c0,0,7,3.9,6.9,6.8c-0.1,2.9-2,11.7-2,11.7s-9.5,9.4,3,8.5c0,0,8.6,0.9,7.5-2.6
	c-1.2-3.6-4.1-2.4-6.7-2.2c0,0,5.5-10.7,7.8-13.1c2.3-2.4-0.3-13.6-7.5-22.5"/>
<path class="st3" d="M33.7,549.9c0,0,5.9,12,3.5,16.3c-2.4,4.4-7.4,4.3-8.9,7.5c-1.5,3.2-2.9,5.2,2,7.8c4.8,2.6,6.2,0,6.2,0
	s3-3-3.2-3.9c0,0,0.7-3,5.8-3.6c5.1-0.6,9.1-1.3,11.5-13.6"/>
<path class="st0" d="M79.3,493.9c-2.4-6.2-7.4-13.7-11.2-15.3l-36.4-0.1l-2.8,11c0,0-19,14.1-14.8,32c1.5-0.6,3.2-0.5,4.7-1.1
	c0.2-5,1.8-13.3,9-16.9c0,0-5,26.5,2.9,44.1c0.4,0.8,0.5,0.4,1.9,2.2c9.9,12.5,28.4,13.7,28.4,13.7s15.7-6.6,18.5-16.6
	c2.8-10.1,5.4-9.6,5.4-9.6s1.2-8.2-1.4-18.5c-2.6-10.3-12.7-14.8-12-27.2c0,0,4.5,17.3,15.7,21.3c0.1-1.9,0.5-3.8,1.4-5.7
	C85.1,505.4,80.9,497.8,79.3,493.9z"/>
<path class="st0" d="M73.2,437.1c2.8,0.4-0.7-3.5-0.7-3.5l-13.8-14.7C43,410.9,6.9,431,6.9,431c-4,10.3,11.5,45,11.5,45
	s-1.1-6.2-1.4-11.3c-0.2-2.9,0.9-5.5,0-6.5c-2.3-2.8-1.4-2.8-1-3.8c0.3-0.8,0.9-2.3-1.1-3c-1.5-0.6-2.6-3.8,0.9-3.6
	c0,0,3.3,6.6,5.9,7.1c2.5,0.5,2.6-2.6,2.6-2.6"/>
<path class="st4" d="M50.7,485.3c0,0,6.4,4.4,6.6,7.8c0,0,7.8-6.4,6.6-13.1"/>
<path class="st5" d="M50.6,484.8c0,0,1.3,14.8,6.8,38.9C62.9,547.8,61,563,61,563"/>
<path class="st4" d="M33.1,480.1c0,0,0.7,9.1,6.8,14.6c0,0,6.2-8.6,11-9.4"/>
<circle class="st8" cx="19.1" cy="480.1" r="5.1"/>
<path class="st3" d="M24.3,452.3c0,0-2.8,40.3,32.1,31.8c4.2-1,7.6-2.5,10.4-4.2c20.4-12.8,6.4-42.8,6.4-42.8S43.9,431.5,24.3,452.3
	z"/>
<path class="st3" d="M14.1,521.5l0.2,3.6c0,0-0.2,4.5,1.1,0.1c0,0,1.1,5.4,1.3,0.1c0,0,1.9,5.3,1.6-0.2c0,0,0.1-2.3,1-0.3
	c0,0,1.7,1.8-0.4-4.4C18.8,520.4,14.8,521,14.1,521.5z"/>
<path class="st3" d="M87.2,512.9l2.8,1.2c0,0,6,2.3,1.1-1c0,0,6,1.9,0.9-1.3c0,0,4.9,0.8,0.4-1.6c0,0-3-1.1,0.3-1.5
	c0,0,2.6-0.6-4.2-1.5C88.5,507.1,87.1,509.9,87.2,512.9z"/>
<ellipse class="st6" cx="40.3" cy="458" rx="10.4" ry="10.8"/>
<circle class="st6" cx="66.9" cy="451.4" r="9.5"/>
<path d="M34.1,454.8c0.6,0,1,0.4,1,1c0,0.6-0.4,1-1,1s-1-0.4-1-1S33.5,454.8,34.1,454.8z"/>
<circle cx="69.6" cy="447.9" r="0.7"/>
<path class="st7" d="M50.6,474.9c0,0-0.9-5.7,4.9-7.2s6,4.9,6,4.9s-0.7,2.9-3.3,0s-4.2,1-4.2,1S53.2,477.3,50.6,474.9z"/>
<path class="st4" d="M50.6,459.1c0,0-0.1,8.1-3.6,11.1"/>
<path class="st4" d="M58.7,456.1c0,0,1.5,7.1,6.8,8.5"/>
<g>
	
		<use xlink:href="#blink_5"  width="100" height="200" x="-50" y="-100" transform="matrix(1 0 0 1 550 700)" style="overflow:visible;"/>
	
		<use xlink:href="#blink_5"  width="100" height="200" x="-50" y="-100" transform="matrix(1 0 0 1 150 700)" style="overflow:visible;enable-background:new    ;"/>
	
		<use xlink:href="#blink_4"  width="100" height="200" x="-50" y="-100" transform="matrix(1 0 0 1 450 700)" style="overflow:visible;"/>
	
		<use xlink:href="#blink_3"  width="100" height="200" x="-50" y="-100" transform="matrix(1 0 0 1 350 700)" style="overflow:visible;"/>
	
		<use xlink:href="#blink_4"  width="100" height="200" x="-50" y="-100" transform="matrix(1 0 0 1 250 700)" style="overflow:visible;enable-background:new    ;"/>
	
		<use xlink:href="#blink_5"  width="100" height="200" x="-50" y="-100" transform="matrix(1 0 0 1 650 700)" style="overflow:visible;enable-background:new    ;"/>
	
		<use xlink:href="#blink_5"  width="100" height="200" x="-50" y="-100" transform="matrix(1 0 0 1 50 700)" style="overflow:visible;enable-background:new    ;"/>
</g>
<g>
	<g>
		<path class="st3" d="M232.6,879.1c1.9,0,1.9-3,0-3S230.7,879.1,232.6,879.1L232.6,879.1z"/>
	</g>
</g>
<g>
	<rect class="st2" width="100" height="200"/>
	<path class="st0" d="M69.9,120.4c0,0.3,0.6-2.5,0.6-2.2c0.7-4,0-5.9,0.6-10c-0.4-0.5,0-0.5-0.5-0.9c-12.3-1.7-24-5.4-36.1-7.4
		c-2,3.8-4.2,7.5-6.1,11.3c-0.2,0.1-1.8,3.8-2,3.9c-2,5.8-2.3,7.7-3.3,13.6c-2.1,12.8-3,25.9,1.5,39.1c0.2,0.7,0.9,1.1,1.9,2.2
		c7.6,7.5,17.2,12.7,28.4,13.8c6.9-1.8,16.2-10.5,18.5-15.2c2.4-4.7,1.7-7.7,5.9-9c-0.1-6,0.9-8.4-1.4-15.3
		C75.9,137.2,67.5,129.5,69.9,120.4z"/>
	<path class="st0" d="M82.2,77.8c-2.2-3.4-8-12.2-10.9-16.6c-17.4-8.1-36.3-3.5-54,1.7c-4.8,14.6-1.3,30.7,2.4,45.1
		c0.1-3.2,0.2-7.3,0.7-10.3c0.3-1.7,1.6-5,1.2-5.9c-1.1-2.4-1.2-2.4-0.3-4.1c0.8-1.7,1.1-1.7-0.5-3.3c-1.2-1.2-1.1-3.9,1.8-3.1
		c0.5,2.5,2.1,6.7,4.2,7.9c2,1.2,2.4-0.6,3.1-1.7l53-5.5C84.1,80.9,84.4,81.2,82.2,77.8z"/>
	<path class="st4" d="M49.9,111.8c2,3,3.9,6,4,9.7C59,118,63.7,114,65.7,108"/>
	<path class="st5" d="M50,111.2c-3.4,12.8-1.4,23.5,1.8,36c3.3,12.5,4.8,23.4,3.2,36.1"/>
	<path class="st4" d="M35.5,101.5c-0.8,6.3-0.7,11.9,1.7,18c3.7-3.5,7.8-6.8,12.9-7.6"/>
	<path class="st8" d="M20.6,107.3c2.7,0.5,4.6,2.7,4,5.5c-0.6,2.7-3.1,4.3-5.9,3.7c-2.7-0.5-4.5-2.9-4-5.6
		C15.3,108.2,17.9,106.8,20.6,107.3z"/>
	<path class="st3" d="M82.7,81.9c-19-7.2-35.5-4-52.9,5.7c-4.6,20.9,2.3,33.8,24.5,36.5c2.7,0.3,10-1.8,12.2-3
		C82.8,112.2,86,99.3,82.7,81.9z"/>
	<path class="st6" d="M47,85.3c5.9,0.9,9.2,6.3,8,12.1c-1.2,5.8-6.5,9.1-12.2,8c-5.7-1.1-9.5-5.7-8.3-11.4
		C35.6,88.2,41.1,84.4,47,85.3z"/>
	<path class="st6" d="M75.2,85.1c5.3,1.2,8.3,6,7,11.2c-1.3,5.2-6.2,8.1-11.4,7c-5.2-1.1-8.6-5.7-7.4-11.1
		C64.6,86.8,69.9,83.9,75.2,85.1z"/>
	<path d="M39.1,91.6c0.6,0.1,0.9,0.5,0.8,1.1c-0.1,0.6-0.6,0.9-1.2,0.8c-0.6-0.1-0.9-0.5-0.8-1.1C38.1,91.8,38.6,91.5,39.1,91.6z"/>
	<path d="M76.6,90.8c0.4,0.1,0.6,0.4,0.5,0.8c-0.1,0.4-0.5,0.6-0.9,0.5c-0.4-0.1-0.6-0.4-0.5-0.8C75.9,90.9,76.3,90.7,76.6,90.8z"/>
	<path class="st7" d="M51.4,113.5c0.6-3.6,3.2-5.4,6.6-5.8c3.4-0.4,6,2.9,5,5.4c-0.9,2.6-2.3,0.9-3.5-0.4c-1.1-1.3-3.2-1.7-4.4,0.3
		C54,114.8,52.9,115.1,51.4,113.5z"/>
	<path class="st4" d="M54.9,98.5c-0.9,3.9-2.5,7.3-5.8,9.7"/>
	<path class="st4" d="M63.6,97.2c0.1,4.1,1.7,7.2,5.1,9.5"/>
	<path class="st10" d="M25.7,123.8c-7.4,4.9,6.9,23.5,18.9,29.9c0.4-1.5,1.2-2.9,1.7-4.5c-5.7-4.2-7-12.1-9.1-16.3
		C35.6,129.7,28.8,121.8,25.7,123.8z"/>
	<path class="st10" d="M69.7,125.3c4.4,7.7-16.6,18-30.2,18.5c0.3-1.6,0.2-3.2,0.5-4.8c7-1.3,11.6-7.7,15.3-10.6
		C58.3,126.2,67.9,122.1,69.7,125.3z"/>
</g>
<path class="st3" d="M44.1,153.5l2.6,2.5c0,0,2.9,3.5,0.9-0.7c0,0,4.5,3.2,1-0.8c0,0,5,2.6,1-1.2c0,0-1.5-1.8,0.5-0.9
	c0,0,2.5,0.2-3.3-3C46.8,149.5,44.3,152.7,44.1,153.5z"/>
<path class="st3" d="M40.9,138.6c-6.2-2.2-4.4-0.5-4.4-0.5c2,0.9-0.3,1-0.3,1c-5.5-0.4-0.2,1.6-0.2,1.6c-5.3,0.1,0.1,1.3,0.1,1.3
	c-4.4,1.2,0.1,1.1,0.1,1.1l3.6,0.2C40.3,142.7,40.9,138.7,40.9,138.6z"/>
<path class="st3" d="M42,168c-0.4,4.1,5.6-0.9,5,4c-0.5,5-3.9,2-4,5.6c-0.1,3.5-0.7,5.9,4.9,6.4c5.4,0.5,5.7-2.4,5.7-2.4
	s1.6-3.9-4.5-2.4c0,0-0.5-3,4-5.6c4.5-2.5,8-7.7,4-11.7C49.6,158.3,42.5,163.1,42,168z"/>
<path class="st3" d="M70,168c0.7,0.3,3.1-3.9,3-1s-1.2,8-1.2,8s-9.5,9.4,3,8.5c0,0,8.6,0.9,7.5-2.6c-1.2-3.6-4.1-2.4-6.7-2.2
	c0,0,5.5-10.7,7.8-13.1s-5.2-9.5-9.4-9.6C69.5,155.9,65.8,166.5,70,168z"/>
<g>
	<path class="st3" d="M50,1368c0.7,0.3,3.1-3.9,3-1s-1.2,8-1.2,8s-9.5,9.4,3,8.5c0,0,8.6,0.9,7.5-2.6c-1.2-3.6-4.1-2.4-6.7-2.2
		c0,0,5.5-10.7,7.8-13.1s-5.2-9.5-9.4-9.6C49.6,1355.9,45.8,1366.5,50,1368z"/>
	<path class="st3" d="M15,1366.7c-3.8,1.6,3.5,4.4-1,6.3c-4.6,2-3.7-2.4-6.8-0.8c-3.2,1.6-5.5,2.3-3.2,7.4c2.2,5,4.9,3.8,4.9,3.8
		s4.2-0.5-0.1-5c0,0,2.4-1.9,6.8,0.7s10.6,3.2,12.1-2.3C27.1,1368.6,19.6,1364.8,15,1366.7z"/>
	<g>
		<rect x="0" y="1200" transform="matrix(-1 -4.489266e-11 4.489266e-11 -1 100 2600)" class="st2" width="100" height="200"/>
		<path class="st0" d="M58.3,1325.4c-6.6,5.9,10.2,22.3,23,26.9c0.2-1.6,0.8-3.1,1-4.7c-6.2-3.4-9.6-9.8-12.3-13.6
			C67.9,1331,61,1322.9,58.3,1325.4z"/>
		<path class="st0" d="M62.9,1326.4c-0.1,0.3,1.6-2.1,1.5-1.8c2.2-3.4,2.4-5.4,4.7-8.9c-0.2-0.7,0.2-0.4-0.1-1.1
			c-10.5-6.6-19.6-14.8-29.9-21.7c-3.4,2.6-6.9,5.1-10.2,7.7c-0.2,0-3.2,2.7-3.4,2.7c-4.2,4.4-5.3,6.1-8.6,11.1
			c-7.2,10.8-13.4,22.3-14.7,36.3c-0.1,0.7,0.3,1.4,0.9,2.8c3.8,10,10.5,18.7,20.2,24.2c7.1,1.3,19-2.9,23.1-6.2
			c4.1-3.3,4.7-6.3,9.1-5.7c2.4-5.5,4.3-7.2,5.1-14.5C61.4,1344.2,56.9,1333.7,62.9,1326.4z"/>
		<path class="st0" d="M95.2,1283.2c-1.7-3.7-6.1-13.3-8.2-18.1c-16-10.7-35.3-9.1-53.6-6.7c-7,13.7-6,30.1-4.6,45
			c0.6-3.2,1.3-7.2,2.2-10.1c0.6-1.6,2.4-4.7,2.1-5.6c-0.7-2.5-0.8-2.6,0.3-4.1c1.1-1.5,1.3-1.5,0-3.3c-1-1.4-0.5-4,2.2-2.8
			c0.1,2.5,1.1,7,2.9,8.5c1.8,1.5,2.5-0.2,3.4-1.2l53.2,2.7C96.5,1286.5,96.8,1286.9,95.2,1283.2z"/>
		<path class="st4" d="M48.2,1310.3c0.5,3.5,1.1,7.1-0.3,10.5c6.1-1.1,11.9-2.8,16.3-7.4"/>
		<path class="st5" d="M48.5,1309.9c-8.3,10.2-11,20.8-13.1,33.5c-2.2,12.7-5.2,23.3-12,34.2"/>
		<path class="st4" d="M39.3,1295c-3.4,5.4-5.5,10.6-5.9,17.1c4.8-1.7,9.9-2.9,14.9-1.6"/>
		<path class="st8" d="M29.8,1302.8c2.5,0.9,4.1,3.4,3.1,6s-3.8,3.7-6.4,2.8s-4-3.6-3-6.2C24.4,1302.8,27.2,1301.9,29.8,1302.8z"/>
		<path class="st3" d="M95,1287.3c-17.6-10.1-34.5-9.4-53.1-2.6c-7.7,19.9-2.9,33.8,18.5,39.8c2.6,0.7,10.2-0.2,12.5-1
			C90.5,1317.3,95.7,1305,95,1287.3z"/>
		<path class="st6" d="M59.2,1285.1c5.7,1.8,8.1,7.7,6.1,13.2c-2.1,5.5-7.9,8-13.3,6c-5.4-2-8.5-7.1-6.5-12.6
			S53.6,1283.3,59.2,1285.1z"/>
		<path class="st6" d="M87.1,1289.3c5.1,2,7.3,7.2,5.2,12.1c-2.1,4.9-7.3,7-12.3,5.2c-5-1.9-7.6-6.9-5.6-12.1S82,1287.3,87.1,1289.3
			z"/>
		<path d="M50.5,1290.1c0.6,0.2,0.8,0.6,0.6,1.2c-0.2,0.6-0.7,0.8-1.3,0.6c-0.6-0.2-0.8-0.6-0.6-1.2
			C49.4,1290.2,50,1289.9,50.5,1290.1z"/>
		<path d="M87.7,1295.2c0.4,0.1,0.5,0.5,0.4,0.9c-0.2,0.4-0.6,0.5-0.9,0.4c-0.4-0.1-0.6-0.5-0.4-0.9
			C86.9,1295.2,87.3,1295,87.7,1295.2z"/>
		<path class="st7" d="M59.2,1313.6c1.2-3.5,4-4.9,7.4-4.7c3.4,0.1,5.4,3.7,4.1,6.1c-1.3,2.4-2.4,0.5-3.3-1
			c-0.9-1.5-2.9-2.2-4.4-0.4C61.6,1315.4,60.4,1315.4,59.2,1313.6z"/>
		<path class="st4" d="M65,1299.4c-1.5,3.7-3.6,6.8-7.2,8.7"/>
		<path class="st4" d="M73.8,1299.4c-0.5,4,0.6,7.4,3.6,10.2"/>
		<path class="st10" d="M23.6,1311.8c-8.7,1.4-3.4,24.3,4.9,35.1c1-1.2,2.3-2.2,3.4-3.4c-3.4-6.2-1.4-13.9-1.6-18.6
			C30.1,1321.2,27.2,1311.2,23.6,1311.8z"/>
	</g>
	<path class="st3" d="M28.2,1346.5l2.6,2.5c0,0,2.9,3.5,0.9-0.7c0,0,4.5,3.2,1-0.8c0,0,5,2.6,1-1.2c0,0-1.5-1.8,0.5-0.9
		c0,0,2.5,0.2-3.3-3C30.9,1342.5,28.3,1345.7,28.2,1346.5z"/>
	<path class="st3" d="M80.8,1351.9l3.3,1.5c0,0,3.9,2.2,0.6-0.9c0,0,5.3,1.5,0.7-1.1c0,0,5.6,0.7,0.5-1.5c0,0-2-1.1,0.2-1
		c0,0,2.4-0.7-4.1-1.6C81.9,1347.2,80.6,1351,80.8,1351.9z"/>
</g>
<g>
	<rect x="99.8" class="st2" width="100" height="200"/>
	<path class="st0" d="M169.7,120.4c0,0.3,0.6-2.5,0.6-2.2c0.7-4,0-5.9,0.6-10c-0.4-0.5,0-0.5-0.5-0.9c-12.3-1.7-24-5.4-36.1-7.4
		c-2,3.8-4.2,7.5-6.1,11.3c-0.2,0.1-1.8,3.8-2,3.9c-2,5.8-2.3,7.7-3.3,13.6c-2.1,12.8-3,25.9,1.5,39.1c0.2,0.7,0.9,1.1,1.9,2.2
		c7.6,7.5,17.2,12.7,28.4,13.8c6.9-1.8,16.2-10.5,18.5-15.2c2.4-4.7,1.7-7.7,5.9-9c-0.1-6,0.9-8.4-1.4-15.3S167.3,129.5,169.7,120.4
		z"/>
	<path class="st0" d="M182,77.8c-2.2-3.4-8-12.2-10.9-16.6c-17.4-8.1-36.3-3.5-54,1.7c-4.8,14.6-1.3,30.7,2.4,45.1
		c0.1-3.2,0.2-7.3,0.7-10.3c0.3-1.7,1.6-5,1.2-5.9c-1.1-2.4-1.2-2.4-0.3-4.1s1.1-1.7-0.5-3.3c-1.2-1.2-1.1-3.9,1.8-3.1
		c0.5,2.5,2.1,6.7,4.2,7.9c2,1.2,2.4-0.6,3.1-1.7l53-5.5C183.9,80.9,184.3,81.2,182,77.8z"/>
	<path class="st4" d="M149.8,111.8c2,3,3.9,6,4,9.7c5.1-3.5,9.7-7.5,11.8-13.5"/>
	<path class="st5" d="M149.9,111.2c-3.4,12.8-1.4,23.5,1.8,36c3.3,12.5,4.8,23.4,3.2,36.1"/>
	<path class="st4" d="M135.4,101.5c-0.8,6.3-0.7,11.9,1.7,18c3.7-3.5,7.8-6.8,12.9-7.6"/>
	<path class="st8" d="M120.4,107.3c2.7,0.5,4.6,2.7,4,5.5c-0.6,2.7-3.1,4.3-5.9,3.7c-2.7-0.5-4.5-2.9-4-5.6
		C115.2,108.2,117.8,106.8,120.4,107.3z"/>
	<path class="st3" d="M182.5,81.9c-19-7.2-35.5-4-52.9,5.7c-4.6,20.9,2.3,33.8,24.5,36.5c2.7,0.3,10-1.8,12.2-3
		C182.7,112.2,185.9,99.3,182.5,81.9z"/>
	<path class="st6" d="M146.8,85.3c5.9,0.9,9.2,6.3,8,12.1c-1.2,5.8-6.5,9.1-12.2,8c-5.7-1.1-9.5-5.7-8.3-11.4S140.9,84.4,146.8,85.3
		z"/>
	<path class="st6" d="M175,85.1c5.3,1.2,8.3,6,7,11.2c-1.3,5.2-6.2,8.1-11.4,7c-5.2-1.1-8.6-5.7-7.4-11.1
		C164.4,86.8,169.7,83.9,175,85.1z"/>
	<path class="st7" d="M151.2,113.5c0.6-3.6,3.2-5.4,6.6-5.8c3.4-0.4,6,2.9,5,5.4s-2.3,0.9-3.5-0.4c-1.1-1.3-3.2-1.7-4.4,0.3
		C153.8,114.8,152.7,115.1,151.2,113.5z"/>
	<path class="st4" d="M154.7,98.5c-0.9,3.9-2.5,7.3-5.8,9.7"/>
	<path class="st4" d="M163.4,97.2c0.1,4.1,1.7,7.2,5.1,9.5"/>
	<path class="st10" d="M125.6,123.8c-7.4,4.9,6.9,23.5,18.9,29.9c0.4-1.5,1.2-2.9,1.7-4.5c-5.7-4.2-7-12.1-9.1-16.3
		C135.4,129.7,128.6,121.8,125.6,123.8z"/>
	<path class="st10" d="M169.6,125.3c4.4,7.7-16.6,18-30.2,18.5c0.3-1.6,0.2-3.2,0.5-4.8c7-1.3,11.6-7.7,15.3-10.6
		C158.1,126.2,167.7,122.1,169.6,125.3z"/>
	<path class="st8" d="M162.5,113.8c0,0,0.8,1,0.9,2.8c0.1,1.9,0.3,2.2,0,2.8c-0.3,0.7-0.9,0-0.9-2.8S162.5,113.8,162.5,113.8z"/>
</g>
<path class="st4" d="M154.9,97.4c0,0.2-8.9,0.4-20,0.4"/>
<path class="st4" d="M163.4,97.2c0,0,8.2,0,18.4,0"/>
<path class="st3" d="M144.6,170.1c-0.4,4.1,5.6-0.9,5,4c-0.5,5-3.9,2-4,5.6c-0.1,3.5-0.7,5.9,4.9,6.4c5.4,0.5,5.7-2.4,5.7-2.4
	s1.6-3.9-4.5-2.4c0,0-0.5-3,4-5.6c4.5-2.5,8-7.7,4-11.7C152.2,160.4,145.2,165.2,144.6,170.1z"/>
<path class="st3" d="M166.7,170.6c0.7,0.3,3.1-3.9,3-1c-0.1,2.9-1.2,8-1.2,8s-9.5,9.4,3,8.5c0,0,8.6,0.9,7.5-2.6
	c-1.2-3.6-4.1-2.4-6.7-2.2c0,0,5.5-10.7,7.8-13.1s-5.2-9.5-9.4-9.6C166.2,158.5,162.5,169,166.7,170.6z"/>
<path class="st3" d="M142.6,153.5l2.6,2.5c0,0,2.9,3.5,0.9-0.7c0,0,4.5,3.2,1-0.8c0,0,5,2.6,1-1.2c0,0-1.5-1.8,0.5-0.9
	c0,0,2.5,0.2-3.3-3C145.4,149.5,142.8,152.7,142.6,153.5z"/>
<path class="st3" d="M141.4,138.6c-6.2-2.2-4.4-0.5-4.4-0.5c2,0.9-0.3,1-0.3,1c-5.5-0.4-0.2,1.6-0.2,1.6c-5.3,0.1,0.1,1.3,0.1,1.3
	c-4.4,1.2,0.1,1.1,0.1,1.1l3.6,0.2C140.7,142.7,141.4,138.7,141.4,138.6z"/>
</svg>
